<?xml version="1.0" encoding="utf-8"?>
<!-- Svg Vector Icons : http://www.onlinewebfonts.com/icon -->
<!DOCTYPE svg PUBLIC "-//W3C//DTD SVG 1.1//EN" "http://www.w3.org/Graphics/SVG/1.1/DTD/svg11.dtd">
<svg version="1.1" xmlns="http://www.w3.org/2000/svg" xmlns:xlink="http://www.w3.org/1999/xlink" x="0px" y="0px" viewBox="0 0 1000 1000" enable-background="new 0 0 1000 1000" xml:space="preserve">
<metadata> Svg Vector Icons : http://www.onlinewebfonts.com/icon </metadata>
<g><path d="M689.5,991.7c-3.8-16.5-6.6-33.3-11.6-49.4c-4.7-15.1-17-19.7-31-12.2c-18.7,10.1-36.8,21.4-55.2,32.2c-1.6,1-3.3,1.9-5.3,3.1c-25.1-32.4-49.9-64.5-75.2-97.2c4.1-3.5,8.3-6.7,12-10.3c8.8-8.4,18-16.4,25.8-25.7c7.7-9.2,5.7-19-5.3-24.3c-12.2-5.8-25.3-9.8-38-14.3c-5.3-1.9-10.8-3.1-16.2-4.4c-2.4-0.6-3.3-1.7-3.3-4.3c0.1-30,0.1-59.9,0-89.9c0-2.7,0.9-3.9,3.6-4.6c14.8-3.6,29.5-7.5,44.2-11.2c0.5-0.1,0.9-0.2,1.4-0.3c15.1-4.5,19-14.5,9.6-27.2c-9-12.2-19.2-23.6-28.8-35.4c-1.1-1.4-2.3-2.7-3.5-4.1c23.9-32.5,47.7-64.9,71.8-97.7c1.4,1,2.8,1.9,4.2,2.9c14.9,10.9,29.6,21.9,44.6,32.5c3.3,2.4,7.3,4.1,11.3,5.1c12.3,3.1,22-1.5,28-15.1c6.2-13.8,10.7-28.4,15.7-42.7c3.1-9,2.8-9.2,12-9.1c22.6,0.2,45.2,1.1,67.7,0.5c12.8-0.3,19.7,6.3,24.3,16.4c5.2,11.5,9.5,23.4,14.5,35c1.7,3.9,3.9,7.7,6.5,11.2c4.8,6.7,10.7,8.8,18,5.3c8.3-4,16.2-9.1,23.7-14.4c12.4-8.7,24.4-18.1,37-27.4c24.9,33.4,49.5,66.5,74.2,99.5c-9.1,7.4-18.2,14.2-26.6,21.7c-5.3,4.8-10,10.4-14.2,16.2c-7.1,9.7-5,18.5,6.3,22.7c13,4.9,26.5,8.2,39.9,12.1c4.9,1.4,10,2.3,14.8,3.9c1.4,0.5,3.3,2.6,3.3,4c0.2,30.1,0.1,60.2,0.2,90.4c0,3.1-1.8,3.7-4,4.3c-13.4,3.8-26.8,7.4-40.1,11.7c-5.5,1.8-10.9,4.6-15.8,7.9c-9,6-10.8,15.3-4.8,24.2c3.3,4.8,7.3,9.3,11.7,13.3c8,7.3,16.5,14.1,25.2,21.4c-32.8,31.6-65.4,63-98.2,94.5c-8.7-7.7-17-15.4-25.8-22.6c-4.8-3.9-10-7.5-15.5-10.2c-10.1-4.9-21.2-1.3-25.3,9.1c-3.7,9.6-5.6,19.9-7.6,30c-1.5,7.5-2.1,15.2-3.1,22.8C754.3,991.7,721.9,991.7,689.5,991.7z M737.6,866.1c69.3,0,124.8-53.5,126-124.9c1.3-70.6-54.2-128.1-125.1-129.3c-69.6-1.2-126.9,54.9-127.8,126.2C609.9,808.2,665.4,865.8,737.6,866.1z"/><path d="M195,246.9c0.3-44.2,14.2-88.4,41.1-128.3c26.2-38.8,60.6-68.4,102.8-88.8C362,18.6,386.6,12.4,412,9.3c28-3.4,54.7,2.6,80,13.8c73.1,32.5,120.8,88.3,144.5,164.1c20.2,64.8,8.7,125.7-29.2,181.6c-24.4,35.9-55.9,64.6-93.6,86.1c-48.7,27.7-100.1,33.6-153.2,15.6c-64.6-21.9-114.5-61.6-144.6-124C202.4,318.5,195.5,286.7,195,246.9z"/><path d="M350.4,533.3c41.7,0,83.3-0.1,125,0.1c5.4,0,10.9,0.7,16.2,1.7c11.8,2.2,16.4,9,12.6,20.5c-3.3,10-7.3,19.9-12.6,28.9c-15,25.8-29.3,51.8-39,80.1c-15.7,45.7-21.5,92.5-15.1,140.5c2.5,18.5,6.8,36.8,10,55.2c0.9,5.3,1.5,10.8,1.2,16.2c-0.5,8.8-6,14.3-14.3,15.8c-8.9,1.7-18.1,2.6-27.1,3c-41.4,1.7-82.6-1.4-123.7-5.2c-35.9-3.3-71.8-5.9-107.7-9.1c-32.8-3-65.8-5.6-98.4-10c-15.7-2.1-31.3-6.8-46.3-12.1c-18.4-6.5-24.2-17.5-19.5-36.5c5.4-21.5,11.8-42.9,18.7-64c13.1-40.1,25.5-80.6,40.6-119.9c21.2-55.1,61.7-89.1,119.9-100.1c17.8-3.4,36.2-4.3,54.4-4.9c35.1-1.1,70.2-1.3,105.2-1.8C350.4,532.2,350.4,532.7,350.4,533.3z"/></g>
</svg>