<?xml version="1.0" standalone="no"?>
<!DOCTYPE svg PUBLIC "-//W3C//DTD SVG 1.1//EN" "http://www.w3.org/Graphics/SVG/1.1/DTD/svg11.dtd" >
<svg xmlns="http://www.w3.org/2000/svg" xmlns:xlink="http://www.w3.org/1999/xlink" version="1.1">
<metadata>
Created by FontForge 20150804 at Sun Oct 20 21:26:37 2019
 By cloudconvert
Copyright (c) 2018 Source Foundry Authors / Copyright (c) 2003 by Bitstream, Inc. All Rights Reserved.
</metadata>
<defs>
<font id="Hack-Regular" horiz-adv-x="1233" >
  <font-face 
    font-family="Hack"
    font-weight="400"
    font-stretch="normal"
    units-per-em="2048"
    panose-1="2 11 6 9 3 2 2 2 2 4"
    ascent="1556"
    descent="-492"
    x-height="1118"
    cap-height="1493"
    bbox="-954 -605 1355 2027"
    underline-thickness="90"
    underline-position="-265"
    unicode-range="U+000D-FEFF"
  />
    <missing-glyph />
    <glyph glyph-name="ubreve" 
d="M1128 1444v-1806h-1024v1806h1024zM1014 1329h-795v-1577h795v1577z" />
    <glyph glyph-name="uni0000" horiz-adv-x="0" 
 />
    <glyph glyph-name="uni0000" horiz-adv-x="0" 
 />
    <glyph glyph-name="uni000D" unicode="&#xd;" 
 />
    <glyph glyph-name="uni0020" unicode=" " 
 />
    <glyph glyph-name="uni00C2" unicode="&#xc2;" 
d="M522 1852h189l211 -266h-140l-166 178l-165 -178h-140zM494 1493h245l457 -1493h-209l-110 389h-523l-108 -389h-209zM829 551l-213 764l-213 -764h426z" />
    <glyph glyph-name="uni00C4" unicode="&#xc4;" 
d="M349 1647q-30 0 -30 30v143q0 30 30 30h143q30 0 30 -30v-143q0 -30 -30 -30h-143zM741 1647q-30 0 -30 30v143q0 30 30 30h142q30 0 30 -30v-143q0 -30 -30 -30h-142zM494 1493h245l457 -1493h-209l-110 389h-523l-108 -389h-209zM829 551l-213 764l-213 -764h426z" />
    <glyph glyph-name="uni00C0" unicode="&#xc0;" 
d="M358 1849h184l197 -264h-154zM494 1493h245l457 -1493h-209l-110 389h-523l-108 -389h-209zM829 551l-213 764l-213 -764h426z" />
    <glyph glyph-name="uni0100" unicode="&#x100;" 
d="M317 1800h598v-148h-598v148zM494 1493h245l457 -1493h-209l-110 389h-523l-108 -389h-209zM829 551l-213 764l-213 -764h426z" />
    <glyph glyph-name="uni0104" unicode="&#x104;" 
d="M1124 -272q31 0 54.5 7.5t54.5 22.5v-133q-44 -12 -69 -16t-58 -4q-231 0 -231 173q0 49 23.5 100.5t84.5 121.5h4l-110 389h-523l-108 -389h-209l457 1493h245l457 -1493h-94q-48 -65 -68 -107.5t-20 -76.5q0 -88 110 -88zM829 551l-213 764l-213 -764h426z" />
    <glyph glyph-name="uni00C5" unicode="&#xc5;" 
d="M465 1399q-58 33 -90 93q-33 59 -33 133q0 79 37 141t99 98.5t138 36.5q58 0 108.5 -21.5t87.5 -58.5q35 -35 57 -85t22 -111q0 -72 -32 -131q-31 -57 -91 -95l428 -1399h-209l-110 389h-523l-108 -389h-209zM616 1475q64 0 108 44t44 107q0 64 -44 108
q-23 23 -51.5 33.5t-57.5 10.5q-63 0 -106 -43q-44 -44 -44 -109q0 -63 44 -107t107 -44zM829 551l-213 760l-213 -760h426z" />
    <glyph glyph-name="uni00C3" unicode="&#xc3;" 
d="M287 1587q0 48 12 88t40 72q51 59 137 59q29 0 66 -8q27 -7 79 -35l57 -30q20 -13 40 -19q16 -6 32 -6q31 0 51 26t20 66v6h125q-2 -100 -53 -159q-51 -60 -136 -60q-29 0 -63 8q-14 4 -32.5 11.5t-49.5 23.5l-57 33q-11 7 -21.5 11.5t-19.5 8.5q-14 5 -29 5
q-34 0 -53 -25q-20 -26 -20 -70v-6h-125zM494 1493h245l457 -1493h-209l-110 389h-523l-108 -389h-209zM829 551l-213 764l-213 -764h426z" />
    <glyph glyph-name="uni00C6" unicode="&#xc6;" 
d="M410 1493h751v-170h-338v-442h307v-170h-307v-541h357v-170h-543v383h-352l-101 -383h-184zM637 551v772h-107l-202 -772h309z" />
    <glyph glyph-name="uni0042" unicode="B" 
d="M166 1493h442q228 0 353 -99q124 -99 124 -281q0 -70 -17 -123.5t-48 -91.5q-32 -38 -81 -63.5t-116 -35.5q148 -22 231 -125t83 -265q0 -202 -133 -305q-134 -104 -396 -104h-442v1493zM604 877q148 0 212 57q65 56 65 177q0 117 -64 166q-65 50 -213 50h-235v-450h235z
M608 166q174 0 251 62q75 62 75 202q0 146 -79 215q-80 68 -247 68h-239v-547h239z" />
    <glyph glyph-name="uni0043" unicode="C" 
d="M742 -29q-140 0 -252.5 50t-192.5 153q-158 205 -158 570q0 244 72 417.5t207.5 266t323.5 92.5q97 0 174.5 -19t156.5 -63v-207q-73 61 -159 93q-87 32 -173 32q-195 0 -293 -152t-98 -459q0 -610 393 -610q86 0 173 32q84 32 157 93v-207q-79 -41 -158 -62
q-80 -20 -173 -20z" />
    <glyph glyph-name="uni0106" unicode="&#x106;" 
d="M762 1852h186l-229 -264h-154zM742 -29q-286 0 -445 203q-158 205 -158 570q0 181 39.5 325t119.5 247q160 204 444 204q93 0 173 -20q79 -20 158 -62v-207q-73 61 -159 93q-87 32 -173 32q-195 0 -293 -152t-98 -459q0 -306 98 -458q47 -72 119.5 -112t174.5 -40
q87 0 174 32q84 32 157 93v-207q-79 -41 -158 -62q-80 -20 -173 -20z" />
    <glyph glyph-name="uni010C" unicode="&#x10c;" 
d="M401 1852h140l165 -178l166 178h140l-211 -266h-189zM742 -29q-286 0 -445 203q-158 205 -158 570q0 181 39.5 325t119.5 247q160 204 444 204q93 0 173 -20q79 -20 158 -62v-207q-73 61 -159 93q-87 32 -173 32q-195 0 -293 -152t-98 -459q0 -306 98 -458
q47 -72 119.5 -112t174.5 -40q87 0 174 32q84 32 157 93v-207q-79 -41 -158 -62q-80 -20 -173 -20z" />
    <glyph glyph-name="uni00C7" unicode="&#xc7;" 
d="M741 1356q-195 0 -293 -152t-98 -459q0 -306 98 -458q47 -72 119.5 -112t174.5 -40q87 0 174 32q84 32 157 93v-207q-79 -41 -158 -62q-22 -5 -45.5 -9.5t-47.5 -6.5q43 -52 61 -90q11 -23 18.5 -48.5t7.5 -55.5q0 -85 -60 -131q-29 -22 -73 -33.5t-106 -11.5
q-44 0 -87 6q-46 6 -88 18v131q69 -32 151 -32q124 0 124 92q0 32 -22 75q-8 16 -19.5 35.5t-27.5 41.5q-259 17 -404 202q-158 205 -158 570q0 181 39.5 325t119.5 247q160 204 444 204q93 0 173 -20q79 -20 158 -62v-207q-73 61 -159 93q-87 32 -173 32z" />
    <glyph glyph-name="uni010A" unicode="&#x10a;" 
d="M618 1647q-30 0 -30 30v145q0 30 30 30h145q30 0 30 -30v-145q0 -30 -30 -30h-145zM744 -29q-288 0 -446.5 203t-158.5 569q0 367 159 572t447 205q176 0 328 -82v-207q-73 60 -156.5 92.5t-176.5 32.5q-390 0 -390 -611q0 -610 390 -610q183 0 333 125v-207
q-152 -82 -329 -82z" />
    <glyph glyph-name="uni0044" unicode="D" 
d="M137 1493h303q342 0 504 -182t162 -566q0 -381 -162 -563t-504 -182h-303v1493zM436 166q256 0 356 126q101 125 101 455q0 331 -100 455q-51 64 -141.5 94.5t-215.5 30.5h-96v-1161h96z" />
    <glyph glyph-name="uni00D0" unicode="&#xd0;" 
d="M133 709h-125v149h125v635h303q342 0 504 -182t162 -565q0 -382 -162 -564q-83 -93 -209.5 -137.5t-294.5 -44.5h-303v709zM436 166q138 0 222 33t133 94q52 65 77 175t25 280q0 176 -25.5 282t-75.5 170q-53 67 -139.5 97t-216.5 30h-96v-469h264v-149h-264v-543h96z
" />
    <glyph glyph-name="uni010E" unicode="&#x10e;" 
d="M233 1852h140l165 -178l166 178h140l-211 -266h-189zM137 1493h303q342 0 504 -182t162 -564q0 -383 -162 -565t-504 -182h-303v1493zM436 166q170 0 270.5 54t143.5 180.5t43 345.5q0 220 -43.5 347t-143.5 180.5t-270 53.5h-96v-1161h96z" />
    <glyph glyph-name="uni0110" unicode="&#x110;" 
d="M133 709h-125v149h125v635h303q341 0 503.5 -182t162.5 -565q0 -382 -162 -564t-504 -182h-303v709zM436 166q170 0 270.5 54t143.5 180.5t43 345.5q0 220 -43.5 347t-143.5 180.5t-270 53.5h-96v-469h264v-149h-264v-543h96z" />
    <glyph glyph-name="uni0045" unicode="E" 
d="M197 1493h886v-170h-684v-442h654v-170h-654v-541h703v-170h-905v1493z" />
    <glyph glyph-name="uni00C9" unicode="&#xc9;" 
d="M690 1856h186l-229 -264h-154zM197 1493h886v-170h-684v-442h654v-170h-654v-541h703v-170h-905v1493z" />
    <glyph glyph-name="uni011A" unicode="&#x11a;" 
d="M347 1852h140l165 -178l166 178h140l-211 -266h-189zM197 1493h886v-170h-684v-442h654v-170h-654v-541h703v-170h-905v1493z" />
    <glyph glyph-name="uni00CA" unicode="&#xca;" 
d="M540 1852h189l211 -266h-140l-166 178l-165 -178h-140zM197 1493h886v-170h-684v-442h654v-170h-654v-541h703v-170h-905v1493z" />
    <glyph glyph-name="uni00CB" unicode="&#xcb;" 
d="M367 1647q-30 0 -30 30v143q0 30 30 30h143q30 0 30 -30v-143q0 -30 -30 -30h-143zM759 1647q-30 0 -30 30v143q0 30 30 30h142q30 0 30 -30v-143q0 -30 -30 -30h-142zM197 1493h886v-170h-684v-442h654v-170h-654v-541h703v-170h-905v1493z" />
    <glyph glyph-name="uni0116" unicode="&#x116;" 
d="M561 1647q-30 0 -30 30v145q0 30 30 30h145q30 0 30 -30v-145q0 -30 -30 -30h-145zM197 1493h886v-170h-684v-442h654v-170h-654v-541h703v-170h-905v1493z" />
    <glyph glyph-name="uni00C8" unicode="&#xc8;" 
d="M395 1856h184l197 -264h-154zM197 1493h886v-170h-684v-442h654v-170h-654v-541h703v-170h-905v1493z" />
    <glyph glyph-name="uni0112" unicode="&#x112;" 
d="M335 1800h598v-148h-598v148zM197 1493h886v-170h-684v-442h654v-170h-654v-541h703v-170h-905v1493z" />
    <glyph glyph-name="uni0118" unicode="&#x118;" 
d="M952 0q-48 -65 -68 -107.5t-20 -76.5q0 -88 110 -88q62 0 124 30v-133q-42 -11 -74 -15.5t-69 -4.5q-112 0 -171 42.5t-59 131.5q0 49 23.5 100t84.5 121h-636v1493h886v-170h-684v-442h654v-170h-654v-541h703v-170h-150z" />
    <glyph glyph-name="uni0046" unicode="F" 
d="M233 1493h879v-170h-676v-460h613v-170h-613v-693h-203v1493z" />
    <glyph glyph-name="uni0047" unicode="G" 
d="M700 -29q-143 0 -253.5 52t-187.5 152q-157 205 -157 569q0 370 160 573t441 203q98 0 184 -26q88 -28 166 -81v-207q-43 41 -85.5 69t-80.5 45q-44 19 -90 27.5t-91 8.5q-195 0 -294 -152t-99 -461q0 -158 24 -270.5t72 -187.5q95 -150 294 -150q66 0 117 16
q24 8 47 19.5t44 28.5v401h-217v166h410v-643q-82 -76 -182 -113q-102 -39 -222 -39z" />
    <glyph glyph-name="uni011E" unicode="&#x11e;" 
d="M656 1589q-290 0 -313 242h119q25 -111 196 -111q163 0 193 111h119q-23 -242 -314 -242zM700 -29q-143 0 -253.5 52t-187.5 152q-157 205 -157 569q0 181 39.5 325t119.5 247q76 97 187 150.5t254 53.5q197 0 351 -107v-207q-43 41 -85.5 69t-80.5 45q-44 19 -90 27.5
t-91 8.5q-195 0 -294 -152t-99 -461q0 -158 24 -270.5t72 -187.5q50 -78 122.5 -114t171.5 -36q128 0 208 64v401h-217v166h410v-643q-82 -76 -182 -113q-102 -39 -222 -39z" />
    <glyph glyph-name="uni01E6" unicode="&#x1e6;" 
d="M401 1852h140l165 -178l166 178h140l-211 -266h-189zM700 -29q-282 0 -440 203t-158 569q0 245 72 419t206.5 266t322.5 92q99 0 184 -26.5t166 -80.5v-207q-81 78 -165.5 114t-180.5 36q-200 0 -297 -152.5t-97 -464.5q0 -307 96 -455.5t296 -148.5q125 0 206 64v401
h-217v166h410v-643q-164 -152 -404 -152z" />
    <glyph glyph-name="uni0122" unicode="&#x122;" 
d="M700 -29q-282 0 -440 203t-158 569q0 245 72 419t206.5 266t322.5 92q99 0 184 -26.5t166 -80.5v-207q-81 78 -165.5 114t-180.5 36q-200 0 -297 -152.5t-97 -464.5q0 -307 96 -455.5t296 -148.5q125 0 206 64v401h-217v166h410v-643q-164 -152 -404 -152zM630 -228h239
l-187 -345h-146z" />
    <glyph glyph-name="uni0120" unicode="&#x120;" 
d="M618 1647q-30 0 -30 30v145q0 30 30 30h145q30 0 30 -30v-145q0 -30 -30 -30h-145zM700 -29q-282 0 -440 203t-158 569q0 245 72 419t206.5 266t322.5 92q99 0 184 -26.5t166 -80.5v-207q-81 78 -165.5 114t-180.5 36q-200 0 -297 -152.5t-97 -464.5q0 -307 96 -455.5
t296 -148.5q125 0 206 64v401h-217v166h410v-643q-164 -152 -404 -152z" />
    <glyph glyph-name="uni0048" unicode="H" 
d="M137 1493h203v-612h553v612h203v-1493h-203v711h-553v-711h-203v1493z" />
    <glyph glyph-name="uni0126" unicode="&#x126;" 
d="M137 1105h-134v164h134v224h202v-224h554v224h202v-224h135v-164h-135v-1105h-202v711h-554v-711h-202v1105zM893 881v224h-554v-224h554z" />
    <glyph glyph-name="uni0049" unicode="I" 
d="M201 170h313v1153h-313v170h829v-170h-313v-1153h313v-170h-829v170z" />
    <glyph glyph-name="uni00CD" unicode="&#xcd;" 
d="M691 1856h186l-229 -264h-154zM201 170h313v1153h-313v170h829v-170h-313v-1153h313v-170h-829v170z" />
    <glyph glyph-name="uni00CE" unicode="&#xce;" 
d="M521 1852h189l211 -266h-140l-166 178l-165 -178h-140zM201 170h313v1153h-313v170h829v-170h-313v-1153h313v-170h-829v170z" />
    <glyph glyph-name="uni00CF" unicode="&#xcf;" 
d="M349 1647q-30 0 -30 30v143q0 30 30 30h143q30 0 30 -30v-143q0 -30 -30 -30h-143zM741 1647q-30 0 -30 30v143q0 30 30 30h142q30 0 30 -30v-143q0 -30 -30 -30h-142zM201 170h313v1153h-313v170h829v-170h-313v-1153h313v-170h-829v170z" />
    <glyph glyph-name="uni0130" unicode="&#x130;" 
d="M543 1647q-30 0 -30 30v145q0 30 30 30h145q30 0 30 -30v-145q0 -30 -30 -30h-145zM201 170h313v1153h-313v170h829v-170h-313v-1153h313v-170h-829v170z" />
    <glyph glyph-name="uni00CC" unicode="&#xcc;" 
d="M372 1856h184l197 -264h-154zM201 170h313v1153h-313v170h829v-170h-313v-1153h313v-170h-829v170z" />
    <glyph glyph-name="uni012A" unicode="&#x12a;" 
d="M335 1800h598v-148h-598v148zM201 170h313v1153h-313v170h829v-170h-313v-1153h313v-170h-829v170z" />
    <glyph glyph-name="uni012E" unicode="&#x12e;" 
d="M717 1323v-1153h313v-170h-313q-48 -65 -68 -107.5t-20 -76.5q0 -88 110 -88q63 0 124 30v-133q-42 -11 -74 -15.5t-69 -4.5q-112 0 -171 42.5t-59 131.5q0 49 23 100t85 121h-397v170h313v1153h-313v170h829v-170h-313z" />
    <glyph glyph-name="uni0128" unicode="&#x128;" 
d="M287 1633q0 48 12 88t40 72q51 59 137 59q29 0 66 -8q27 -7 79 -35l57 -30q20 -13 40 -19q16 -6 32 -6q31 0 51 26t20 66v6h125q-2 -100 -53 -159q-51 -60 -136 -60q-29 0 -63 8q-14 4 -32.5 11.5t-49.5 23.5l-57 33q-11 7 -21.5 11.5t-19.5 8.5q-14 5 -29 5
q-34 0 -53 -25q-20 -26 -20 -70v-6h-125zM201 170h313v1153h-313v170h829v-170h-313v-1153h313v-170h-829v170z" />
    <glyph glyph-name="uni004A" unicode="J" 
d="M502 -29q-106 0 -195 22q-95 22 -198 68v236q91 -81 188 -121q100 -41 202 -41q67 0 118.5 18t80.5 57q56 74 56 277v836h-381v170h583v-1006q0 -188 -46 -301.5t-146 -164t-262 -50.5z" />
    <glyph glyph-name="uni004B" unicode="K" 
d="M137 1493h203v-664l631 664h237l-581 -610l598 -883h-244l-487 748l-154 -164v-584h-203v1493z" />
    <glyph glyph-name="uni0136" unicode="&#x136;" 
d="M137 1493h203v-664l631 664h237l-581 -610l598 -883h-244l-487 748l-154 -164v-584h-203v1493zM608 -199h239l-187 -345h-146z" />
    <glyph glyph-name="uni004C" unicode="L" 
d="M215 1493h203v-1323h721v-170h-924v1493z" />
    <glyph glyph-name="uni0139" unicode="&#x139;" 
d="M412 1856h186l-229 -264h-154zM215 1493h203v-1323h721v-170h-924v1493z" />
    <glyph glyph-name="uni013D" unicode="&#x13d;" 
d="M215 1493h203v-1323h721v-170h-924v1493zM718 1491h198l-113 -376h-154z" />
    <glyph glyph-name="uni013B" unicode="&#x13b;" 
d="M215 1493h203v-1323h721v-170h-924v1493zM604 -199h239l-187 -345h-146z" />
    <glyph glyph-name="uni0141" unicode="&#x141;" 
d="M215 571l-145 -106l-80 110l225 158v760h203v-616l315 219l78 -111l-393 -274v-541h721v-170h-924v571z" />
    <glyph glyph-name="uni004D" unicode="M" 
d="M86 1493h270l258 -760l260 760h271v-1493h-187v1319l-266 -787h-153l-267 787v-1319h-186v1493z" />
    <glyph glyph-name="uni004E" unicode="N" 
d="M139 1493h256l504 -1229v1229h195v-1493h-256l-504 1229v-1229h-195v1493z" />
    <glyph glyph-name="uni0143" unicode="&#x143;" 
d="M731 1856h186l-229 -264h-154zM139 1493h256l504 -1229v1229h195v-1493h-256l-504 1229v-1229h-195v1493z" />
    <glyph glyph-name="uni0147" unicode="&#x147;" 
d="M347 1852h140l165 -178l166 178h140l-211 -266h-189zM139 1493h256l504 -1229v1229h195v-1493h-256l-504 1229v-1229h-195v1493z" />
    <glyph glyph-name="uni0145" unicode="&#x145;" 
d="M139 1493h256l504 -1229v1229h195v-1493h-256l-504 1229v-1229h-195v1493zM544 -199h239l-187 -345h-146z" />
    <glyph glyph-name="uni014A" unicode="&#x14a;" 
d="M536 -270h167q90 0 134.5 62t44.5 208v1009q0 180 -58 264.5t-182 84.5q-142 0 -217.5 -108.5t-75.5 -312.5v-937h-202v1493h184l18 -198q110 227 364 227q372 0 372 -523v-1019q0 -196 -89 -301t-255 -105h-205v156z" />
    <glyph glyph-name="uni00D1" unicode="&#xd1;" 
d="M287 1633q0 48 12 88t40 72q51 59 137 59q29 0 66 -8q27 -7 79 -35l57 -30q20 -13 40 -19q16 -6 32 -6q31 0 51 26t20 66v6h125q-2 -100 -53 -159q-51 -60 -136 -60q-29 0 -63 8q-14 4 -32.5 11.5t-49.5 23.5l-57 33q-11 7 -21.5 11.5t-19.5 8.5q-14 5 -29 5
q-34 0 -53 -25q-20 -26 -20 -70v-6h-125zM139 1493h256l504 -1229v1229h195v-1493h-256l-504 1229v-1229h-195v1493z" />
    <glyph glyph-name="uni004F" unicode="O" 
d="M616 -29q-253 0 -376 191q-123 190 -123 583t124 583q125 192 375 192q123 0 218 -46t159 -146q123 -192 123 -583q0 -390 -123 -582q-64 -100 -159 -146t-218 -46zM616 135q154 0 222 141q67 137 67 469t-67 470q-68 141 -222 141q-152 0 -220 -141q-68 -144 -68 -470
q0 -325 68 -469q68 -141 220 -141z" />
    <glyph glyph-name="uni00D3" unicode="&#xd3;" 
d="M701 1856h186l-229 -264h-154zM616 -29q-253 0 -376 191q-123 190 -123 583t124 583q125 192 375 192q123 0 218 -46t159 -146q123 -192 123 -583q0 -390 -123 -582q-64 -100 -159 -146t-218 -46zM616 135q154 0 222 141q67 137 67 469t-67 470q-68 141 -222 141
q-152 0 -220 -141q-68 -144 -68 -470q0 -325 68 -469q68 -141 220 -141z" />
    <glyph glyph-name="uni00D4" unicode="&#xd4;" 
d="M540 1852h189l211 -266h-140l-166 178l-165 -178h-140zM616 -29q-253 0 -376 191q-123 190 -123 583t124 583q125 192 375 192q123 0 218 -46t159 -146q123 -192 123 -583q0 -390 -123 -582q-64 -100 -159 -146t-218 -46zM616 135q154 0 222 141q67 137 67 469t-67 470
q-68 141 -222 141q-152 0 -220 -141q-68 -144 -68 -470q0 -325 68 -469q68 -141 220 -141z" />
    <glyph glyph-name="uni00D6" unicode="&#xd6;" 
d="M349 1647q-30 0 -30 30v143q0 30 30 30h143q30 0 30 -30v-143q0 -30 -30 -30h-143zM741 1647q-30 0 -30 30v143q0 30 30 30h142q30 0 30 -30v-143q0 -30 -30 -30h-142zM616 -29q-253 0 -376 191q-123 190 -123 583t124 583q125 192 375 192q123 0 218 -46t159 -146
q123 -192 123 -583q0 -390 -123 -582q-64 -100 -159 -146t-218 -46zM616 135q154 0 222 141q67 137 67 469t-67 470q-68 141 -222 141q-152 0 -220 -141q-68 -144 -68 -470q0 -325 68 -469q68 -141 220 -141z" />
    <glyph glyph-name="uni00D2" unicode="&#xd2;" 
d="M382 1856h184l197 -264h-154zM616 -29q-253 0 -376 191q-123 190 -123 583t124 583q125 192 375 192q123 0 218 -46t159 -146q123 -192 123 -583q0 -390 -123 -582q-64 -100 -159 -146t-218 -46zM616 135q154 0 222 141q67 137 67 469t-67 470q-68 141 -222 141
q-152 0 -220 -141q-68 -144 -68 -470q0 -325 68 -469q68 -141 220 -141z" />
    <glyph glyph-name="uni01A0" unicode="&#x1a0;" 
d="M1171 1557q11 -42 15.5 -74t4.5 -69q0 -112 -42.5 -171t-131.5 -59q-35 0 -73 12q61 -174 61 -451q0 -774 -501 -774q-251 0 -374.5 190.5t-123.5 582.5t123.5 584t375.5 192q220 0 340 -144q45 -29 76.5 -41t58.5 -12q88 0 88 110q0 63 -30 124h133zM727 276
q67 137 67 469t-67 470q-67 141 -222 141q-153 0 -220 -141q-68 -144 -68 -470q0 -325 68 -469q67 -141 220 -141q155 0 222 141z" />
    <glyph glyph-name="uni0150" unicode="&#x150;" 
d="M541 1859h186l-229 -264h-154zM860 1859h186l-229 -264h-154zM615 -29q-251 0 -374.5 190.5t-123.5 582.5t123.5 584t375.5 192q253 0 376.5 -192t123.5 -583q0 -774 -501 -774zM616 135q154 0 222 141q67 137 67 469t-67 470q-68 141 -222 141q-152 0 -220 -141
q-68 -144 -68 -470q0 -325 68 -469q68 -141 220 -141z" />
    <glyph glyph-name="uni014C" unicode="&#x14c;" 
d="M317 1800h598v-148h-598v148zM615 -29q-251 0 -374.5 190.5t-123.5 582.5t123.5 584t375.5 192q253 0 376.5 -192t123.5 -583q0 -774 -501 -774zM616 135q154 0 222 141q67 137 67 469t-67 470q-68 141 -222 141q-152 0 -220 -141q-68 -144 -68 -470q0 -325 68 -469
q68 -141 220 -141z" />
    <glyph glyph-name="uni00D8" unicode="&#xd8;" 
d="M8 0l178 252q-31 70 -50 204q-9 63 -14 131.5t-5 152.5q0 203 30.5 347t93.5 241q64 99 157 145.5t217 46.5q60 0 109.5 -10.5t93.5 -30.5q85 -40 143 -121l139 201l100 -74l-168 -238q21 -41 36.5 -95t26.5 -115q10 -58 15.5 -132.5t5.5 -160.5q0 -389 -123 -581
q-60 -94 -153.5 -143t-227.5 -49q-57 0 -108 9.5t-99 31.5q-90 40 -151 121l-143 -203zM842 1190q-13 42 -34.5 73t-47.5 51q-56 42 -145 42q-84 0 -136.5 -38t-84.5 -110q-34 -76 -50 -199.5t-16 -322.5q0 -44 0.5 -71t2.5 -59q1 -14 1.5 -32t5.5 -53zM617 135
q82 0 135.5 37t85.5 105q32 66 49.5 177.5t17.5 293.5q0 52 -1.5 96.5t-3.5 78.5q-2 33 -5.5 60t-9.5 53l-514 -733q30 -78 96 -123q65 -45 150 -45z" />
    <glyph glyph-name="uni01FE" unicode="&#x1fe;" 
d="M691 1856h186l-229 -264h-154zM8 0l178 252q-32 72 -50.5 204t-18.5 288q0 776 497 776q232 0 347 -162l139 201l100 -74l-168 -238q42 -81 63 -209.5t21 -293.5q0 -390 -124 -581.5t-379 -191.5q-237 0 -359 162l-143 -203zM842 1190q-24 78 -80 122t-147 44
q-85 0 -136.5 -38t-83.5 -108q-37 -82 -52 -212t-15 -316q0 -147 10 -211zM619 135q152 0 219 142q32 67 49.5 177.5t17.5 300.5q0 100 -5 168t-15 113l-514 -733q67 -168 248 -168z" />
    <glyph glyph-name="uni00D5" unicode="&#xd5;" 
d="M287 1633q0 48 12 88t40 72q51 59 137 59q29 0 66 -8q27 -7 79 -35l57 -30q20 -13 40 -19q16 -6 32 -6q31 0 51 26t20 66v6h125q-2 -100 -53 -159q-51 -60 -136 -60q-29 0 -63 8q-14 4 -32.5 11.5t-49.5 23.5l-57 33q-11 7 -21.5 11.5t-19.5 8.5q-14 5 -29 5
q-34 0 -53 -25q-20 -26 -20 -70v-6h-125zM616 -29q-253 0 -376 191q-123 190 -123 583t124 583q125 192 375 192q123 0 218 -46t159 -146q123 -192 123 -583q0 -390 -123 -582q-64 -100 -159 -146t-218 -46zM616 135q154 0 222 141q67 137 67 469t-67 470q-68 141 -222 141
q-152 0 -220 -141q-68 -144 -68 -470q0 -325 68 -469q68 -141 220 -141z" />
    <glyph glyph-name="uni0152" unicode="&#x152;" 
d="M612 0q-158 0 -257.5 43.5t-158.5 123.5q-124 169 -124 580q0 221 32 360t91 220q60 82 161 124t256 42h594v-170h-358v-442h328v-170h-328v-541h369v-170h-605zM651 170v1153h-61q-177 0 -246 -115q-34 -57 -52 -168t-18 -295q0 -180 17.5 -291t52.5 -169
q69 -115 246 -115h61z" />
    <glyph glyph-name="uni0050" unicode="P" 
d="M172 1493h436q248 0 379 -113q67 -59 98 -143.5t31 -190.5q0 -220 -128 -333q-127 -113 -380 -113h-234v-600h-202v1493zM608 766q75 0 129 20t90 54q78 74 78 207t-78 207q-76 73 -219 73h-234v-561h234z" />
    <glyph glyph-name="uni00DE" unicode="&#xde;" 
d="M201 1493h202v-270h254q259 0 384 -105q124 -105 124 -324q0 -112 -31.5 -191.5t-92.5 -130.5q-125 -105 -384 -105h-254v-367h-202v1493zM637 532q157 0 237 66q78 66 78 197q0 63 -19 113.5t-59 83.5q-36 30 -95 47.5t-142 17.5h-234v-525h234z" />
    <glyph glyph-name="uni0051" unicode="Q" 
d="M655 -27q-5 0 -20 -1t-18 -1q-249 -6 -376 192.5t-124 581.5q0 393 124 583q125 192 375 192q123 0 218 -46t159 -146q123 -192 123 -583q0 -292 -68 -473q-33 -88 -85 -152t-123 -100l362 -370h-236zM616 135q154 0 222 141q67 137 67 469t-67 470q-68 141 -222 141
q-152 0 -220 -141q-68 -144 -68 -470q0 -325 68 -469q68 -141 220 -141z" />
    <glyph glyph-name="uni0052" unicode="R" 
d="M143 1493h416q247 0 377 -111q131 -112 131 -317q0 -79 -20 -138.5t-60 -106.5q-79 -94 -227 -115q81 -20 133 -75q28 -29 60.5 -81.5t76.5 -140.5l203 -408h-217l-178 377q-39 83 -73.5 134t-64.5 74q-31 24 -72.5 35t-88.5 11h-193v-631h-203v1493zM567 797
q145 0 216 65t71 197q0 131 -75 200q-36 32 -90.5 50t-129.5 18h-213v-530h221z" />
    <glyph glyph-name="uni0154" unicode="&#x154;" 
d="M631 1856h186l-229 -264h-154zM143 1493h416q245 0 376.5 -111.5t131.5 -312.5q0 -160 -81 -251t-226 -113q54 -15 94.5 -42.5t80.5 -86.5t95 -168l203 -408h-217l-178 377q-52 109 -96 163.5t-91.5 72.5t-111.5 18h-193v-631h-203v1493zM567 797q287 0 287 259
q0 136 -75.5 203.5t-219.5 67.5h-213v-530h221z" />
    <glyph glyph-name="uni0158" unicode="&#x158;" 
d="M257 1852h140l165 -178l166 178h140l-211 -266h-189zM143 1493h416q245 0 376.5 -111.5t131.5 -312.5q0 -160 -81 -251t-226 -113q54 -15 94.5 -42.5t80.5 -86.5t95 -168l203 -408h-217l-178 377q-52 109 -96 163.5t-91.5 72.5t-111.5 18h-193v-631h-203v1493zM567 797
q287 0 287 259q0 136 -75.5 203.5t-219.5 67.5h-213v-530h221z" />
    <glyph glyph-name="uni0156" unicode="&#x156;" 
d="M143 1493h416q245 0 376.5 -111.5t131.5 -312.5q0 -160 -81 -251t-226 -113q54 -15 94.5 -42.5t80.5 -86.5t95 -168l203 -408h-217l-178 377q-52 109 -96 163.5t-91.5 72.5t-111.5 18h-193v-631h-203v1493zM567 797q287 0 287 259q0 136 -75.5 203.5t-219.5 67.5h-213
v-530h221zM616 -199h239l-187 -345h-146z" />
    <glyph glyph-name="uni0053" unicode="S" 
d="M584 -29q-107 0 -213 23t-213 67v215q113 -72 218 -107q101 -34 205 -34q153 0 239 68q85 68 85 197q0 107 -58 165q-32 33 -80.5 54t-123.5 38l-108 25q-101 23 -176.5 57t-125.5 85q-94 94 -94 255q0 203 135 322q64 57 153.5 88t203.5 31q87 0 181 -19
q46 -10 96.5 -24.5t103.5 -34.5v-205q-48 31 -93.5 52.5t-90.5 36.5q-93 30 -186 30q-143 0 -226.5 -67t-83.5 -184q0 -51 14.5 -85.5t40.5 -59.5q57 -54 203 -88l106 -24q207 -47 305 -154q97 -103 97 -284q0 -114 -35 -194.5t-96 -132.5q-131 -112 -383 -112z" />
    <glyph glyph-name="uni015A" unicode="&#x15a;" 
d="M701 1856h186l-229 -264h-154zM586 -29q-110 0 -215 22.5t-213 67.5v215q222 -141 425 -141q153 0 237.5 67.5t84.5 202.5q0 101 -57.5 159t-204.5 93l-108 25q-210 48 -303 143.5t-93 251.5q0 135 61 234.5t171.5 154t259.5 54.5q171 0 381 -78v-205q-185 119 -372 119
q-142 0 -225 -66t-83 -189q0 -89 56 -143t202 -86l106 -24q212 -48 307 -155t95 -282q0 -215 -132 -327.5t-380 -112.5z" />
    <glyph glyph-name="uni0160" unicode="&#x160;" 
d="M327 1852h140l165 -178l166 178h140l-211 -266h-189zM584 -29q-119 0 -213 22q-53 11 -107.5 29t-105.5 39v215q113 -72 218 -107q54 -18 105 -26t101 -8q152 0 238 68q40 32 62.5 79.5t22.5 116.5q0 57 -15.5 98t-42.5 69q-31 32 -82.5 53.5t-121.5 37.5l-108 25
q-101 23 -176.5 57t-125.5 85q-46 47 -70 109t-24 146q0 136 61 235t171.5 152.5t259.5 53.5q87 0 181 -19q46 -10 96.5 -24.5t103.5 -34.5v-205q-50 32 -96 53.5t-88 35.5q-93 30 -186 30q-75 0 -132.5 -17.5t-95.5 -48.5q-82 -67 -82 -185q0 -41 11.5 -78t43.5 -67
q58 -55 203 -88l106 -24q97 -22 174.5 -59.5t130.5 -94.5q97 -103 97 -284q0 -114 -35 -194.5t-96 -132.5q-66 -57 -163.5 -84.5t-219.5 -27.5z" />
    <glyph glyph-name="uni015E" unicode="&#x15e;" 
d="M1001 694q97 -103 97 -284q0 -114 -35 -194.5t-96 -132.5q-94 -79 -250 -103q22 -26 39 -50.5t27 -44.5q11 -23 18.5 -48.5t7.5 -55.5q0 -85 -60 -131q-29 -22 -73 -33.5t-106 -11.5q-44 0 -87 6q-46 6 -88 18v131q69 -32 151 -32q124 0 124 92q0 32 -22 75
q-8 17 -20 35.5t-26 40.5h-18q-119 0 -213 22q-53 11 -107.5 29t-105.5 39v215q113 -72 218 -107q54 -18 105 -26t101 -8q152 0 238 68q40 32 62.5 79.5t22.5 116.5q0 57 -15.5 98t-42.5 69q-31 32 -82.5 53.5t-121.5 37.5l-108 25q-101 23 -176.5 57t-125.5 85
q-46 47 -70 109t-24 146q0 136 61 235t171.5 152.5t259.5 53.5q87 0 181 -19q46 -10 96.5 -24.5t103.5 -34.5v-205q-50 32 -96 53.5t-88 35.5q-93 30 -186 30q-75 0 -132.5 -17.5t-95.5 -48.5q-82 -67 -82 -185q0 -41 11.5 -78t43.5 -67q58 -55 203 -88l106 -24
q97 -22 174.5 -59.5t130.5 -94.5z" />
    <glyph glyph-name="uni0218" unicode="&#x218;" 
d="M586 -29q-110 0 -215 22.5t-213 67.5v215q222 -141 425 -141q153 0 237.5 67.5t84.5 202.5q0 101 -57.5 159t-204.5 93l-108 25q-210 48 -303 143.5t-93 251.5q0 135 61 234.5t171.5 154t259.5 54.5q171 0 381 -78v-205q-185 119 -372 119q-142 0 -225 -66t-83 -189
q0 -89 56 -143t202 -86l106 -24q212 -48 307 -155t95 -282q0 -215 -132 -327.5t-380 -112.5zM502 -197h239l-187 -345h-146z" />
    <glyph glyph-name="uni0054" unicode="T" 
d="M516 1323h-469v170h1139v-170h-467v-1323h-203v1323z" />
    <glyph glyph-name="uni0166" unicode="&#x166;" 
d="M516 577h-265v170h265v576h-469v170h1139v-170h-467v-576h265v-170h-265v-577h-203v577z" />
    <glyph glyph-name="uni0164" unicode="&#x164;" 
d="M317 1852h140l165 -178l166 178h140l-211 -266h-189zM516 1323h-469v170h1139v-170h-467v-1323h-203v1323z" />
    <glyph glyph-name="uni021A" unicode="&#x21a;" 
d="M719 0h-19q57 -63 83 -114t26 -106q0 -175 -240 -175q-85 0 -174 24v131q31 -17 70.5 -24.5t76.5 -7.5q128 0 128 90q0 31 -19.5 72.5t-68.5 109.5h-66v1323h-469v170h1139v-170h-467v-1323z" />
    <glyph glyph-name="uni0055" unicode="U" 
d="M616 -29q-104 0 -189 29q-39 14 -80.5 36.5t-73.5 51.5q-31 28 -55 66t-41 95q-16 50 -23 125.5t-7 198.5v920h203v-1012q0 -109 6 -155t21 -72q32 -59 93 -89q60 -30 146 -30q87 0 147 30q62 32 93 89q16 29 21 71q6 47 6 154v1014h202v-920q0 -132 -8 -205.5
t-20 -118.5q-27 -97 -98 -161q-33 -30 -73.5 -52t-79.5 -36q-37 -13 -84 -21t-106 -8z" />
    <glyph glyph-name="uni00DA" unicode="&#xda;" 
d="M672 1856h186l-229 -264h-154zM616 -29q-104 0 -189 29q-39 14 -80.5 36.5t-73.5 51.5q-31 28 -55 66t-41 95q-16 50 -23 125.5t-7 198.5v920h203v-1012q0 -109 6 -155t21 -72q32 -59 93 -89q60 -30 146 -30q87 0 147 30q62 32 93 89q16 29 21 71q6 47 6 154v1014h202
v-920q0 -132 -8 -205.5t-20 -118.5q-27 -97 -98 -161q-33 -30 -73.5 -52t-79.5 -36q-37 -13 -84 -21t-106 -8z" />
    <glyph glyph-name="uni00DB" unicode="&#xdb;" 
d="M522 1852h189l211 -266h-140l-166 178l-165 -178h-140zM616 -29q-104 0 -189 29q-39 14 -80.5 36.5t-73.5 51.5q-31 28 -55 66t-41 95q-16 50 -23 125.5t-7 198.5v920h203v-1012q0 -109 6 -155t21 -72q32 -59 93 -89q60 -30 146 -30q87 0 147 30q62 32 93 89q16 29 21 71
q6 47 6 154v1014h202v-920q0 -132 -8 -205.5t-20 -118.5q-27 -97 -98 -161q-33 -30 -73.5 -52t-79.5 -36q-37 -13 -84 -21t-106 -8z" />
    <glyph glyph-name="uni00DC" unicode="&#xdc;" 
d="M349 1647q-30 0 -30 30v143q0 30 30 30h143q30 0 30 -30v-143q0 -30 -30 -30h-143zM741 1647q-30 0 -30 30v143q0 30 30 30h142q30 0 30 -30v-143q0 -30 -30 -30h-142zM616 -29q-104 0 -189 29q-39 14 -80.5 36.5t-73.5 51.5q-31 28 -55 66t-41 95q-16 50 -23 125.5
t-7 198.5v920h203v-1012q0 -109 6 -155t21 -72q32 -59 93 -89q60 -30 146 -30q87 0 147 30q62 32 93 89q16 29 21 71q6 47 6 154v1014h202v-920q0 -132 -8 -205.5t-20 -118.5q-27 -97 -98 -161q-33 -30 -73.5 -52t-79.5 -36q-37 -13 -84 -21t-106 -8z" />
    <glyph glyph-name="uni00D9" unicode="&#xd9;" 
d="M377 1852h184l197 -264h-154zM616 -29q-104 0 -189 29q-39 14 -80.5 36.5t-73.5 51.5q-31 28 -55 66t-41 95q-16 50 -23 125.5t-7 198.5v920h203v-1012q0 -109 6 -155t21 -72q32 -59 93 -89q60 -30 146 -30q87 0 147 30q62 32 93 89q16 29 21 71q6 47 6 154v1014h202
v-920q0 -132 -8 -205.5t-20 -118.5q-27 -97 -98 -161q-33 -30 -73.5 -52t-79.5 -36q-37 -13 -84 -21t-106 -8z" />
    <glyph glyph-name="uni01AF" unicode="&#x1af;" 
d="M1204 1561q11 -42 15.5 -74t4.5 -69q0 -112 -42.5 -171t-131.5 -59q-26 0 -51 5.5t-52 19.5v-640q0 -126 -7.5 -200t-21.5 -125q-32 -105 -101 -163.5t-148 -84.5q-89 -29 -189 -29q-109 0 -196.5 31t-147.5 85q-36 33 -60 74t-38 89q-14 47 -21.5 123.5t-7.5 199.5v920
h203v-1012q0 -109 6 -155q6 -43 30.5 -88.5t83.5 -73.5q60 -29 146 -29q85 0 149 31t92 88q6 12 11.5 30t8.5 41q6 47 6 154v1014h202v-151q37 -15 66 -15q88 0 88 110q0 63 -30 124h133z" />
    <glyph glyph-name="uni0170" unicode="&#x170;" 
d="M541 1852h186l-229 -264h-154zM860 1852h186l-229 -264h-154zM618 -29q-109 0 -196.5 31t-147.5 85q-36 33 -60 74t-38 89q-14 47 -21.5 123.5t-7.5 199.5v920h203v-1012q0 -109 6 -155q6 -43 30.5 -88.5t83.5 -73.5q60 -29 146 -29q85 0 149 31t92 88q6 12 11.5 30
t8.5 41q6 47 6 154v1014h202v-920q0 -126 -7.5 -200t-21.5 -125q-32 -105 -101 -163.5t-148 -84.5q-89 -29 -189 -29z" />
    <glyph glyph-name="uni016A" unicode="&#x16a;" 
d="M317 1800h598v-148h-598v148zM618 -29q-109 0 -196.5 31t-147.5 85q-36 33 -60 74t-38 89q-14 47 -21.5 123.5t-7.5 199.5v920h203v-1012q0 -109 6 -155q6 -43 30.5 -88.5t83.5 -73.5q60 -29 146 -29q85 0 149 31t92 88q6 12 11.5 30t8.5 41q6 47 6 154v1014h202v-920
q0 -126 -7.5 -200t-21.5 -125q-32 -105 -101 -163.5t-148 -84.5q-89 -29 -189 -29z" />
    <glyph glyph-name="uni0172" unicode="&#x172;" 
d="M1085 1493v-920q0 -126 -7.5 -200t-21.5 -125q-32 -105 -101 -163.5t-148 -84.5q-65 -23 -140 -27q-44 -61 -62 -101t-18 -72q0 -88 110 -88q63 0 124 30v-133q-42 -11 -74 -15.5t-69 -4.5q-112 0 -171 42.5t-59 131.5q0 47 21 97t79 115q-86 8 -155 37.5t-119 74.5
q-36 33 -60 74t-38 89q-14 47 -21.5 123.5t-7.5 199.5v920h203v-1012q0 -109 6 -155q6 -43 30.5 -88.5t83.5 -73.5q60 -29 146 -29q85 0 149 31t92 88q6 12 11.5 30t8.5 41q6 47 6 154v1014h202z" />
    <glyph glyph-name="uni016E" unicode="&#x16e;" 
d="M627 1352q-77 0 -139.5 37t-99 99t-36.5 139q0 76 36.5 138t99 99t139.5 37t139.5 -37t98.5 -99t36 -138q0 -77 -36 -139t-98.5 -99t-139.5 -37zM626 1475q63 0 107.5 44.5t44.5 107.5t-44.5 107t-107.5 44q-64 0 -107.5 -43.5t-43.5 -107.5q0 -65 43.5 -108.5
t107.5 -43.5zM618 -29q-109 0 -196.5 31t-147.5 85q-36 33 -60 74t-38 89q-14 47 -21.5 123.5t-7.5 199.5v920h203v-1012q0 -109 6 -155q6 -43 30.5 -88.5t83.5 -73.5q60 -29 146 -29q85 0 149 31t92 88q6 12 11.5 30t8.5 41q6 47 6 154v1014h202v-920q0 -126 -7.5 -200
t-21.5 -125q-32 -105 -101 -163.5t-148 -84.5q-89 -29 -189 -29z" />
    <glyph glyph-name="uni0168" unicode="&#x168;" 
d="M287 1633q0 102 50.5 160.5t144.5 58.5q40 0 70.5 -11.5t68.5 -31.5l57 -30q43 -25 72 -25q31 0 51 25t20 67v6h125q-4 -98 -52 -158.5t-141 -60.5q-32 0 -63.5 9.5t-77.5 33.5l-57 33q-43 25 -69 25q-34 0 -54 -25t-20 -70v-6h-125zM618 -29q-109 0 -196.5 31t-147.5 85
q-36 33 -60 74t-38 89q-14 47 -21.5 123.5t-7.5 199.5v920h203v-1012q0 -109 6 -155q6 -43 30.5 -88.5t83.5 -73.5q60 -29 146 -29q85 0 149 31t92 88q6 12 11.5 30t8.5 41q6 47 6 154v1014h202v-920q0 -126 -7.5 -200t-21.5 -125q-32 -105 -101 -163.5t-148 -84.5
q-89 -29 -189 -29z" />
    <glyph glyph-name="uni0056" unicode="V" 
d="M57 1493h209l350 -1323l351 1323h209l-437 -1493h-245z" />
    <glyph glyph-name="uni0057" unicode="W" 
d="M0 1493h197l143 -1212l170 802h211l172 -804l143 1214h197l-223 -1493h-191l-203 887l-202 -887h-191z" />
    <glyph glyph-name="uni1E82" unicode="&#x1e82;" 
d="M672 1856h186l-229 -264h-154zM0 1493h197l143 -1212l170 802h211l172 -804l143 1214h197l-223 -1493h-191l-203 887l-202 -887h-191z" />
    <glyph glyph-name="uni0174" unicode="&#x174;" 
d="M522 1852h189l211 -266h-140l-166 178l-165 -178h-140zM0 1493h197l143 -1212l170 802h211l172 -804l143 1214h197l-223 -1493h-191l-203 887l-202 -887h-191z" />
    <glyph glyph-name="uni1E84" unicode="&#x1e84;" 
d="M350 1650q-31 0 -31 31v140q0 31 31 31h141q31 0 31 -31v-140q0 -31 -31 -31h-141zM742 1650q-31 0 -31 31v140q0 31 31 31h140q31 0 31 -31v-140q0 -31 -31 -31h-140zM0 1493h197l143 -1212l170 802h211l172 -804l143 1214h197l-223 -1493h-191l-203 887l-202 -887h-191
z" />
    <glyph glyph-name="uni1E80" unicode="&#x1e80;" 
d="M377 1852h184l197 -264h-154zM0 1493h197l143 -1212l170 802h211l172 -804l143 1214h197l-223 -1493h-191l-203 887l-202 -887h-191z" />
    <glyph glyph-name="uni0058" unicode="X" 
d="M518 791l-432 702h217l328 -563l334 563h217l-447 -702l479 -791h-217l-366 643l-395 -643h-218z" />
    <glyph glyph-name="uni0059" unicode="Y" 
d="M514 670l-477 823h215l364 -659l363 659h217l-479 -823v-670h-203v670z" />
    <glyph glyph-name="uni00DD" unicode="&#xdd;" 
d="M672 1852h186l-229 -264h-154zM514 670l-477 823h215l364 -659l363 659h217l-479 -823v-670h-203v670z" />
    <glyph glyph-name="uni0176" unicode="&#x176;" 
d="M522 1852h189l211 -266h-140l-166 178l-165 -178h-140zM514 670l-477 823h215l364 -659l363 659h217l-479 -823v-670h-203v670z" />
    <glyph glyph-name="uni0178" unicode="&#x178;" 
d="M349 1649q-30 0 -30 30v143q0 30 30 30h143q30 0 30 -30v-143q0 -30 -30 -30h-143zM741 1649q-30 0 -30 30v143q0 30 30 30h142q30 0 30 -30v-143q0 -30 -30 -30h-142zM514 670l-477 823h215l364 -659l363 659h217l-479 -823v-670h-203v670z" />
    <glyph glyph-name="uni1EF2" unicode="&#x1ef2;" 
d="M377 1852h184l197 -264h-154zM514 670l-477 823h215l364 -659l363 659h217l-479 -823v-670h-203v670z" />
    <glyph glyph-name="uni005A" unicode="Z" 
d="M110 154l759 1169h-737v170h969v-154l-780 -1169h802v-170h-1013v154z" />
    <glyph glyph-name="uni0179" unicode="&#x179;" 
d="M653 1852h186l-229 -264h-154zM110 154l759 1169h-737v170h969v-154l-780 -1169h802v-170h-1013v154z" />
    <glyph glyph-name="uni017D" unicode="&#x17d;" 
d="M265 1852h140l165 -178l166 178h140l-211 -266h-189zM110 154l759 1169h-737v170h969v-154l-780 -1169h802v-170h-1013v154z" />
    <glyph glyph-name="uni017B" unicode="&#x17b;" 
d="M547 1647q-30 0 -30 30v145q0 30 30 30h145q30 0 30 -30v-145q0 -30 -30 -30h-145zM110 154l759 1169h-737v170h969v-154l-780 -1169h802v-170h-1013v154z" />
    <glyph glyph-name="uni0061" unicode="a" 
d="M509 -29q-162 0 -267.5 93.5t-105.5 268.5q0 145 70 226.5t183 114.5t241 33h247v29q0 143 -72.5 199t-203.5 56q-102 0 -200 -28t-183 -78v184q92 34 186 56t192 22q100 0 194.5 -27.5t163.5 -90t92 -167.5q16 -74 16 -223v-229q0 -94 10.5 -208t48.5 -202h-185
q-17 39 -27 83.5t-16 86.5q-59 -101 -163.5 -150t-220.5 -49zM554 125q114 0 185.5 56t104.5 146.5t33 194.5v41h-233q-78 0 -152.5 -17.5t-123 -66.5t-48.5 -143q0 -106 65 -158.5t169 -52.5z" />
    <glyph glyph-name="uni00E1" unicode="&#xe1;" 
d="M759 1673h198l-325 -376h-154zM513 -29q-175 0 -275 97q-48 46 -75 108.5t-27 150.5q0 185 126 283q124 97 368 97h247v29q0 133 -68 195q-66 60 -213 60q-95 0 -191 -27q-98 -27 -187 -79v184q42 16 93 32t103 27q89 19 183 19q137 0 237 -42q46 -20 87.5 -50.5
t70.5 -70.5q21 -29 34 -61t20 -63q16 -71 16 -221v-229q2 -58 3 -102t6 -82q5 -42 11.5 -79t11.5 -56q7 -31 16 -58.5t11 -32.5h-185q-13 30 -27 87q-5 22 -9.5 44.5t-6.5 38.5q-29 -50 -74.5 -89t-89.5 -62q-93 -48 -216 -48zM551 125q151 0 238 106q88 107 88 291v41h-233
q-159 0 -242 -56q-82 -56 -82 -170q0 -100 61 -156q29 -26 70.5 -41t99.5 -15z" />
    <glyph glyph-name="uni0103" unicode="&#x103;" 
d="M619 1296q-290 0 -313 287h119q11 -72 56.5 -111t136.5 -39q168 0 196 150h119q-23 -287 -314 -287zM513 -29q-175 0 -275 97q-48 46 -75 108.5t-27 150.5q0 185 126 283q124 97 368 97h247v29q0 133 -68 195q-66 60 -213 60q-95 0 -191 -27q-98 -27 -187 -79v184
q42 16 93 32t103 27q89 19 183 19q137 0 237 -42q46 -20 87.5 -50.5t70.5 -70.5q21 -29 34 -61t20 -63q16 -71 16 -221v-229q2 -58 3 -102t6 -82q5 -42 11.5 -79t11.5 -56q7 -31 16 -58.5t11 -32.5h-185q-13 30 -27 87q-5 22 -9.5 44.5t-6.5 38.5q-29 -50 -74.5 -89
t-89.5 -62q-93 -48 -216 -48zM551 125q151 0 238 106q88 107 88 291v41h-233q-159 0 -242 -56q-82 -56 -82 -170q0 -100 61 -156q29 -26 70.5 -41t99.5 -15z" />
    <glyph glyph-name="uni00E2" unicode="&#xe2;" 
d="M546 1673h147l246 -376h-139l-181 245l-180 -245h-139zM513 -29q-175 0 -275 97q-48 46 -75 108.5t-27 150.5q0 185 126 283q124 97 368 97h247v29q0 133 -68 195q-66 60 -213 60q-95 0 -191 -27q-98 -27 -187 -79v184q42 16 93 32t103 27q89 19 183 19q137 0 237 -42
q46 -20 87.5 -50.5t70.5 -70.5q21 -29 34 -61t20 -63q16 -71 16 -221v-229q2 -58 3 -102t6 -82q5 -42 11.5 -79t11.5 -56q7 -31 16 -58.5t11 -32.5h-185q-13 30 -27 87q-5 22 -9.5 44.5t-6.5 38.5q-29 -50 -74.5 -89t-89.5 -62q-93 -48 -216 -48zM551 125q151 0 238 106
q88 107 88 291v41h-233q-159 0 -242 -56q-82 -56 -82 -170q0 -100 61 -156q29 -26 70.5 -41t99.5 -15z" />
    <glyph glyph-name="uni00E4" unicode="&#xe4;" 
d="M352 1350q-30 0 -30 30v142q0 30 30 30h143q30 0 30 -30v-142q0 -30 -30 -30h-143zM744 1350q-30 0 -30 30v142q0 30 30 30h142q30 0 30 -30v-142q0 -30 -30 -30h-142zM513 -29q-175 0 -275 97q-48 46 -75 108.5t-27 150.5q0 185 126 283q124 97 368 97h247v29
q0 133 -68 195q-66 60 -213 60q-95 0 -191 -27q-98 -27 -187 -79v184q42 16 93 32t103 27q89 19 183 19q137 0 237 -42q46 -20 87.5 -50.5t70.5 -70.5q21 -29 34 -61t20 -63q16 -71 16 -221v-229q2 -58 3 -102t6 -82q5 -42 11.5 -79t11.5 -56q7 -31 16 -58.5t11 -32.5h-185
q-13 30 -27 87q-5 22 -9.5 44.5t-6.5 38.5q-29 -50 -74.5 -89t-89.5 -62q-93 -48 -216 -48zM551 125q151 0 238 106q88 107 88 291v41h-233q-159 0 -242 -56q-82 -56 -82 -170q0 -100 61 -156q29 -26 70.5 -41t99.5 -15z" />
    <glyph glyph-name="uni00E0" unicode="&#xe0;" 
d="M282 1673h198l281 -376h-154zM513 -29q-175 0 -275 97q-48 46 -75 108.5t-27 150.5q0 185 126 283q124 97 368 97h247v29q0 133 -68 195q-66 60 -213 60q-95 0 -191 -27q-98 -27 -187 -79v184q42 16 93 32t103 27q89 19 183 19q137 0 237 -42q46 -20 87.5 -50.5
t70.5 -70.5q21 -29 34 -61t20 -63q16 -71 16 -221v-229q2 -58 3 -102t6 -82q5 -42 11.5 -79t11.5 -56q7 -31 16 -58.5t11 -32.5h-185q-13 30 -27 87q-5 22 -9.5 44.5t-6.5 38.5q-29 -50 -74.5 -89t-89.5 -62q-93 -48 -216 -48zM551 125q151 0 238 106q88 107 88 291v41h-233
q-159 0 -242 -56q-82 -56 -82 -170q0 -100 61 -156q29 -26 70.5 -41t99.5 -15z" />
    <glyph glyph-name="uni0101" unicode="&#x101;" 
d="M320 1496h598v-148h-598v148zM513 -29q-175 0 -275 97q-48 46 -75 108.5t-27 150.5q0 185 126 283q124 97 368 97h247v29q0 133 -68 195q-66 60 -213 60q-95 0 -191 -27q-98 -27 -187 -79v184q42 16 93 32t103 27q89 19 183 19q137 0 237 -42q46 -20 87.5 -50.5
t70.5 -70.5q21 -29 34 -61t20 -63q16 -71 16 -221v-229q2 -58 3 -102t6 -82q5 -42 11.5 -79t11.5 -56q7 -31 16 -58.5t11 -32.5h-185q-13 30 -27 87q-5 22 -9.5 44.5t-6.5 38.5q-29 -50 -74.5 -89t-89.5 -62q-93 -48 -216 -48zM551 125q151 0 238 106q88 107 88 291v41h-233
q-159 0 -242 -56q-82 -56 -82 -170q0 -100 61 -156q29 -26 70.5 -41t99.5 -15z" />
    <glyph glyph-name="uni0105" unicode="&#x105;" 
d="M1078 -269q62 0 124 30v-133q-42 -11 -74 -15.5t-69 -4.5q-112 0 -171 42.5t-59 131.5q0 50 23 99.5t83 119.5q-11 28 -26 86q-5 22 -9.5 44.5t-6.5 38.5q-29 -50 -74.5 -89t-89.5 -62q-93 -48 -216 -48q-175 0 -275 97q-48 46 -75 108.5t-27 150.5q0 185 126 283
q124 97 368 97h247v29q0 133 -68 195q-66 60 -213 60q-95 0 -191 -27q-98 -27 -187 -79v184q42 16 93 32t103 27q89 19 183 19q137 0 237 -42q46 -20 87.5 -50.5t70.5 -70.5q21 -29 34 -61t20 -63q16 -71 16 -221v-229q2 -58 3 -102t6 -82q5 -42 11.5 -79t11.5 -56
q7 -31 16 -58.5t11 -32.5h-67q-47 -64 -66.5 -106t-19.5 -75q0 -88 110 -88zM877 563h-233q-159 0 -242 -56q-82 -56 -82 -170q0 -100 61 -156q29 -26 70.5 -41t99.5 -15q151 0 238 106q88 107 88 291v41z" />
    <glyph glyph-name="uni00E5" unicode="&#xe5;" 
d="M619 1249q-114 0 -194 80t-80 195t80 195q79 79 194 79q117 0 196 -79t79 -195t-79 -195q-80 -80 -196 -80zM619 1372q64 0 108 44t44 108q0 63 -44 107t-109 44q-63 0 -106 -43q-44 -44 -44 -108t44 -108t107 -44zM513 -29q-175 0 -275 97q-48 46 -75 108.5t-27 150.5
q0 185 126 283q124 97 368 97h247v29q0 133 -68 195q-66 60 -213 60q-95 0 -191 -27q-98 -27 -187 -79v184q42 16 93 32t103 27q89 19 183 19q137 0 237 -42q46 -20 87.5 -50.5t70.5 -70.5q21 -29 34 -61t20 -63q16 -71 16 -221v-229q2 -58 3 -102t6 -82q5 -42 11.5 -79
t11.5 -56q7 -31 16 -58.5t11 -32.5h-185q-13 30 -27 87q-5 22 -9.5 44.5t-6.5 38.5q-29 -50 -74.5 -89t-89.5 -62q-93 -48 -216 -48zM551 125q151 0 238 106q88 107 88 291v41h-233q-159 0 -242 -56q-82 -56 -82 -170q0 -100 61 -156q29 -26 70.5 -41t99.5 -15z" />
    <glyph glyph-name="uni00E3" unicode="&#xe3;" 
d="M290 1339q1 133 52 208q51 74 141 74q38 0 72 -14q32 -15 69 -47l57 -55q22 -19 38 -29t30 -10q38 0 56 37q18 38 19 118h125q-1 -133 -52 -208q-51 -74 -141 -74q-38 0 -72 14q-32 15 -69 47l-57 55q-13 12 -22.5 19t-15.5 11q-15 9 -30 9q-38 0 -56 -37t-20 -118h-124z
M513 -29q-175 0 -275 97q-48 46 -75 108.5t-27 150.5q0 185 126 283q124 97 368 97h247v29q0 133 -68 195q-66 60 -213 60q-95 0 -191 -27q-98 -27 -187 -79v184q42 16 93 32t103 27q89 19 183 19q137 0 237 -42q46 -20 87.5 -50.5t70.5 -70.5q21 -29 34 -61t20 -63
q16 -71 16 -221v-229q2 -58 3 -102t6 -82q5 -42 11.5 -79t11.5 -56q7 -31 16 -58.5t11 -32.5h-185q-13 30 -27 87q-5 22 -9.5 44.5t-6.5 38.5q-29 -50 -74.5 -89t-89.5 -62q-93 -48 -216 -48zM551 125q151 0 238 106q88 107 88 291v41h-233q-159 0 -242 -56
q-82 -56 -82 -170q0 -100 61 -156q29 -26 70.5 -41t99.5 -15z" />
    <glyph glyph-name="uni00E6" unicode="&#xe6;" 
d="M358 -29q-154 0 -235 86q-43 45 -62.5 107.5t-19.5 139.5q0 85 23.5 151t76.5 113q101 89 291 89h117v88q0 120 -49 184t-143 64q-60 0 -123 -21q-30 -10 -63.5 -25.5t-64.5 -35.5v168q38 17 74 30.5t69 21.5q63 16 127 16q91 0 152 -31q62 -32 99 -96q69 127 255 127
q175 0 246 -118q72 -119 72 -425v-90h-491q-1 -8 -1 -16v-16q0 -3 -0.5 -9.5t-0.5 -29.5q0 -98 13.5 -155.5t37.5 -91.5q27 -38 68 -54.5t97 -16.5q74 0 141 26q63 25 114 76v-172q-60 -43 -121 -63.5t-140 -20.5q-107 0 -181 41q-75 41 -107 119q-39 -79 -105 -120
q-67 -40 -166 -40zM1036 657v52q0 78 -10 132t-28 86q-17 30 -48 48t-78 18q-87 0 -125 -68t-38 -225v-43h327zM375 125q94 0 131 67q17 32 27 90t10 160v72h-49q-169 0 -229 -45q-60 -47 -60 -156q0 -91 45 -139q45 -49 125 -49z" />
    <glyph glyph-name="uni0062" unicode="b" 
d="M685 -29q-212 0 -308 170l-18 -141h-166v1556h184v-579q46 87 127 128.5t182 41.5q120 0 202 -51.5t131.5 -137t71 -189.5t21.5 -208q0 -105 -22 -209.5t-71.5 -190.5t-131.5 -138t-202 -52zM648 127q88 0 141.5 41t81 107t37.5 141t10 143t-10 143.5t-37.5 141
t-81 106.5t-141.5 41q-87 0 -140.5 -41t-82 -106t-38.5 -140.5t-10 -143.5q0 -69 10 -144.5t38.5 -141t82 -106.5t140.5 -41z" />
    <glyph glyph-name="uni0063" unicode="c" 
d="M705 -29q-177 0 -297.5 74.5t-182 207.5t-61.5 306q0 174 62 306.5t183 207t300 74.5q93 0 168 -21.5t153 -64.5v-193q-71 63 -142.5 93t-162.5 30q-135 0 -215.5 -58t-116 -156t-35.5 -218q0 -119 36 -217.5t116 -156.5t214 -58q88 0 164 29t142 92v-191
q-143 -86 -325 -86z" />
    <glyph glyph-name="uni0107" unicode="&#x107;" 
d="M815 1673h198l-325 -376h-154zM712 -29q-254 0 -401 156.5t-147 431.5q0 143 38.5 251t108.5 182q148 155 402 155q91 0 162 -21q73 -20 155 -65v-193q-76 67 -146 94q-76 29 -166 29q-174 0 -267 -112q-93 -113 -93 -319q0 -96 21.5 -178t71.5 -142q95 -113 270 -113
q50 0 91.5 8t76.5 22q45 17 77.5 39.5t63.5 51.5v-191q-34 -20 -74 -37t-78 -28q-35 -10 -76.5 -15.5t-89.5 -5.5z" />
    <glyph glyph-name="uni010D" unicode="&#x10d;" 
d="M356 1673h139l180 -245l181 245h139l-246 -376h-147zM712 -29q-254 0 -401 156.5t-147 431.5q0 143 38.5 251t108.5 182q148 155 402 155q91 0 162 -21q73 -20 155 -65v-193q-76 67 -146 94q-76 29 -166 29q-174 0 -267 -112q-93 -113 -93 -319q0 -96 21.5 -178
t71.5 -142q95 -113 270 -113q50 0 91.5 8t76.5 22q45 17 77.5 39.5t63.5 51.5v-191q-34 -20 -74 -37t-78 -28q-35 -10 -76.5 -15.5t-89.5 -5.5z" />
    <glyph glyph-name="uni00E7" unicode="&#xe7;" 
d="M718 991q-174 0 -267 -112q-93 -113 -93 -319q0 -96 21.5 -178t71.5 -142q95 -113 270 -113q50 0 91.5 8t76.5 22q45 17 77.5 39.5t63.5 51.5v-191q-34 -20 -74 -37t-78 -28q-20 -5 -40.5 -9.5t-43.5 -6.5q39 -46 62 -91q11 -23 18.5 -48.5t7.5 -55.5q0 -85 -60 -131
q-29 -22 -73 -33.5t-106 -11.5q-43 0 -87 6q-46 6 -88 18v131q69 -32 151 -32q124 0 124 92q0 32 -22 75q-8 16 -19.5 35.5t-27.5 41.5q-230 12 -364 155q-146 157 -146 432q0 143 38.5 251t108.5 182q148 155 402 155q91 0 162 -21q73 -20 155 -65v-193q-76 67 -146 94
q-76 29 -166 29z" />
    <glyph glyph-name="uni010B" unicode="&#x10b;" 
d="M587 1348q-30 0 -30 30v144q0 30 30 30h145q30 0 30 -30v-144q0 -30 -30 -30h-145zM717 -29q-260 0 -406.5 156t-146.5 432t146.5 432t406.5 156q81 0 158 -20.5t155 -65.5v-193q-73 65 -146.5 94t-166.5 29q-174 0 -266.5 -111.5t-92.5 -320.5q0 -208 93 -320t266 -112
q186 0 313 121v-191q-149 -86 -313 -86z" />
    <glyph glyph-name="uni0064" unicode="d" 
d="M554 -29q-122 0 -205 52t-132.5 139t-71.5 192.5t-22 212.5q0 268 117.5 424t317.5 156q98 0 176 -41.5t124 -128.5v579h184v-1556h-166l-18 141q-99 -170 -304 -170zM587 127q87 0 140.5 41t82 106.5t38.5 141t10 144.5q0 68 -10 143t-38.5 140.5t-82 106.5t-140.5 41
q-88 0 -141.5 -41t-81 -106.5t-37.5 -140.5t-10 -143t10 -143.5t37.5 -141t81 -107t141.5 -41.5z" />
    <glyph glyph-name="uni00F0" unicode="&#xf0;" 
d="M617 -29q-228 0 -355 148q-125 149 -125 414q0 267 124 415t370 148q18 0 23.5 -0.5t8.5 -0.5q22 -2 19.5 -1.5t13.5 -1.5q-6 8 -28 37.5t-41 52.5q-18 23 -36.5 44.5t-37.5 43.5l-279 -92l-30 98l237 80l-182 200h219l127 -145l289 94l33 -98l-250 -80
q197 -211 288 -402q46 -96 68.5 -192.5t22.5 -204.5q0 -260 -125 -409q-64 -76 -153 -112t-201 -36zM616 127q138 0 211 106q74 109 74 298q0 115 -29.5 216t-78.5 171q-17 7 -39.5 12.5t-36.5 7.5q-41 6 -79 6q-151 0 -228.5 -105t-77.5 -305q0 -194 74 -301
q73 -106 210 -106z" />
    <glyph glyph-name="uni010F" unicode="&#x10f;" 
d="M1114 1557h198l-113 -376h-154zM526 -29q-200 0 -316.5 157.5t-116.5 432.5t117 430.5t317 155.5q210 0 301 -170v579h184v-1556h-166l-18 141q-93 -170 -302 -170zM556 127q272 0 272 432t-272 432q-269 0 -269 -432t269 -432z" />
    <glyph glyph-name="uni0111" unicode="&#x111;" 
d="M559 -29q-106 0 -186 42t-134 116q-116 158 -116 433q0 272 117.5 428.5t318.5 156.5q102 0 178 -43q77 -44 121 -127v309h-305v121h305v149h184v-149h191v-121h-191v-1286h-166l-18 141q-23 -40 -52 -71.5t-70 -54.5q-77 -44 -177 -44zM585 127q135 0 204 110
q69 109 69 322t-69 323q-32 51 -82 80t-121 29q-134 0 -201 -109q-68 -110 -68 -323t68 -323q35 -57 86 -83t114 -26z" />
    <glyph glyph-name="uni0065" unicode="e" 
d="M678 -29q-259 0 -406.5 155.5t-147.5 424.5q0 167 58.5 302t174 214.5t285.5 79.5q224 0 347.5 -143.5t123.5 -397.5v-90h-797v-6q0 -175 92 -279t272 -104q104 0 201.5 33t188.5 80v-183q-95 -39 -192.5 -62.5t-199.5 -23.5zM929 660q0 93 -28 168t-89.5 119t-162.5 44
q-102 0 -170.5 -44.5t-107 -119.5t-48.5 -167h606z" />
    <glyph glyph-name="uni00E9" unicode="&#xe9;" 
d="M771 1673h198l-325 -376h-154zM677 -29q-259 0 -406 156.5t-147 430.5q0 141 38 247.5t105 181.5q73 81 171 120.5t211 39.5q219 0 341.5 -143.5t122.5 -397.5v-90h-797v-6q0 -182 96 -283q46 -48 111.5 -74t156.5 -26q92 0 185 28q49 14 100 35.5t105 49.5v-183
q-53 -22 -107 -39t-95 -26q-48 -11 -96 -16t-95 -5zM929 660q-2 86 -22.5 147.5t-53.5 99.5q-72 84 -208 84q-135 0 -220 -88t-102 -244z" />
    <glyph glyph-name="uni011B" unicode="&#x11b;" 
d="M333 1673h139l180 -245l181 245h139l-246 -376h-147zM677 -29q-260 0 -406.5 157t-146.5 427q0 181 65 313.5t182.5 205.5t273.5 73q222 0 345 -145t123 -396v-90h-797v-6q0 -183 96 -283t268 -100q174 0 390 113v-183q-106 -43 -202.5 -64.5t-190.5 -21.5zM929 660
q-3 157 -74.5 244t-207.5 87t-221.5 -86.5t-102.5 -245.5z" />
    <glyph glyph-name="uni00EA" unicode="&#xea;" 
d="M558 1673h147l246 -376h-139l-181 245l-180 -245h-139zM677 -29q-259 0 -406 156.5t-147 430.5q0 141 38 247.5t105 181.5q73 81 171 120.5t211 39.5q219 0 341.5 -143.5t122.5 -397.5v-90h-797v-6q0 -182 96 -283q46 -48 111.5 -74t156.5 -26q92 0 185 28
q49 14 100 35.5t105 49.5v-183q-53 -22 -107 -39t-95 -26q-48 -11 -96 -16t-95 -5zM929 660q-2 86 -22.5 147.5t-53.5 99.5q-72 84 -208 84q-135 0 -220 -88t-102 -244z" />
    <glyph glyph-name="uni00EB" unicode="&#xeb;" 
d="M364 1350q-30 0 -30 30v142q0 30 30 30h143q30 0 30 -30v-142q0 -30 -30 -30h-143zM756 1350q-30 0 -30 30v142q0 30 30 30h142q30 0 30 -30v-142q0 -30 -30 -30h-142zM677 -29q-259 0 -406 156.5t-147 430.5q0 141 38 247.5t105 181.5q73 81 171 120.5t211 39.5
q219 0 341.5 -143.5t122.5 -397.5v-90h-797v-6q0 -182 96 -283q46 -48 111.5 -74t156.5 -26q92 0 185 28q49 14 100 35.5t105 49.5v-183q-53 -22 -107 -39t-95 -26q-48 -11 -96 -16t-95 -5zM929 660q-2 86 -22.5 147.5t-53.5 99.5q-72 84 -208 84q-135 0 -220 -88t-102 -244
z" />
    <glyph glyph-name="uni0117" unicode="&#x117;" 
d="M558 1348q-30 0 -30 30v144q0 30 30 30h145q30 0 30 -30v-144q0 -30 -30 -30h-145zM677 -29q-260 0 -406.5 157t-146.5 427q0 181 65 313.5t182.5 205.5t273.5 73q222 0 345 -145t123 -396v-90h-797v-6q0 -183 96 -283t268 -100q174 0 390 113v-183
q-106 -43 -202.5 -64.5t-190.5 -21.5zM929 660q-3 157 -74.5 244t-207.5 87t-221.5 -86.5t-102.5 -245.5z" />
    <glyph glyph-name="uni00E8" unicode="&#xe8;" 
d="M294 1673h198l281 -376h-154zM677 -29q-259 0 -406 156.5t-147 430.5q0 141 38 247.5t105 181.5q73 81 171 120.5t211 39.5q219 0 341.5 -143.5t122.5 -397.5v-90h-797v-6q0 -182 96 -283q46 -48 111.5 -74t156.5 -26q92 0 185 28q49 14 100 35.5t105 49.5v-183
q-53 -22 -107 -39t-95 -26q-48 -11 -96 -16t-95 -5zM929 660q-2 86 -22.5 147.5t-53.5 99.5q-72 84 -208 84q-135 0 -220 -88t-102 -244z" />
    <glyph glyph-name="uni0113" unicode="&#x113;" 
d="M353 1496h598v-148h-598v148zM677 -29q-260 0 -406.5 157t-146.5 427q0 181 65 313.5t182.5 205.5t273.5 73q222 0 345 -145t123 -396v-90h-797v-6q0 -183 96 -283t268 -100q174 0 390 113v-183q-106 -43 -202.5 -64.5t-190.5 -21.5zM929 660q-3 157 -74.5 244t-207.5 87
t-221.5 -86.5t-102.5 -245.5z" />
    <glyph glyph-name="uni0114" unicode="&#x114;" 
d="M656 1619q-290 0 -313 242h119q25 -111 196 -111q163 0 193 111h119q-23 -242 -314 -242zM197 1493h886v-170h-684v-442h654v-170h-654v-541h703v-170h-905v1493z" />
    <glyph glyph-name="uni0115" unicode="&#x115;" 
d="M644 1298q-290 0 -313 287h119q11 -76 59 -113q46 -37 135 -37q87 0 133 37q48 37 62 113h119q-11 -143 -90 -215q-80 -72 -224 -72zM677 -29q-259 0 -406 156.5t-147 430.5q0 141 38 247.5t105 181.5q73 81 171 120.5t211 39.5q219 0 341.5 -143.5t122.5 -397.5v-90
h-797v-6q0 -182 96 -283q46 -48 111.5 -74t156.5 -26q92 0 185 28q49 14 100 35.5t105 49.5v-183q-103 -42 -202 -65q-48 -11 -96 -16t-95 -5zM929 660q-2 86 -22.5 147.5t-53.5 99.5q-72 84 -208 84q-135 0 -220 -88t-102 -244z" />
    <glyph glyph-name="uni0119" unicode="&#x119;" 
d="M316 516v-6q0 -183 96 -283t268 -100q174 0 390 113v-183q-46 -19 -90 -33t-87 -25q-47 -65 -67 -107t-20 -76q0 -88 110 -88q62 0 124 30v-133q-42 -11 -74 -15.5t-69 -4.5q-112 0 -171 42.5t-59 131.5q0 44 18.5 90.5t68.5 105.5q-36 -4 -77 -4q-260 0 -406.5 157
t-146.5 427q0 181 65 313.5t182.5 205.5t273.5 73q222 0 345 -145t123 -396v-90h-797zM647 991q-136 0 -221.5 -86.5t-102.5 -245.5l606 1q-3 157 -74.5 244t-207.5 87z" />
    <glyph glyph-name="uni0066" unicode="f" 
d="M466 977h-299v143h299v78q0 184 84.5 271t263.5 87h221v-153h-209q-98 0 -137 -40.5t-39 -143.5v-99h385v-143h-385v-977h-184v977z" />
    <glyph glyph-name="uni0067" unicode="g" 
d="M599 -440q-81 0 -162.5 15t-160.5 40v182q76 -36 160.5 -63t172.5 -27q108 0 168 43t84.5 119.5t24.5 175.5v133q-45 -96 -122 -141t-181 -45q-119 0 -202 51t-133.5 135.5t-73.5 187t-23 204.5t23 204t74 186.5t134.5 135.5t203.5 51q101 0 176 -42t124 -134l18 145h166
v-1044q0 -235 -111.5 -373.5t-359.5 -138.5zM620 145q131 0 198.5 109t67.5 317q0 67 -10 140t-37.5 136.5t-80.5 103.5t-139 40q-133 0 -203.5 -106t-70.5 -312q0 -208 72 -318t203 -110z" />
    <glyph glyph-name="uni011F" unicode="&#x11f;" 
d="M644 1298q-290 0 -313 287h119q11 -76 59 -113q46 -37 135 -37q87 0 133 37q48 37 62 113h119q-11 -143 -90 -215q-80 -72 -224 -72zM601 -440q-39 0 -78 3.5t-81 10.5q-79 13 -166 41v182q49 -23 94.5 -40t83.5 -28q76 -22 151 -22q144 0 213 82q33 40 50.5 101.5
t17.5 154.5v133q-44 -94 -120 -140t-184 -46q-197 0 -314 157t-117 420t117 421q118 157 315 157q105 0 181 -43q74 -42 122 -133l18 145h166v-1044q0 -251 -119 -382q-118 -130 -350 -130zM622 145q130 0 197 109t67 315q0 209 -67 315q-35 57 -85.5 82t-112.5 25
q-134 0 -205 -107t-71 -316q0 -205 72 -314t205 -109z" />
    <glyph glyph-name="uni01E7" unicode="&#x1e7;" 
d="M325 1673h139l180 -245l181 245h139l-246 -376h-147zM601 -440q-154 0 -325 55v182q100 -47 179 -68.5t152 -21.5q145 0 212 82.5t67 255.5v133q-86 -186 -301 -186q-133 0 -230.5 71t-150.5 201t-53 306t52.5 305.5t150.5 200.5t232 71q210 0 300 -176l18 145h166v-1044
q0 -512 -469 -512zM620 145q132 0 199 108t67 316q0 422 -267 422q-132 0 -203 -106.5t-71 -314.5q0 -209 71.5 -317t203.5 -108z" />
    <glyph glyph-name="uni0123" unicode="&#x123;" 
d="M701 1642h146l-94 -345h-239zM601 -440q-154 0 -325 55v182q100 -47 179 -68.5t152 -21.5q145 0 212 82.5t67 255.5v133q-86 -186 -301 -186q-133 0 -230.5 71t-150.5 201t-53 306t52.5 305.5t150.5 200.5t232 71q210 0 300 -176l18 145h166v-1044q0 -512 -469 -512z
M620 145q132 0 199 108t67 316q0 422 -267 422q-132 0 -203 -106.5t-71 -314.5q0 -209 71.5 -317t203.5 -108z" />
    <glyph glyph-name="uni0121" unicode="&#x121;" 
d="M571 1348q-30 0 -30 30v144q0 30 30 30h145q30 0 30 -30v-144q0 -30 -30 -30h-145zM601 -440q-154 0 -325 55v182q100 -47 179 -68.5t152 -21.5q145 0 212 82.5t67 255.5v133q-86 -186 -301 -186q-133 0 -230.5 71t-150.5 201t-53 306t52.5 305.5t150.5 200.5t232 71
q210 0 300 -176l18 145h166v-1044q0 -512 -469 -512zM620 145q132 0 199 108t67 316q0 422 -267 422q-132 0 -203 -106.5t-71 -314.5q0 -209 71.5 -317t203.5 -108z" />
    <glyph glyph-name="uni0068" unicode="h" 
d="M195 1556h184v-604q101 195 331 195q138 0 211.5 -64t101.5 -167t28 -222v-694h-185v694q0 151 -53 222t-165 71q-104 0 -162.5 -51.5t-82.5 -132.5t-24 -170v-633h-184v1556z" />
    <glyph glyph-name="uni0127" unicode="&#x127;" 
d="M195 1270h-125v164h125v122h184v-122h353v-164h-353v-318q98 195 332 195q340 0 340 -453v-694h-185v694q0 151 -52.5 222t-165.5 71q-131 0 -200 -91t-69 -263v-633h-184v1270z" />
    <glyph glyph-name="uni0069" unicode="i" 
d="M523 1323q-30 0 -30 30v173q0 30 30 30h144q30 0 30 -30v-173q0 -30 -30 -30h-144zM859 -8q-165 0 -255.5 106.5t-90.5 299.5v578h-245v144h429v-722q0 -122 46 -186t134 -64h215v-156h-233z" />
    <glyph glyph-name="uni0131" unicode="&#x131;" 
d="M859 -8q-80 0 -143.5 25t-111.5 81q-91 106 -91 300v578h-245v144h429v-722q0 -126 46 -187q46 -63 134 -63h215v-156h-233z" />
    <glyph glyph-name="uni00ED" unicode="&#xed;" 
d="M794 1647h198l-325 -376h-154zM859 -8q-80 0 -143.5 25t-111.5 81q-91 106 -91 300v578h-245v144h429v-722q0 -126 46 -187q46 -63 134 -63h215v-156h-233z" />
    <glyph glyph-name="uni00EE" unicode="&#xee;" 
d="M514 1648h147l246 -376h-139l-181 245l-180 -245h-139zM859 -8q-80 0 -143.5 25t-111.5 81q-91 106 -91 300v578h-245v144h429v-722q0 -126 46 -187q46 -63 134 -63h215v-156h-233z" />
    <glyph glyph-name="uni00EF" unicode="&#xef;" 
d="M328 1350q-30 0 -30 30v142q0 30 30 30h143q30 0 30 -30v-142q0 -30 -30 -30h-143zM720 1350q-30 0 -30 30v142q0 30 30 30h142q30 0 30 -30v-142q0 -30 -30 -30h-142zM859 -8q-80 0 -143.5 25t-111.5 81q-91 106 -91 300v578h-245v144h429v-722q0 -126 46 -187
q46 -63 134 -63h215v-156h-233z" />
    <glyph glyph-name="uni00EC" unicode="&#xec;" 
d="M218 1647h198l281 -376h-154zM859 -8q-80 0 -143.5 25t-111.5 81q-91 106 -91 300v578h-245v144h429v-722q0 -126 46 -187q46 -63 134 -63h215v-156h-233z" />
    <glyph glyph-name="uni012B" unicode="&#x12b;" 
d="M268 1468h598v-148h-598v148zM859 -8q-80 0 -143.5 25t-111.5 81q-91 106 -91 300v578h-245v144h429v-722q0 -126 46 -187q46 -63 134 -63h215v-156h-233z" />
    <glyph glyph-name="uni012C" unicode="&#x12c;" 
d="M615 1619q-290 0 -313 242h119q25 -111 196 -111q163 0 193 111h119q-23 -242 -314 -242zM201 170h313v1153h-313v170h829v-170h-313v-1153h313v-170h-829v170z" />
    <glyph glyph-name="uni012D" unicode="&#x12d;" 
d="M605 1298q-290 0 -313 287h119q11 -76 59 -113q46 -37 135 -37q87 0 133 37q48 37 62 113h119q-11 -143 -90 -215t-224 -72zM859 -8q-80 0 -143.5 25t-111.5 81q-91 106 -91 300v578h-245v144h429v-722q0 -126 46 -187q46 -63 134 -63h215v-156h-233z" />
    <glyph glyph-name="uni012F" unicode="&#x12f;" 
d="M526 1323q-33 0 -33 30v173q0 30 33 30h138q33 0 33 -30v-173q0 -30 -33 -30h-138zM972 -261q62 0 124 30v-133q-42 -11 -74 -15.5t-69 -4.5q-112 0 -171 42.5t-59 131.5q0 47 20.5 93.5t72.5 110.5q-133 12 -212 104q-91 106 -91 300v578h-245v144h429v-722
q0 -126 46 -187q46 -63 134 -63h215v-156h-156q-40 -57 -57 -95t-17 -70q0 -88 110 -88z" />
    <glyph glyph-name="uni0129" unicode="&#x129;" 
d="M268 1259q0 131 50.5 206.5t144.5 75.5q71 0 139 -61l57 -55q24 -23 40 -31t30 -8q36 0 54 37q18 38 19 118h125q0 -131 -50.5 -206.5t-144.5 -75.5q-71 0 -139 61l-57 55q-40 39 -70 39q-36 0 -54 -37t-20 -118h-124zM859 -8q-80 0 -143.5 25t-111.5 81q-91 106 -91 300
v578h-245v144h429v-722q0 -126 46 -187q46 -63 134 -63h215v-156h-233z" />
    <glyph glyph-name="uni006A" unicode="j" 
d="M652 1323q-30 0 -30 30v173q0 30 30 30h144q30 0 30 -30v-173q0 -30 -30 -30h-144zM238 -270h234q180 0 180 250v997h-317v143h501v-1140q0 -194 -90 -300t-254 -106h-254v156z" />
    <glyph glyph-name="uni006B" unicode="k" 
d="M226 1556h190v-901l483 465h224l-441 -422l510 -698h-225l-414 578l-137 -129v-449h-190v1556z" />
    <glyph glyph-name="uni0137" unicode="&#x137;" 
d="M226 1556h190v-901l483 465h224l-441 -422l510 -698h-225l-414 578l-137 -129v-449h-190v1556zM626 -199h239l-187 -345h-146z" />
    <glyph glyph-name="uni006C" unicode="l" 
d="M821 -8q-165 0 -255.5 106.5t-90.5 299.5v1014h-295v144h479v-1158q0 -122 46 -186t134 -64h215v-156h-233z" />
    <glyph glyph-name="uni013A" unicode="&#x13a;" 
d="M577 1880h186l-229 -264h-154zM801 -8q-166 0 -256 105.5t-90 300.5v1014h-295v144h479v-1158q0 -250 180 -250h215v-156h-233z" />
    <glyph glyph-name="uni013E" unicode="&#x13e;" 
d="M801 -8q-166 0 -256 105.5t-90 300.5v1014h-295v144h479v-1158q0 -250 180 -250h215v-156h-233zM959 1556h198l-113 -376h-154z" />
    <glyph glyph-name="uni013C" unicode="&#x13c;" 
d="M801 -8q-166 0 -256 105.5t-90 300.5v1014h-295v144h479v-1158q0 -250 180 -250h215v-156h-233zM497 -199h239l-187 -345h-146z" />
    <glyph glyph-name="uni0142" unicode="&#x142;" 
d="M801 -8q-80 0 -143.5 25t-111.5 81q-91 106 -91 300v292l-299 -209l-80 111l379 264v556h-295v144h479v-575l315 219l80 -110l-395 -275v-417q0 -126 46 -187q46 -63 134 -63h215v-156h-233z" />
    <glyph glyph-name="uni006D" unicode="m" 
d="M109 1120h151l16 -96q68 123 201 123q143 0 199 -141q68 141 214 141q136 0 190 -102q55 -105 55 -396v-649h-168v641q0 126 -6.5 195t-20.5 102q-25 55 -99 55q-76 0 -105 -60q-17 -35 -24 -102t-7 -190v-641h-168v641q0 121 -7 192t-22 104q-27 56 -101 56t-101 -59
q-16 -34 -23 -103.5t-7 -189.5v-641h-167v1120z" />
    <glyph glyph-name="uni006E" unicode="n" 
d="M195 1120h166l18 -168q101 195 329 195q343 0 343 -453v-694h-185v694q0 151 -52.5 222t-162.5 71q-131 0 -201.5 -92.5t-70.5 -261.5v-633h-184v1120z" />
    <glyph glyph-name="uni0144" unicode="&#x144;" 
d="M776 1673h198l-325 -376h-154zM195 1120h166l18 -168q98 195 332 195q340 0 340 -453v-694h-185v694q0 151 -52.5 222t-165.5 71q-131 0 -200 -91t-69 -263v-633h-184v1120z" />
    <glyph glyph-name="uni0148" unicode="&#x148;" 
d="M285 1673h139l180 -245l181 245h139l-246 -376h-147zM195 1120h166l18 -168q98 195 332 195q340 0 340 -453v-694h-185v694q0 151 -52.5 222t-165.5 71q-131 0 -200 -91t-69 -263v-633h-184v1120z" />
    <glyph glyph-name="uni0146" unicode="&#x146;" 
d="M195 1120h166l18 -168q98 195 332 195q340 0 340 -453v-694h-185v694q0 151 -52.5 222t-165.5 71q-131 0 -200 -91t-69 -263v-633h-184v1120zM550 -199h239l-187 -345h-146z" />
    <glyph glyph-name="uni014B" unicode="&#x14b;" 
d="M502 -270h185q179 0 179 250v714q0 151 -52.5 222t-165.5 71q-131 0 -200 -91t-69 -263v-633h-184v1120h166l18 -168q98 195 332 195q340 0 340 -453v-714q0 -196 -89 -301t-255 -105h-205v156z" />
    <glyph glyph-name="uni00F1" unicode="&#xf1;" 
d="M287 1286q1 133 52 208q51 74 141 74q38 0 72 -14q32 -15 69 -47l57 -55q22 -19 38 -29t30 -10q38 0 56 37q18 38 19 118h125q-1 -133 -52 -208q-51 -74 -141 -74q-38 0 -72 14q-32 15 -69 47l-57 55q-13 12 -22.5 19t-15.5 11q-15 9 -30 9q-38 0 -56 -37t-20 -118h-124z
M195 1120h166l18 -168q101 195 331 195q90 0 153 -29t104 -83q84 -113 84 -341v-694h-185v694q0 151 -53 222t-167 71q-129 0 -197 -91q-70 -91 -70 -263v-633h-184v1120z" />
    <glyph glyph-name="uni006F" unicode="o" 
d="M618 -29q-234 0 -357.5 151.5t-123.5 435.5q0 285 124 437t356 152t355.5 -151.5t123.5 -438.5q0 -285 -123 -435.5t-355 -150.5zM617 127q137 0 210.5 112t73.5 321q0 208 -73.5 319.5t-210.5 111.5q-138 0 -211.5 -111.5t-73.5 -319.5q0 -209 74 -321t211 -112z" />
    <glyph glyph-name="uni00F3" unicode="&#xf3;" 
d="M756 1673h198l-325 -376h-154zM616 -29q-232 0 -356 150q-63 78 -93 188.5t-30 250.5q0 284 123 436q123 151 356 151q235 0 357 -151q123 -152 123 -435q0 -292 -123 -440q-121 -150 -357 -150zM616 127q141 0 213 110q72 109 72 322t-72 323q-72 109 -213 109
q-140 0 -212 -109q-72 -110 -72 -323t72 -322q72 -110 212 -110z" />
    <glyph glyph-name="uni00F4" unicode="&#xf4;" 
d="M543 1673h147l246 -376h-139l-181 245l-180 -245h-139zM616 -29q-232 0 -356 150q-63 78 -93 188.5t-30 250.5q0 284 123 436q123 151 356 151q235 0 357 -151q123 -152 123 -435q0 -292 -123 -440q-121 -150 -357 -150zM616 127q141 0 213 110q72 109 72 322t-72 323
q-72 109 -213 109q-140 0 -212 -109q-72 -110 -72 -323t72 -322q72 -110 212 -110z" />
    <glyph glyph-name="uni00F6" unicode="&#xf6;" 
d="M349 1350q-30 0 -30 30v142q0 30 30 30h143q30 0 30 -30v-142q0 -30 -30 -30h-143zM741 1350q-30 0 -30 30v142q0 30 30 30h142q30 0 30 -30v-142q0 -30 -30 -30h-142zM616 -29q-232 0 -356 150q-63 78 -93 188.5t-30 250.5q0 284 123 436q123 151 356 151
q235 0 357 -151q123 -152 123 -435q0 -292 -123 -440q-121 -150 -357 -150zM616 127q141 0 213 110q72 109 72 322t-72 323q-72 109 -213 109q-140 0 -212 -109q-72 -110 -72 -323t72 -322q72 -110 212 -110z" />
    <glyph glyph-name="uni00F2" unicode="&#xf2;" 
d="M279 1673h198l281 -376h-154zM616 -29q-232 0 -356 150q-63 78 -93 188.5t-30 250.5q0 284 123 436q123 151 356 151q235 0 357 -151q123 -152 123 -435q0 -292 -123 -440q-121 -150 -357 -150zM616 127q141 0 213 110q72 109 72 322t-72 323q-72 109 -213 109
q-140 0 -212 -109q-72 -110 -72 -323t72 -322q72 -110 212 -110z" />
    <glyph glyph-name="uni01A1" unicode="&#x1a1;" 
d="M1182 1137q11 -42 15.5 -74t4.5 -69q0 -112 -42.5 -171t-131.5 -59q-15 0 -29.5 1.5t-28.5 6.5q21 -96 21 -214q0 -286 -123 -436.5t-357 -150.5q-235 0 -357 149.5t-122 437.5q0 286 123 437.5t356 151.5q286 0 405 -225q41 -19 75 -19q88 0 88 110q0 63 -30 124h133z
M511 127q285 0 285 432t-285 432q-284 0 -284 -432t284 -432z" />
    <glyph glyph-name="uni0151" unicode="&#x151;" 
d="M535 1673h170l-224 -376h-137zM868 1673h179l-248 -376h-135zM616 -29q-235 0 -357 149.5t-122 437.5q0 286 123 437.5t356 151.5t356.5 -151.5t123.5 -437.5t-123 -436.5t-357 -150.5zM616 127q285 0 285 432t-285 432q-284 0 -284 -432t284 -432z" />
    <glyph glyph-name="uni014D" unicode="&#x14d;" 
d="M317 1495h598v-148h-598v148zM616 -29q-235 0 -357 149.5t-122 437.5q0 286 123 437.5t356 151.5t356.5 -151.5t123.5 -437.5t-123 -436.5t-357 -150.5zM616 127q285 0 285 432t-285 432q-284 0 -284 -432t284 -432z" />
    <glyph glyph-name="uni014E" unicode="&#x14e;" 
d="M616 1589q-289 0 -313 242h119q25 -111 196 -111q163 0 193 111h119q-23 -242 -314 -242zM616 -29q-253 0 -376 191q-123 190 -123 583t124 583q125 192 375 192q123 0 218 -46t159 -146q123 -192 123 -583q0 -390 -123 -582q-64 -100 -159 -146t-218 -46zM616 135
q154 0 222 141q67 137 67 469t-67 470q-68 141 -222 141q-152 0 -220 -141q-68 -144 -68 -470q0 -325 68 -469q68 -141 220 -141z" />
    <glyph glyph-name="uni014F" unicode="&#x14f;" 
d="M616 1298q-292 0 -313 287h119q11 -76 59 -113q46 -37 135 -37q87 0 133 37q48 37 62 113h119q-11 -143 -90 -215q-80 -72 -224 -72zM616 -29q-232 0 -356 150q-63 78 -93 188.5t-30 250.5q0 284 123 436q123 151 356 151q235 0 357 -151q123 -152 123 -435
q0 -292 -123 -440q-121 -150 -357 -150zM616 127q141 0 213 110q72 109 72 322t-72 323q-72 109 -213 109q-140 0 -212 -109q-72 -110 -72 -323t72 -322q72 -110 212 -110z" />
    <glyph glyph-name="uni00F8" unicode="&#xf8;" 
d="M47 -20l170 200q-23 42 -36 82t-23 87q-21 95 -21 210q0 285 123 437q123 151 355 151q49 0 95.5 -6.5t84.5 -20.5q37 -13 72.5 -34t66.5 -50l147 176l93 -77l-164 -195q42 -67 64 -162t22 -217q0 -292 -123 -440q-123 -150 -358 -150q-55 0 -98.5 8t-81.5 22
q-80 29 -136 89l-160 -186zM817 897q-33 48 -84 71q-52 23 -117 23q-139 0 -213 -107q-36 -52 -55.5 -127t-19.5 -178q0 -55 7 -110q7 -59 21 -129zM615 127q142 0 214 110q72 109 72 319q0 56 -6 111q-2 21 -6 49t-12 64l-463 -559q22 -28 42.5 -43.5t44.5 -26.5
q25 -11 52 -17.5t62 -6.5z" />
    <glyph glyph-name="uni01FF" unicode="&#x1ff;" 
d="M756 1673h198l-325 -376h-154zM47 -20l170 200q-80 148 -80 382q0 284 123 434.5t358 150.5q199 0 316 -111l147 176l93 -77l-164 -195q86 -135 86 -380q0 -290 -122.5 -439.5t-357.5 -149.5q-204 0 -317 119l-160 -186zM817 897q-36 50 -86.5 72t-111.5 22
q-141 0 -216 -106.5t-75 -300.5q0 -57 7 -114.5t21 -129.5zM615 127q142 0 214 109.5t72 315.5q0 60 -6 115t-18 113l-463 -559q72 -94 201 -94z" />
    <glyph glyph-name="uni00F5" unicode="&#xf5;" 
d="M287 1286q1 133 52 208q51 74 141 74q38 0 72 -14q32 -15 69 -47l57 -55q22 -19 38 -29t30 -10q38 0 56 37q18 38 19 118h125q-1 -133 -52 -208q-51 -74 -141 -74q-38 0 -72 14q-32 15 -69 47l-57 55q-13 12 -22.5 19t-15.5 11q-15 9 -30 9q-38 0 -56 -37t-20 -118h-124z
M616 -29q-232 0 -356 150q-63 78 -93 188.5t-30 250.5q0 284 123 436q123 151 356 151q235 0 357 -151q123 -152 123 -435q0 -292 -123 -440q-121 -150 -357 -150zM616 127q141 0 213 110q72 109 72 322t-72 323q-72 109 -213 109q-140 0 -212 -109q-72 -110 -72 -323
t72 -322q72 -110 212 -110z" />
    <glyph glyph-name="uni0153" unicode="&#x153;" 
d="M369 -29q-99 0 -163.5 36t-105.5 102q-86 138 -86 449q0 169 22 276t63 174q85 139 274 139q91 0 153 -31q64 -32 111 -96q75 127 256 127q173 0 245 -118q72 -119 72 -425v-90h-491v-84q0 -161 50 -235q49 -72 163 -72q37 0 74 6.5t70 20.5q65 25 112 77v-172
q-30 -23 -62.5 -39.5t-58.5 -24.5q-60 -20 -140 -20q-194 0 -290 133q-30 -38 -58 -61.5t-58 -38.5q-62 -33 -152 -33zM372 123q104 0 144 84q20 42 30.5 121.5t10.5 221.5q0 181 -17.5 277t-58 132t-108.5 36q-55 0 -89 -21.5t-53 -61.5q-19 -41 -30 -121t-11 -233
q0 -148 10.5 -228.5t30.5 -122.5q22 -46 57.5 -65t83.5 -19zM1047 657q0 8 1 29.5t1 22.5q0 152 -40 219t-126 67q-87 0 -125 -68q-39 -69 -39 -227v-43h328z" />
    <glyph glyph-name="uni0070" unicode="p" 
d="M190 1120h167l18 -143q96 170 301 170q201 0 316.5 -157t115.5 -429q0 -274 -116.5 -432t-315.5 -158q-210 0 -301 170v-567h-185v1546zM652 127q263 0 263 432t-263 432q-135 0 -206 -112t-71 -319q0 -208 71.5 -320.5t205.5 -112.5z" />
    <glyph glyph-name="uni00FE" unicode="&#xfe;" 
d="M190 1567h185v-590q96 170 300 170q202 0 317.5 -157.5t115.5 -432.5t-116 -430q-116 -156 -318 -156q-57 0 -99 11.5t-79 32.5q-77 45 -121 126v-567h-185v1993zM647 127q268 0 268 432t-268 432q-134 0 -203 -109q-69 -110 -69 -323t69 -322q69 -110 203 -110z" />
    <glyph glyph-name="uni0071" unicode="q" 
d="M870 139q-94 -172 -305 -172q-120 0 -202 51.5t-132 136.5t-72 187.5t-22 205.5q0 276 116.5 435.5t317.5 159.5q205 0 299 -170l18 143h167v-1546h-185v569zM601 123q129 0 199 112.5t70 320.5t-69.5 319.5t-199.5 111.5t-199.5 -112t-69.5 -320q0 -207 69.5 -319.5
t199.5 -112.5z" />
    <glyph glyph-name="uni0072" unicode="r" 
d="M302 1120h167l18 -219q47 119 141.5 182.5t226.5 63.5q138 0 240 -70v-188q-108 88 -256 88q-170 0 -261 -108.5t-91 -311.5v-557h-185v1120z" />
    <glyph glyph-name="uni0155" unicode="&#x155;" 
d="M822 1674h198l-325 -376h-154zM302 1120h167l18 -219q45 116 138.5 181t230.5 65q134 0 239 -70v-188q-115 88 -254 88q-173 0 -263.5 -107.5t-90.5 -312.5v-557h-185v1120z" />
    <glyph glyph-name="uni0159" unicode="&#x159;" 
d="M337 1673h139l180 -245l181 245h139l-246 -376h-147zM302 1120h167l18 -219q45 116 138.5 181t230.5 65q134 0 239 -70v-188q-115 88 -254 88q-173 0 -263.5 -107.5t-90.5 -312.5v-557h-185v1120z" />
    <glyph glyph-name="uni0157" unicode="&#x157;" 
d="M302 1120h167l18 -219q45 116 138.5 181t230.5 65q134 0 239 -70v-188q-115 88 -254 88q-173 0 -263.5 -107.5t-90.5 -312.5v-557h-185v1120zM322 -199h239l-187 -345h-146z" />
    <glyph glyph-name="uni0073" unicode="s" 
d="M589 -29q-160 0 -376 70v190q210 -106 374 -106q117 0 187 49t70 131q0 71 -58.5 114.5t-186.5 70.5l-77 16q-158 32 -231.5 105.5t-73.5 200.5q0 161 110 248t313 87q172 0 333 -66v-180q-157 92 -328 92q-242 0 -242 -165q0 -54 21 -85.5t80 -53t174 -44.5l74 -14
q278 -55 278 -303q0 -166 -118 -261.5t-323 -95.5z" />
    <glyph glyph-name="uni015B" unicode="&#x15b;" 
d="M782 1673h198l-325 -376h-154zM587 -29q-87 0 -177.5 17.5t-196.5 52.5v190q205 -106 375 -106q122 0 189 50t67 130q0 68 -56 112.5t-189 72.5l-8 2l-69 14q-164 32 -234.5 106.5t-70.5 197.5q0 163 108 250t314 87q173 0 334 -66v-180q-81 46 -159.5 69t-168.5 23
q-242 0 -242 -165q0 -75 46 -111q26 -20 83.5 -37.5t145.5 -34.5l74 -14q278 -53 278 -307q0 -166 -118 -259.5t-325 -93.5z" />
    <glyph glyph-name="uni0161" unicode="&#x161;" 
d="M297 1673h139l180 -245l181 245h139l-246 -376h-147zM590 -29q-92 0 -180 17q-39 8 -91.5 22t-105.5 31v190q64 -32 109 -49.5t88 -29.5q46 -13 89 -20t89 -7q121 0 189 50q35 26 51 61t16 71q0 70 -59 113.5t-186 69.5l-8 2l-69 14q-75 15 -133.5 40t-98.5 65
q-73 73 -73 201q0 162 109 248q57 46 136 66.5t177 20.5q90 0 171 -16q38 -8 79.5 -20.5t83.5 -29.5v-180q-79 47 -159 69q-81 23 -167 23q-121 0 -182 -40q-62 -41 -62 -125q6 -38 13 -64.5t31.5 -46t78 -36.5t152.5 -36l74 -14q141 -28 208 -104q70 -76 70 -204
q0 -86 -30.5 -149.5t-87.5 -108.5q-61 -48 -142.5 -71t-179.5 -23z" />
    <glyph glyph-name="uni015F" unicode="&#x15f;" 
d="M960 527q70 -76 70 -204q0 -86 -30.5 -149.5t-87.5 -108.5q-80 -63 -196 -83q23 -26 39.5 -51.5t27.5 -45.5q11 -23 18.5 -48.5t7.5 -55.5q0 -85 -60 -131q-29 -22 -73 -33.5t-106 -11.5q-44 0 -87 6q-46 6 -88 18v131q69 -32 151 -32q124 0 124 92q0 32 -22 75
q-8 17 -20 35.5t-26 40.5h-12q-92 0 -180 17q-39 8 -91.5 22t-105.5 31v190q64 -32 109 -49.5t88 -29.5q46 -13 89 -20t89 -7q121 0 189 50q35 26 51 61t16 71q0 70 -59 113.5t-186 69.5l-8 2l-69 14q-75 15 -133.5 40t-98.5 65q-73 73 -73 201q0 162 109 248
q57 46 136 66.5t177 20.5q90 0 171 -16q38 -8 79.5 -20.5t83.5 -29.5v-180q-79 47 -159 69q-81 23 -167 23q-121 0 -182 -40q-62 -41 -62 -125q6 -38 13 -64.5t31.5 -46t78 -36.5t152.5 -36l74 -14q141 -28 208 -104z" />
    <glyph glyph-name="uni0219" unicode="&#x219;" 
d="M587 -29q-87 0 -177.5 17.5t-196.5 52.5v190q205 -106 375 -106q122 0 189 50t67 130q0 68 -56 112.5t-189 72.5l-8 2l-69 14q-164 32 -234.5 106.5t-70.5 197.5q0 163 108 250t314 87q173 0 334 -66v-180q-81 46 -159.5 69t-168.5 23q-242 0 -242 -165q0 -75 46 -111
q26 -20 83.5 -37.5t145.5 -34.5l74 -14q278 -53 278 -307q0 -166 -118 -259.5t-325 -93.5zM502 -197h239l-187 -345h-146z" />
    <glyph glyph-name="uni00DF" unicode="&#xdf;" 
d="M731 -29q-73 0 -138 12q-23 5 -60 14t-74 23v164q72 -30 143 -46q66 -15 126 -15q108 0 171 48q35 26 49.5 60t14.5 79q0 61 -34 109q-25 35 -63.5 64t-87.5 58l-67 39q-47 27 -81 59t-56 64q-23 34 -34.5 68.5t-11.5 79.5q0 60 20 114t61 97q79 85 237 120
q-2 107 -62 164q-62 57 -174 57q-121 0 -178 -65q-57 -66 -57 -205v-1133h-187v1137q0 213 105 316q106 103 317 103q209 0 313 -110q105 -111 107 -327q-154 -13 -239 -76q-84 -61 -84 -160q0 -49 28 -89q17 -24 40 -42.5t54 -38.5l58 -37q79 -50 128.5 -90.5t78.5 -84.5
q55 -83 55 -195q0 -74 -26 -137t-86 -110q-113 -88 -306 -88z" />
    <glyph glyph-name="uni0074" unicode="t" 
d="M807 -4q-206 0 -291.5 83.5t-85.5 285.5v612h-299v143h299v293l184 80v-373h418v-143h-418v-612q0 -123 47 -172.5t164 -49.5h207v-147h-225z" />
    <glyph glyph-name="uni0167" unicode="&#x167;" 
d="M807 -4q-207 0 -292 83t-85 286v237h-229v142h229v233h-299v143h299v303l184 70v-373h418v-143h-418v-233h229v-142h-229v-237q0 -124 47 -173t164 -49h207v-147h-225z" />
    <glyph glyph-name="uni0165" unicode="&#x165;" 
d="M820 1682h198l-113 -376h-154zM807 -4q-206 0 -292 83q-85 82 -85 286v612h-299v143h299v293l184 80v-373h418v-143h-418v-612q0 -123 47 -173q46 -49 164 -49h207v-147h-225z" />
    <glyph glyph-name="uni021B" unicode="&#x21b;" 
d="M614 977v-612q0 -123 47 -173q46 -49 164 -49h207v-147h-194q48 -56 70 -102.5t22 -97.5q0 -175 -240 -175q-86 0 -174 24v131q31 -17 70.5 -24.5t76.5 -7.5q128 0 128 90q0 31 -17.5 68t-59.5 99q-135 15 -199 78q-85 82 -85 286v612h-299v143h299v293l184 80v-373h418
v-143h-418z" />
    <glyph glyph-name="uni0075" unicode="u" 
d="M536 -29q-341 0 -341 453v694h184v-694q0 -293 219 -293q128 0 198 92.5t70 261.5v633h185v-1118h-167l-18 168q-100 -197 -330 -197z" />
    <glyph glyph-name="uni00FA" unicode="&#xfa;" 
d="M756 1644h198l-325 -376h-154zM534 -29q-171 0 -255 113q-84 112 -84 340v694h184v-694q0 -152 54 -222q26 -34 65.5 -52.5t99.5 -18.5q130 0 199 92q69 91 69 262v633h185v-1118h-167l-18 168q-49 -97 -133 -147q-86 -50 -199 -50z" />
    <glyph glyph-name="uni00FB" unicode="&#xfb;" 
d="M543 1644h147l246 -376h-139l-181 245l-180 -245h-139zM534 -29q-171 0 -255 113q-84 112 -84 340v694h184v-694q0 -152 54 -222q26 -34 65.5 -52.5t99.5 -18.5q130 0 199 92q69 91 69 262v633h185v-1118h-167l-18 168q-49 -97 -133 -147q-86 -50 -199 -50z" />
    <glyph glyph-name="uni00FC" unicode="&#xfc;" 
d="M349 1350q-30 0 -30 30v142q0 30 30 30h143q30 0 30 -30v-142q0 -30 -30 -30h-143zM741 1350q-30 0 -30 30v142q0 30 30 30h142q30 0 30 -30v-142q0 -30 -30 -30h-142zM534 -29q-171 0 -255 113q-84 112 -84 340v694h184v-694q0 -152 54 -222q26 -34 65.5 -52.5
t99.5 -18.5q130 0 199 92q69 91 69 262v633h185v-1118h-167l-18 168q-49 -97 -133 -147q-86 -50 -199 -50z" />
    <glyph glyph-name="uni00F9" unicode="&#xf9;" 
d="M279 1644h198l281 -376h-154zM534 -29q-171 0 -255 113q-84 112 -84 340v694h184v-694q0 -152 54 -222q26 -34 65.5 -52.5t99.5 -18.5q130 0 199 92q69 91 69 262v633h185v-1118h-167l-18 168q-49 -97 -133 -147q-86 -50 -199 -50z" />
    <glyph glyph-name="uni01B0" unicode="&#x1b0;" 
d="M1174 1137q11 -42 15.5 -74t4.5 -69q0 -112 -42.5 -171t-131.5 -59q-61 0 -125 37v-801h-167l-18 168q-99 -197 -332 -197q-339 0 -339 453v694h184v-694q0 -151 53.5 -222t165.5 -71q131 0 199.5 91t68.5 263v633h185v-189q52 -26 88 -26q88 0 88 110q0 63 -30 124h133z
" />
    <glyph glyph-name="uni0171" unicode="&#x171;" 
d="M535 1644h170l-224 -376h-137zM868 1644h179l-248 -376h-135zM534 -29q-339 0 -339 453v694h184v-694q0 -151 53.5 -222t165.5 -71q131 0 199.5 91t68.5 263v633h185v-1118h-167l-18 168q-99 -197 -332 -197z" />
    <glyph glyph-name="uni016B" unicode="&#x16b;" 
d="M317 1466h598v-148h-598v148zM534 -29q-339 0 -339 453v694h184v-694q0 -151 53.5 -222t165.5 -71q131 0 199.5 91t68.5 263v633h185v-1118h-167l-18 168q-99 -197 -332 -197z" />
    <glyph glyph-name="uni0173" unicode="&#x173;" 
d="M1076 -272q62 0 124 30v-133q-42 -11 -74 -15.5t-69 -4.5q-112 0 -171 42.5t-59 131.5q0 49 23.5 100t84.5 121h-69v168q-99 -197 -332 -197q-339 0 -339 453v694h184v-694q0 -151 53.5 -222t165.5 -71q131 0 199.5 91t68.5 263v633h185v-1118h3q-48 -65 -68 -107.5
t-20 -76.5q0 -88 110 -88z" />
    <glyph glyph-name="uni016F" unicode="&#x16f;" 
d="M632 1204q-77 0 -139.5 37t-99 99t-36.5 139q0 76 36.5 138t99 99t139.5 37q78 0 140 -37t98 -99t36 -138q0 -77 -36 -139t-98 -99t-140 -37zM631 1327q63 0 107.5 44.5t44.5 107.5t-44.5 107t-107.5 44q-64 0 -107.5 -43.5t-43.5 -107.5q0 -65 43.5 -108.5t107.5 -43.5z
M534 -29q-339 0 -339 453v694h184v-694q0 -151 53.5 -222t165.5 -71q131 0 199.5 91t68.5 263v633h185v-1118h-167l-18 168q-99 -197 -332 -197z" />
    <glyph glyph-name="uni0169" unicode="&#x169;" 
d="M287 1257q0 131 50.5 206.5t144.5 75.5q71 0 139 -61l57 -55q24 -23 40 -31t30 -8q36 0 54 37q18 38 19 118h125q0 -131 -50.5 -206.5t-144.5 -75.5q-71 0 -139 61l-57 55q-40 39 -70 39q-36 0 -54 -37t-20 -118h-124zM534 -29q-339 0 -339 453v694h184v-694
q0 -151 53.5 -222t165.5 -71q131 0 199.5 91t68.5 263v633h185v-1118h-167l-18 168q-99 -197 -332 -197z" />
    <glyph glyph-name="uni0076" unicode="v" 
d="M100 1120h191l325 -940l326 940h191l-398 -1120h-237z" />
    <glyph glyph-name="uni0077" unicode="w" 
d="M0 1120h182l195 -905l160 578h157l162 -578l195 905h182l-262 -1120h-176l-179 614l-178 -614h-176z" />
    <glyph glyph-name="uni1E83" unicode="&#x1e83;" 
d="M820 1647h198l-325 -376h-154zM0 1120h182l195 -905l160 578h157l162 -578l195 905h182l-262 -1120h-176l-179 614l-178 -614h-176z" />
    <glyph glyph-name="uni0175" unicode="&#x175;" 
d="M543 1647h147l246 -376h-139l-181 245l-180 -245h-139zM0 1120h182l195 -905l160 578h157l162 -578l195 905h182l-262 -1120h-176l-179 614l-178 -614h-176z" />
    <glyph glyph-name="uni1E85" unicode="&#x1e85;" 
d="M349 1320q-30 0 -30 30v142q0 30 30 30h143q30 0 30 -30v-142q0 -30 -30 -30h-143zM741 1320q-30 0 -30 30v142q0 30 30 30h142q30 0 30 -30v-142q0 -30 -30 -30h-142zM0 1120h182l195 -905l160 578h157l162 -578l195 905h182l-262 -1120h-176l-179 614l-178 -614h-176z
" />
    <glyph glyph-name="uni1E81" unicode="&#x1e81;" 
d="M215 1647h198l281 -376h-154zM0 1120h182l195 -905l160 578h157l162 -578l195 905h182l-262 -1120h-176l-179 614l-178 -614h-176z" />
    <glyph glyph-name="uni0078" unicode="x" 
d="M516 584l-401 536h204l297 -405l295 405h207l-401 -536l440 -584h-213l-328 449l-327 -449h-213z" />
    <glyph glyph-name="uni0079" unicode="y" 
d="M184 -272h109q81 0 125 46q49 51 119 244l-433 1102h195l332 -876l327 876h195l-295 -760q-35 -90 -61 -157q-8 -20 -12.5 -31.5t-11 -29.5t-20.5 -58l-12 -32q-39 -109 -73.5 -191.5t-58.5 -124.5q-90 -162 -277 -162h-148v154z" />
    <glyph glyph-name="uni00FD" unicode="&#xfd;" 
d="M756 1646h198l-325 -376h-154zM184 -272h109q45 0 76 13.5t51 33.5q22 23 50 79t67 164l-433 1102h195l332 -876l327 876h195l-295 -760q-44 -112 -65.5 -168t-32 -84t-19.5 -56q-50 -140 -82.5 -210t-52.5 -109q-31 -54 -57 -79.5t-55 -41.5q-35 -19 -78 -28.5t-84 -9.5
h-148v154z" />
    <glyph glyph-name="uni0177" unicode="&#x177;" 
d="M555 1647h147l246 -376h-139l-181 245l-180 -245h-139zM184 -272h109q45 0 76 13.5t51 33.5q22 23 49.5 79t67.5 164l-433 1102h195l332 -876l327 876h195l-295 -760l-42 -108t-22.5 -59t-19 -53t-33.5 -88q-52 -138 -81 -210t-53 -112q-44 -75 -109.5 -115.5
t-165.5 -40.5h-148v154z" />
    <glyph glyph-name="uni00FF" unicode="&#xff;" 
d="M349 1320q-30 0 -30 30v142q0 30 30 30h143q30 0 30 -30v-142q0 -30 -30 -30h-143zM741 1320q-30 0 -30 30v142q0 30 30 30h142q30 0 30 -30v-142q0 -30 -30 -30h-142zM184 -272h109q45 0 76 13.5t51 33.5q22 23 50 79t67 164l-433 1102h195l332 -876l327 876h195
l-295 -760q-28 -74 -42.5 -110.5t-21.5 -53.5t-11.5 -29.5t-13.5 -37t-28 -77.5q-40 -108 -66 -171.5t-41.5 -97t-25.5 -51.5q-22 -38 -49 -67.5t-66 -51.5q-69 -39 -161 -39h-148v154z" />
    <glyph glyph-name="uni1EF3" unicode="&#x1ef3;" 
d="M227 1647h198l281 -376h-154zM184 -272h109q45 0 76 13.5t51 33.5q22 23 50 79t67 164l-433 1102h195l332 -876l327 876h195l-295 -760q-31 -80 -47.5 -122t-23.5 -62t-11.5 -32.5t-11.5 -31.5t-23 -60q-44 -116 -69 -179t-39.5 -94t-24.5 -49q-43 -75 -112.5 -115.5
t-163.5 -40.5h-148v154z" />
    <glyph glyph-name="uni007A" unicode="z" 
d="M203 170l643 805h-619v147h813v-168l-643 -804h643v-150h-837v170z" />
    <glyph glyph-name="uni017A" unicode="&#x17a;" 
d="M842 1649h198l-325 -376h-154zM203 170l643 805h-619v147h813v-168l-643 -804h643v-150h-837v170z" />
    <glyph glyph-name="uni017E" unicode="&#x17e;" 
d="M297 1649h139l180 -245l181 245h139l-246 -376h-147zM203 170l643 805h-619v147h813v-168l-643 -804h643v-150h-837v170z" />
    <glyph glyph-name="uni017F" unicode="&#x17f;" 
d="M565 977h-339v143h339v78q0 186 85 271q87 87 263 87h221v-153h-209q-54 0 -86.5 -10.5t-50.5 -29.5q-39 -41 -39 -144v-1489h-184v1247z" />
    <glyph glyph-name="uni017C" unicode="&#x17c;" 
d="M543 1322q-30 0 -30 30v144q0 30 30 30h145q30 0 30 -30v-144q0 -30 -30 -30h-145zM203 170l643 805h-619v147h813v-168l-643 -804h643v-150h-837v170z" />
    <glyph glyph-name="uni00AA" unicode="&#xaa;" 
d="M547 698q-125 0 -202 68q-75 68 -75 183q0 129 93 200q94 70 266 70h182v4q0 91 -60 136q-35 26 -79 36t-89 10q-61 0 -121 -17q-64 -19 -130 -51v127q68 29 136 42q34 7 65.5 10.5t69.5 3.5q176 0 264 -86q87 -84 87 -269v-448h-129l-14 112q-50 -65 -114 -98
q-63 -33 -150 -33zM576 817q104 0 170 72q65 71 65 186v29h-127q-145 0 -206 -34q-62 -35 -62 -112q0 -36 12 -60.5t32 -41.5q44 -39 116 -39zM293 592h668v-123h-668v123z" />
    <glyph glyph-name="uni00BA" unicode="&#xba;" 
d="M616 698q-94 0 -160 31t-111 80q-47 51 -74 126t-27 173q0 187 101 300q47 52 114 82t158 30q90 0 157.5 -30t114.5 -83q100 -112 100 -299q0 -186 -100 -298q-47 -52 -114.5 -82t-158.5 -30zM616 815q102 0 160 78q27 36 42.5 90t15.5 127q0 137 -57 215
q-27 37 -66.5 57.5t-93.5 20.5q-103 0 -160 -77q-58 -79 -58 -218q0 -140 58 -217q58 -76 159 -76zM276 592h676v-123h-676v123z" />
    <glyph glyph-name="uni0410" unicode="&#x410;" 
d="M494 1493h245l457 -1493h-209l-110 389h-523l-108 -389h-209zM829 551l-213 764l-213 -764h426z" />
    <glyph glyph-name="uni0411" unicode="&#x411;" 
d="M166 1493h902v-166h-699v-450h235q379 -15 480 -206q28 -53 40.5 -120t12.5 -132q0 -211 -130 -315t-399 -104h-442v1493zM608 166q176 0 251 61.5t75 201.5q0 147 -78.5 215.5t-247.5 68.5h-239v-547h239z" />
    <glyph glyph-name="uni0412" unicode="&#x412;" 
d="M166 1493h442q229 0 353 -99t124 -284q0 -271 -262 -311q145 -22 229.5 -125t84.5 -267q0 -407 -529 -407h-442v1493zM604 877q144 0 210.5 55.5t66.5 177.5q0 116 -63.5 166.5t-213.5 50.5h-235v-450h235zM608 166q176 0 251 61.5t75 201.5q0 147 -78.5 215.5
t-247.5 68.5h-239v-547h239z" />
    <glyph glyph-name="uni0413" unicode="&#x413;" 
d="M215 1493h924v-170h-721v-1323h-203v1493z" />
    <glyph glyph-name="uni0403" unicode="&#x403;" 
d="M744 1852h186l-229 -264h-154zM215 1493h924v-170h-721v-1323h-203v1493z" />
    <glyph glyph-name="uni0490" unicode="&#x490;" 
d="M215 1493h754l3 306h167v-476h-721v-1323h-203v1493z" />
    <glyph glyph-name="uni0414" unicode="&#x414;" 
d="M33 170h77q19 0 36.5 53.5t32 144t25.5 203t17 230.5t6 226v466h852v-1323h121v-492h-170v322h-827v-322h-170v492zM876 170v1153h-446v-297q0 -90 -5.5 -196.5t-13.5 -212.5t-16.5 -195.5t-15.5 -145.5t-9 -62q-6 -14 -6 -22q0 -22 47 -22h465z" />
    <glyph glyph-name="uni0415" unicode="&#x415;" 
d="M197 1493h886v-170h-684v-442h654v-170h-654v-541h703v-170h-905v1493z" />
    <glyph glyph-name="uni0400" unicode="&#x400;" 
d="M377 1852h184l197 -264h-154zM197 1493h886v-170h-684v-442h654v-170h-654v-541h703v-170h-905v1493z" />
    <glyph glyph-name="uni0401" unicode="&#x401;" 
d="M405 1649q-30 0 -30 30v143q0 30 30 30h143q30 0 30 -30v-143q0 -30 -30 -30h-143zM797 1649q-30 0 -30 30v143q0 30 30 30h142q30 0 30 -30v-143q0 -30 -30 -30h-142zM197 1493h886v-170h-684v-442h654v-170h-654v-541h703v-170h-905v1493z" />
    <glyph glyph-name="uni0416" unicode="&#x416;" 
d="M319 891l-287 602h207l284 -595v595h187v-595l284 595h207l-287 -602l304 -891h-197l-222 650l-89 -186v-464h-187v464l-89 186l-222 -650h-197z" />
    <glyph glyph-name="uni0417" unicode="&#x417;" 
d="M553 -29q-205 0 -416 74v201q103 -54 201 -79.5t194 -25.5q169 0 258 74.5t89 210.5t-89 212.5t-241 76.5h-154v166h154q140 0 217.5 60.5t77.5 176.5q0 111 -73 171.5t-214 60.5q-76 0 -171.5 -19t-203.5 -61v186q121 32 215 48t172 16q142 0 249 -49.5t166.5 -139
t59.5 -209.5q0 -254 -268 -323q148 -39 225.5 -138t77.5 -251q0 -205 -138.5 -322t-387.5 -117z" />
    <glyph glyph-name="uni0418" unicode="&#x418;" 
d="M139 1493h195v-1229l504 1229h256v-1493h-195v1229l-504 -1229h-256v1493z" />
    <glyph glyph-name="uni0419" unicode="&#x419;" 
d="M616 1609q-290 0 -313 242h119q25 -111 194 -111q165 0 195 111h119q-23 -242 -314 -242zM139 1493h195v-1229l504 1229h256v-1493h-195v1229l-504 -1229h-256v1493z" />
    <glyph glyph-name="uni040D" unicode="&#x40d;" 
d="M377 1851h184l197 -264h-154zM139 1493h195v-1229l504 1229h256v-1493h-195v1229l-504 -1229h-256v1493z" />
    <glyph glyph-name="uni041A" unicode="&#x41a;" 
d="M137 1493h203v-664l631 664h237l-581 -610l598 -883h-244l-487 748l-154 -164v-584h-203v1493z" />
    <glyph glyph-name="uni040C" unicode="&#x40c;" 
d="M699 1851h186l-229 -264h-154zM137 1493h203v-664l631 664h237l-581 -610l598 -883h-244l-487 748l-154 -164v-584h-203v1493z" />
    <glyph glyph-name="uni041B" unicode="&#x41b;" 
d="M14 164q94 0 149.5 30.5t82 107t34.5 214.5q4 61 6 151t3 194t1 206v426h814v-1493h-203v1323h-408v-435q0 -170 -7 -320.5t-33.5 -266t-83.5 -182.5q-102 -119 -355 -119v164z" />
    <glyph glyph-name="uni041C" unicode="&#x41c;" 
d="M86 1493h270l258 -760l260 760h271v-1493h-187v1319l-266 -787h-153l-267 787v-1319h-186v1493z" />
    <glyph glyph-name="uni041D" unicode="&#x41d;" 
d="M137 1493h203v-612h553v612h203v-1493h-203v711h-553v-711h-203v1493z" />
    <glyph glyph-name="uni041E" unicode="&#x41e;" 
d="M615 -29q-251 0 -374.5 190.5t-123.5 582.5t123.5 584t375.5 192q253 0 376.5 -192t123.5 -583q0 -774 -501 -774zM616 135q154 0 222 141q67 137 67 469t-67 470q-68 141 -222 141q-152 0 -220 -141q-68 -144 -68 -470q0 -325 68 -469q68 -141 220 -141z" />
    <glyph glyph-name="uni041F" unicode="&#x41f;" 
d="M137 1493h959v-1493h-203v1323h-553v-1323h-203v1493z" />
    <glyph glyph-name="uni0420" unicode="&#x420;" 
d="M197 1493h436q508 0 508 -447q0 -446 -508 -446h-234v-600h-202v1493zM633 766q141 0 219 73.5t78 207.5t-77.5 207t-219.5 73h-234v-561h234z" />
    <glyph glyph-name="uni0421" unicode="&#x421;" 
d="M742 -29q-140 0 -252.5 50t-192.5 153q-158 205 -158 570q0 244 72 417.5t207.5 266t323.5 92.5q97 0 174.5 -19t156.5 -63v-207q-73 61 -159 93q-87 32 -173 32q-195 0 -293 -152t-98 -459q0 -610 393 -610q86 0 173 32q84 32 157 93v-207q-79 -41 -158 -62
q-80 -20 -173 -20z" />
    <glyph glyph-name="uni0422" unicode="&#x422;" 
d="M516 1323h-469v170h1139v-170h-467v-1323h-203v1323z" />
    <glyph glyph-name="uni0423" unicode="&#x423;" 
d="M204 172h109q82 0 126.5 47t79.5 123q7 16 12.5 30.5l16.5 43.5l-424 1077h217l311 -830l308 830h213l-412 -1068q-30 -78 -62.5 -148t-65.5 -121q-46 -70 -112 -113t-169 -43h-148v172z" />
    <glyph glyph-name="uni040E" unicode="&#x40e;" 
d="M636 1609q-290 0 -313 242h119q25 -111 196 -111q163 0 193 111h119q-23 -242 -314 -242zM204 172h109q82 0 126.5 47t79.5 123q7 16 12.5 30.5l16.5 43.5l-424 1077h217l311 -830l308 830h213l-412 -1068q-30 -78 -62.5 -148t-65.5 -121q-46 -70 -112 -113t-169 -43
h-148v172z" />
    <glyph glyph-name="uni0424" unicode="&#x424;" 
d="M515 152q-173 8 -270.5 91t-138 220.5t-40.5 308.5q0 170 40 303t138 212t271 84v122h203v-122q180 -7 277 -88t134.5 -217t37.5 -304q0 -178 -39.5 -313t-137.5 -213t-272 -84v-152h-203v152zM515 1207q-111 -17 -161 -72t-63.5 -148t-13.5 -226t13.5 -226t63.5 -147
t161 -72v891zM718 316q110 18 160 72t64 147t14 226t-14 226t-64 148t-160 72v-891z" />
    <glyph glyph-name="uni0425" unicode="&#x425;" 
d="M518 791l-432 702h217l328 -563l334 563h217l-447 -702l479 -791h-217l-366 643l-395 -643h-218z" />
    <glyph glyph-name="uni0427" unicode="&#x427;" 
d="M889 658q-104 -52 -179.5 -66.5t-165.5 -14.5q-83 0 -156.5 13t-130 53t-88.5 120.5t-32 216.5v513h203v-487q0 -112 26 -163.5t80.5 -65.5t140.5 -14q61 0 107.5 6t92 27t102.5 65v632h203v-1493h-203v658z" />
    <glyph glyph-name="uni0426" unicode="&#x426;" 
d="M1023 0h-923v1493h203v-1323h553v1323h203v-1323h134v-492h-170v322z" />
    <glyph glyph-name="uni0428" unicode="&#x428;" 
d="M114 1493h186v-1323h224v1323h186v-1323h224v1323h186v-1493h-1006v1493z" />
    <glyph glyph-name="uni0429" unicode="&#x429;" 
d="M1063 0h-970v1493h186v-1323h224v1323h186v-1323h224v1323h186v-1323h134v-492h-170v322z" />
    <glyph glyph-name="uni040F" unicode="&#x40f;" 
d="M531 0h-394v1493h203v-1323h553v1323h203v-1493h-394v-322h-171v322z" />
    <glyph glyph-name="uni042F" unicode="&#x42f;" 
d="M415 666q-72 26 -137.5 73t-107 125.5t-41.5 200.5q0 205 130.5 316.5t377.5 111.5h466v-1493h-203v631h-290l-350 -631h-214zM900 797v530h-263q-144 0 -219.5 -67.5t-75.5 -203.5q0 -259 287 -259h271z" />
    <glyph glyph-name="uni042C" unicode="&#x42c;" 
d="M197 1493h202v-600h234q508 0 508 -446q0 -447 -508 -447h-436v1493zM633 166q142 0 219.5 73t77.5 207t-78 207.5t-219 73.5h-234v-561h234z" />
    <glyph glyph-name="uni042A" unicode="&#x42a;" 
d="M313 1323h-261v170h463v-600h138q508 0 508 -446q0 -447 -508 -447h-340v1323zM653 166q142 0 219.5 73t77.5 207t-78 207.5t-219 73.5h-138v-561h138z" />
    <glyph glyph-name="uni042B" unicode="&#x42b;" 
d="M65 1493h202v-600h91q130 0 231.5 -50.5t160.5 -149.5t59 -246t-59.5 -246.5t-161.5 -150t-230 -50.5h-293v1493zM931 1493h203v-1493h-203v1493zM358 166q102 0 171 65t69 215q0 134 -60 207.5t-180 73.5h-91v-561h91z" />
    <glyph glyph-name="uni0409" unicode="&#x409;" 
d="M0 164q94 0 147 30.5t77.5 107t32.5 214.5q4 61 6 151t3 194t1 206v426h544v-600h21q96 0 188 -50.5t152.5 -149.5t60.5 -246t-60.5 -246.5t-152.5 -150t-188 -50.5h-207v1323h-172v-410q0 -279 -19.5 -484t-105.5 -310q-98 -119 -328 -119v164zM832 166q90 0 152.5 71
t62.5 207q0 134 -60.5 208.5t-154.5 74.5h-21v-561h21z" />
    <glyph glyph-name="uni040A" unicode="&#x40a;" 
d="M44 1493h186v-612h395v612h186v-600h21q179 0 290 -107.5t111 -319.5q0 -162 -60.5 -265t-152.5 -152t-188 -49h-207v711h-395v-711h-186v1493zM832 166q90 0 152.5 70t62.5 208q0 132 -59.5 207.5t-155.5 75.5h-21v-561h21z" />
    <glyph glyph-name="uni0405" unicode="&#x405;" 
d="M586 -29q-110 0 -215 22.5t-213 67.5v215q222 -141 425 -141q153 0 237.5 67.5t84.5 202.5q0 101 -57.5 159t-204.5 93l-108 25q-210 48 -303 143.5t-93 251.5q0 135 61 234.5t171.5 154t259.5 54.5q171 0 381 -78v-205q-185 119 -372 119q-142 0 -225 -66t-83 -189
q0 -89 56 -143t202 -86l106 -24q212 -48 307 -155t95 -282q0 -215 -132 -327.5t-380 -112.5z" />
    <glyph glyph-name="uni0404" unicode="&#x404;" 
d="M733 -29q-287 0 -445.5 203t-158.5 569q0 368 159.5 572.5t444.5 204.5q176 0 330 -82v-207q-152 125 -339 125q-128 0 -205.5 -60t-117.5 -177t-56 -288h627v-170h-632q2 -151 45 -270t129 -187.5t217 -68.5q88 0 173 31.5t159 93.5v-207q-154 -82 -330 -82z" />
    <glyph glyph-name="uni042D" unicode="&#x42d;" 
d="M499 -29q-176 0 -330 82v207q75 -63 161 -94t171 -31q130 0 215.5 67t128.5 185.5t47 273.5h-632v170h627q-20 184 -61 300t-116.5 170.5t-199.5 54.5q-191 0 -341 -125v207q154 82 330 82q285 0 444.5 -204.5t159.5 -572.5q0 -366 -158.5 -569t-445.5 -203z" />
    <glyph glyph-name="uni0406" unicode="&#x406;" 
d="M201 170h313v1153h-313v170h829v-170h-313v-1153h313v-170h-829v170z" />
    <glyph glyph-name="uni0407" unicode="&#x407;" 
d="M349 1649q-30 0 -30 30v143q0 30 30 30h143q30 0 30 -30v-143q0 -30 -30 -30h-143zM741 1649q-30 0 -30 30v143q0 30 30 30h142q30 0 30 -30v-143q0 -30 -30 -30h-142zM201 170h313v1153h-313v170h829v-170h-313v-1153h313v-170h-829v170z" />
    <glyph glyph-name="uni0408" unicode="&#x408;" 
d="M506 -29q-100 0 -193 20.5t-204 69.5v236q92 -81 187.5 -121.5t207.5 -40.5q92 0 147 32t79 109t24 211v836h-381v170h583v-1006q0 -278 -104.5 -397t-345.5 -119z" />
    <glyph glyph-name="uni040B" unicode="&#x40b;" 
d="M180 1325h-216v170h864v-170h-445v-525q22 25 40.5 38.5t44.5 27.5q14 8 20.5 10t27.5 16q62 37 213 47q13 1 23.5 1.5t24.5 0.5q163 0 248 -84q9 -8 16 -16.5t9 -12.5q85 -112 85 -340v-488h-203v462q0 154 -54 223.5t-172 69.5q-50 0 -96 -11t-90 -31
q-23 -11 -38.5 -21.5t-29.5 -27.5q-33 -40 -51 -109.5t-18 -153.5v-401h-203v1325z" />
    <glyph glyph-name="uni042E" unicode="&#x42e;" 
d="M792 -29q-200 0 -294 178.5t-104 516.5h-111v-666h-203v1493h203v-657h111q10 323 103.5 503.5t295.5 180.5q400 0 400 -775q0 -391 -99.5 -582.5t-301.5 -191.5zM794 135q106 0 153 141q24 70 36 184t12 285t-12 285t-36 185q-23 69 -60 105t-94 36q-107 0 -154 -141
q-48 -141 -48 -470q0 -328 48 -469q47 -141 155 -141z" />
    <glyph glyph-name="uni0402" unicode="&#x402;" 
d="M658 -470q-22 0 -48 1t-34 1l-3 181l78 -17q7 -1 14 -1.5t22 -0.5q90 0 143.5 32t77.5 108.5t24 211.5v416q0 154 -54 223.5t-172 69.5q-50 0 -96 -11t-90 -31q-23 -11 -38.5 -21.5t-29.5 -27.5q-33 -40 -51 -109.5t-18 -153.5v-401h-203v1325h-226v170h874v-170h-445
v-525q22 25 40.5 38.5t44.5 27.5q14 8 20.5 10t27.5 16q62 37 213 47q13 1 23.5 1.5t24.5 0.5q163 0 248 -84q9 -8 16 -16.5t9 -12.5q85 -112 85 -340v-442q0 -190 -46.5 -303t-151.5 -163t-279 -50z" />
    <glyph glyph-name="uni0462" unicode="&#x462;" 
d="M293 1105h-261v164h261v224h202v-224h369v-164h-369v-212h138q508 0 508 -446q0 -447 -508 -447h-340v1105zM633 166q142 0 219.5 73t77.5 207t-78 207.5t-219 73.5h-138v-561h138z" />
    <glyph glyph-name="uni0472" unicode="&#x472;" 
d="M615 -29q-251 0 -374.5 190.5t-123.5 582.5t123.5 584t375.5 192q253 0 376.5 -192t123.5 -583q0 -774 -501 -774zM904 828q-8 264 -71.5 396t-216.5 132t-216 -132t-71 -396h575zM617 135q151 0 213.5 127t72.5 382h-573q8 -244 70 -376.5t217 -132.5z" />
    <glyph glyph-name="uni0492" unicode="&#x492;" 
d="M225 830h-130v170h130v493h924v-170h-721v-323h547v-170h-547v-830h-203v830z" />
    <glyph glyph-name="uni0494" unicode="&#x494;" 
d="M589 -240h62q134 0 189.5 75t55.5 269v290q0 317 -248 317h-270v-711h-203v1493h924v-170h-721v-442h311q188 0 299 -119q111 -118 111 -352v-306q0 -268 -103 -391t-331 -123h-76v170z" />
    <glyph glyph-name="uni0496" unicode="&#x496;" 
d="M1048 0h-27l-222 650l-89 -186v-464h-187v464l-89 186l-222 -650h-197l304 891l-287 602h207l284 -595v595h187v-595l284 595h207l-287 -602l246 -721h58v-492h-170v322z" />
    <glyph glyph-name="uni0498" unicode="&#x498;" 
d="M1079 410q0 -184 -112.5 -298t-318.5 -136q45 -54 66.5 -100t21.5 -96q0 -175 -240 -175q-86 0 -174 24v131q31 -17 70.5 -24.5t76.5 -7.5q128 0 128 90q0 28 -15 63t-53 90q-193 5 -392 74v201q103 -54 201 -79.5t194 -25.5q169 0 258 74.5t89 210.5t-89 212.5
t-241 76.5h-154v166h154q140 0 217.5 60.5t77.5 176.5q0 111 -73 171.5t-214 60.5q-76 0 -171.5 -19t-203.5 -61v186q121 32 215 48t172 16q142 0 249 -49.5t166.5 -139t59.5 -209.5q0 -254 -268 -323q148 -39 225.5 -138t77.5 -251z" />
    <glyph glyph-name="uni049A" unicode="&#x49a;" 
d="M1012 0h-31l-487 748l-154 -164v-584h-203v1493h203v-664l631 664h237l-581 -610l483 -713h114v-492h-212v322z" />
    <glyph glyph-name="uni04A2" unicode="&#x4a2;" 
d="M1020 0h-203v711h-553v-711h-203v1493h203v-612h553v612h203v-1323h213v-492h-213v322z" />
    <glyph glyph-name="uni04AA" unicode="&#x4aa;" 
d="M740 1356q-390 0 -390 -611q0 -610 390 -610q183 0 333 125v-207q-120 -64 -251 -78q45 -54 66 -99.5t21 -95.5q0 -175 -240 -175q-85 0 -174 24v131q31 -17 70.5 -24.5t76.5 -7.5q128 0 128 90q0 29 -15 64t-53 90q-268 14 -415.5 216t-147.5 555q0 367 159 572t447 205
q176 0 328 -82v-207q-73 60 -156.5 92.5t-176.5 32.5z" />
    <glyph glyph-name="uni04AC" unicode="&#x4ac;" 
d="M719 0h-203v1323h-469v170h1139v-170h-467v-1153h213v-492h-213v322z" />
    <glyph glyph-name="uni04AE" unicode="&#x4ae;" 
d="M514 670l-477 823h215l364 -659l363 659h217l-479 -823v-670h-203v670z" />
    <glyph glyph-name="uni04B0" unicode="&#x4b0;" 
d="M514 420h-264v170h264v80l-477 823h215l364 -659l363 659h217l-479 -823v-80h266v-170h-266v-420h-203v420z" />
    <glyph glyph-name="uni04B2" unicode="&#x4b2;" 
d="M1002 0h-5l-366 643l-395 -643h-218l500 791l-432 702h217l328 -563l334 563h217l-447 -702l377 -621h102v-492h-212v322z" />
    <glyph glyph-name="uni04BA" unicode="&#x4ba;" 
d="M160 1495h203v-683q35 38 85 66l48 26q38 20 98.5 32.5t114.5 14.5l48 2q85 0 146 -22.5t102 -61.5q9 -8 16 -16.5t9 -12.5q85 -112 85 -340v-500h-203v474q0 154 -54 223.5t-172 69.5q-50 0 -96 -11t-90 -31q-23 -11 -38.5 -21.5t-29.5 -27.5q-33 -40 -51 -109.5
t-18 -153.5v-413h-203v1495z" />
    <glyph glyph-name="uni04C0" unicode="&#x4c0;" 
d="M201 170h313v1153h-313v170h829v-170h-313v-1153h313v-170h-829v170z" />
    <glyph glyph-name="uni04C1" unicode="&#x4c1;" 
d="M616 1609q-290 0 -313 242h119q25 -111 194 -111q165 0 195 111h119q-23 -242 -314 -242zM319 891l-287 602h207l284 -595v595h187v-595l284 595h207l-287 -602l304 -891h-197l-222 650l-89 -186v-464h-187v464l-89 186l-222 -650h-197z" />
    <glyph glyph-name="uni04C3" unicode="&#x4c3;" 
d="M551 -240h62q134 0 189.5 75t55.5 269v290q0 317 -248 317h-151l-119 -127v-584h-203v1493h203v-664l631 664h237l-581 -612h24q182 0 296 -116.5t114 -354.5v-306q0 -268 -103 -391t-331 -123h-76v170z" />
    <glyph glyph-name="uni04C7" unicode="&#x4c7;" 
d="M586 -240h62q134 0 189.5 75t55.5 269v607h-553v-711h-203v1493h203v-612h553v612h203v-1389q0 -270 -103 -392t-331 -122h-76v170z" />
    <glyph glyph-name="uni04CB" unicode="&#x4cb;" 
d="M669 170h213v548q-31 -36 -86 -66l-47 -26q-37 -20 -97.5 -32.5t-115.5 -14.5l-48 -2q-160 0 -248 84q-18 19 -26 29q-40 54 -62 136.5t-22 203.5v465h203v-439q0 -153 53 -223t168 -70q44 0 95 10t96 31q45 22 67 50q31 37 50.5 104t19.5 159v378h203v-1495h-203v-322
h-213v492z" />
    <glyph glyph-name="uni04D0" unicode="&#x4d0;" 
d="M616 1609q-290 0 -313 242h119q25 -111 196 -111q163 0 193 111h119q-23 -242 -314 -242zM494 1493h245l457 -1493h-209l-110 389h-523l-108 -389h-209zM829 551l-213 764l-213 -764h426z" />
    <glyph glyph-name="uni04D2" unicode="&#x4d2;" 
d="M349 1649q-30 0 -30 30v143q0 30 30 30h143q30 0 30 -30v-143q0 -30 -30 -30h-143zM741 1649q-30 0 -30 30v143q0 30 30 30h142q30 0 30 -30v-143q0 -30 -30 -30h-142zM494 1493h245l457 -1493h-209l-110 389h-523l-108 -389h-209zM829 551l-213 764l-213 -764h426z" />
    <glyph glyph-name="uni04D6" unicode="&#x4d6;" 
d="M634 1609q-290 0 -313 242h119q25 -111 196 -111q163 0 193 111h119q-23 -242 -314 -242zM197 1493h886v-170h-684v-442h654v-170h-654v-541h703v-170h-905v1493z" />
    <glyph glyph-name="uni04D8" unicode="&#x4d8;" 
d="M615 -29q-252 0 -375 191t-123 583v83h787v8q0 242 -68.5 381t-228.5 139q-76 0 -163 -33t-158 -92v207q78 42 160 62t165 20q256 0 380.5 -191t124.5 -583q0 -391 -123.5 -583t-377.5 -192zM621 135q147 0 209.5 127.5t72.5 381.5h-571q0 -249 70 -379t219 -130z" />
    <glyph glyph-name="uni04DA" unicode="&#x4da;" 
d="M349 1649q-30 0 -30 30v143q0 30 30 30h143q30 0 30 -30v-143q0 -30 -30 -30h-143zM741 1649q-30 0 -30 30v143q0 30 30 30h142q30 0 30 -30v-143q0 -30 -30 -30h-142zM615 -29q-252 0 -375 191t-123 583v83h787v8q0 242 -68.5 381t-228.5 139q-76 0 -163 -33t-158 -92
v207q78 42 160 62t165 20q256 0 380.5 -191t124.5 -583q0 -391 -123.5 -583t-377.5 -192zM621 135q147 0 209.5 127.5t72.5 381.5h-571q0 -249 70 -379t219 -130z" />
    <glyph glyph-name="uni04DC" unicode="&#x4dc;" 
d="M349 1649q-30 0 -30 30v143q0 30 30 30h143q30 0 30 -30v-143q0 -30 -30 -30h-143zM741 1649q-30 0 -30 30v143q0 30 30 30h142q30 0 30 -30v-143q0 -30 -30 -30h-142zM319 891l-287 602h207l284 -595v595h187v-595l284 595h207l-287 -602l304 -891h-197l-222 650
l-89 -186v-464h-187v464l-89 186l-222 -650h-197z" />
    <glyph glyph-name="uni04DE" unicode="&#x4de;" 
d="M332 1649q-30 0 -30 30v143q0 30 30 30h143q30 0 30 -30v-143q0 -30 -30 -30h-143zM724 1649q-30 0 -30 30v143q0 30 30 30h142q30 0 30 -30v-143q0 -30 -30 -30h-142zM553 -29q-205 0 -416 74v201q103 -54 201 -79.5t194 -25.5q169 0 258 74.5t89 210.5t-89 212.5
t-241 76.5h-154v166h154q140 0 217.5 60.5t77.5 176.5q0 111 -73 171.5t-214 60.5q-76 0 -171.5 -19t-203.5 -61v186q121 32 215 48t172 16q142 0 249 -49.5t166.5 -139t59.5 -209.5q0 -254 -268 -323q148 -39 225.5 -138t77.5 -251q0 -205 -138.5 -322t-387.5 -117z" />
    <glyph glyph-name="uni04E0" unicode="&#x4e0;" 
d="M615 -28q-285 0 -437 121t-152 342h202q0 -144 99 -218.5t289 -74.5q191 0 290.5 74.5t99.5 215.5q0 138 -93 211t-257 73h-174v166l370 441h-738v170h970v-168l-376 -441q105 0 222 -52t196 -155q43 -57 61.5 -116.5t18.5 -131.5q0 -216 -153 -336.5t-438 -120.5z" />
    <glyph glyph-name="uni04E2" unicode="&#x4e2;" 
d="M317 1852h598v-148h-598v148zM139 1493h195v-1229l504 1229h256v-1493h-195v1229l-504 -1229h-256v1493z" />
    <glyph glyph-name="uni04E4" unicode="&#x4e4;" 
d="M349 1649q-30 0 -30 30v143q0 30 30 30h143q30 0 30 -30v-143q0 -30 -30 -30h-143zM741 1649q-30 0 -30 30v143q0 30 30 30h142q30 0 30 -30v-143q0 -30 -30 -30h-142zM139 1493h195v-1229l504 1229h256v-1493h-195v1229l-504 -1229h-256v1493z" />
    <glyph glyph-name="uni04E6" unicode="&#x4e6;" 
d="M349 1649q-30 0 -30 30v143q0 30 30 30h143q30 0 30 -30v-143q0 -30 -30 -30h-143zM741 1649q-30 0 -30 30v143q0 30 30 30h142q30 0 30 -30v-143q0 -30 -30 -30h-142zM615 -29q-251 0 -374.5 190.5t-123.5 582.5t123.5 584t375.5 192q253 0 376.5 -192t123.5 -583
q0 -774 -501 -774zM616 135q154 0 222 141q67 137 67 469t-67 470q-68 141 -222 141q-152 0 -220 -141q-68 -144 -68 -470q0 -325 68 -469q68 -141 220 -141z" />
    <glyph glyph-name="uni04E8" unicode="&#x4e8;" 
d="M615 -29q-251 0 -374.5 190.5t-123.5 582.5t123.5 584t375.5 192q253 0 376.5 -192t123.5 -583q0 -774 -501 -774zM902 881q-12 223 -72 349t-214 126q-104 0 -163.5 -58t-86.5 -165t-35 -252h571zM617 135q153 0 218.5 137.5t69.5 438.5h-577q2 -299 68.5 -437.5
t220.5 -138.5z" />
    <glyph glyph-name="uni04EA" unicode="&#x4ea;" 
d="M349 1649q-30 0 -30 30v143q0 30 30 30h143q30 0 30 -30v-143q0 -30 -30 -30h-143zM741 1649q-30 0 -30 30v143q0 30 30 30h142q30 0 30 -30v-143q0 -30 -30 -30h-142zM615 -29q-251 0 -374.5 190.5t-123.5 582.5t123.5 584t375.5 192q253 0 376.5 -192t123.5 -583
q0 -774 -501 -774zM902 881q-12 223 -72 349t-214 126q-104 0 -163.5 -58t-86.5 -165t-35 -252h571zM617 135q153 0 218.5 137.5t69.5 438.5h-577q2 -299 68.5 -437.5t220.5 -138.5z" />
    <glyph glyph-name="uni04EC" unicode="&#x4ec;" 
d="M336 1649q-30 0 -30 30v143q0 30 30 30h143q30 0 30 -30v-143q0 -30 -30 -30h-143zM728 1649q-30 0 -30 30v143q0 30 30 30h142q30 0 30 -30v-143q0 -30 -30 -30h-142zM509 -29q-176 0 -330 82v207q75 -63 161 -94t171 -31q130 0 215.5 67t128.5 185.5t47 273.5h-632v170
h627q-20 184 -61 300t-116.5 170.5t-199.5 54.5q-191 0 -341 -125v207q154 82 330 82q285 0 444.5 -204.5t159.5 -572.5q0 -366 -158.5 -569t-445.5 -203z" />
    <glyph glyph-name="uni04EE" unicode="&#x4ee;" 
d="M337 1852h598v-148h-598v148zM204 172h109q82 0 126.5 47t79.5 123q7 16 12.5 30.5l16.5 43.5l-424 1077h217l311 -830l308 830h213l-412 -1068q-30 -78 -62.5 -148t-65.5 -121q-46 -70 -112 -113t-169 -43h-148v172z" />
    <glyph glyph-name="uni04F0" unicode="&#x4f0;" 
d="M369 1649q-30 0 -30 30v143q0 30 30 30h143q30 0 30 -30v-143q0 -30 -30 -30h-143zM761 1649q-30 0 -30 30v143q0 30 30 30h142q30 0 30 -30v-143q0 -30 -30 -30h-142zM204 172h109q82 0 126.5 47t79.5 123q7 16 12.5 30.5l16.5 43.5l-424 1077h217l311 -830l308 830h213
l-412 -1068q-30 -78 -62.5 -148t-65.5 -121q-46 -70 -112 -113t-169 -43h-148v172z" />
    <glyph glyph-name="uni04F2" unicode="&#x4f2;" 
d="M561 1852h186l-229 -264h-154zM880 1852h186l-229 -264h-154zM204 172h109q82 0 126.5 47t79.5 123q7 16 12.5 30.5l16.5 43.5l-424 1077h217l311 -830l308 830h213l-412 -1068q-30 -78 -62.5 -148t-65.5 -121q-46 -70 -112 -113t-169 -43h-148v172z" />
    <glyph glyph-name="uni04F4" unicode="&#x4f4;" 
d="M339 1649q-30 0 -30 30v143q0 30 30 30h143q30 0 30 -30v-143q0 -30 -30 -30h-143zM731 1649q-30 0 -30 30v143q0 30 30 30h142q30 0 30 -30v-143q0 -30 -30 -30h-142zM879 658q-104 -52 -179.5 -66.5t-165.5 -14.5q-83 0 -156.5 13t-130 53t-88.5 120.5t-32 216.5v513
h203v-487q0 -112 26 -163.5t80.5 -65.5t140.5 -14q61 0 107.5 6t92 27t102.5 65v632h203v-1493h-203v658z" />
    <glyph glyph-name="uni04F6" unicode="&#x4f6;" 
d="M418 0h-203v1493h924v-170h-721v-1153h213v-492h-213v322z" />
    <glyph glyph-name="uni04F8" unicode="&#x4f8;" 
d="M366 1649q-30 0 -30 30v143q0 30 30 30h143q30 0 30 -30v-143q0 -30 -30 -30h-143zM758 1649q-30 0 -30 30v143q0 30 30 30h142q30 0 30 -30v-143q0 -30 -30 -30h-142zM82 1493h202v-600h91q129 0 231 -50.5t161 -149.5t59 -246t-59.5 -246.5t-161.5 -150t-230 -50.5
h-293v1493zM948 1493h203v-1493h-203v1493zM375 166q102 0 171 65t69 215q0 134 -60 207.5t-180 73.5h-91v-561h91z" />
    <glyph glyph-name="uni0510" unicode="&#x510;" 
d="M663 -29q-249 0 -387.5 117t-138.5 322q0 152 77.5 251t225.5 138q-268 69 -268 321q0 120 59.5 210t166.5 140t249 50q78 0 172 -16t215 -48v-186q-108 42 -203.5 61t-171.5 19q-141 0 -214 -60.5t-73 -171.5q0 -116 77.5 -176.5t217.5 -60.5h154v-166h-154
q-152 0 -241 -76.5t-89 -212.5t89 -210.5t258 -74.5q96 0 194 25.5t201 79.5v-201q-211 -74 -416 -74z" />
    <glyph glyph-name="uni051A" unicode="&#x51a;" 
d="M655 -27q-5 0 -20 -1t-18 -1q-249 -6 -376 192.5t-124 581.5q0 393 124 583q125 192 375 192q123 0 218 -46t159 -146q123 -192 123 -583q0 -292 -68 -473q-33 -88 -85 -152t-123 -100l362 -370h-236zM616 135q154 0 222 141q67 137 67 469t-67 470q-68 141 -222 141
q-152 0 -220 -141q-68 -144 -68 -470q0 -325 68 -469q68 -141 220 -141z" />
    <glyph glyph-name="uni051C" unicode="&#x51c;" 
d="M0 1493h197l143 -1212l170 802h211l172 -804l143 1214h197l-223 -1493h-191l-203 887l-202 -887h-191z" />
    <glyph glyph-name="uni0430" unicode="&#x430;" 
d="M513 -29q-175 0 -275 97q-48 46 -75 108.5t-27 150.5q0 185 126 283q124 97 368 97h247v29q0 133 -68 195q-66 60 -213 60q-95 0 -191 -27q-98 -27 -187 -79v184q42 16 93 32t103 27q89 19 183 19q137 0 237 -42q46 -20 87.5 -50.5t70.5 -70.5q21 -29 34 -61t20 -63
q16 -71 16 -221v-229q2 -58 3 -102t6 -82q5 -42 11.5 -79t11.5 -56q7 -31 16 -58.5t11 -32.5h-185q-13 30 -27 87q-5 22 -9.5 44.5t-6.5 38.5q-29 -50 -74.5 -89t-89.5 -62q-93 -48 -216 -48zM551 125q151 0 238 106q88 107 88 291v41h-233q-159 0 -242 -56
q-82 -56 -82 -170q0 -100 61 -156q29 -26 70.5 -41t99.5 -15z" />
    <glyph glyph-name="uni0431" unicode="&#x431;" 
d="M617 -29q-232 0 -356 147t-124 414q0 28 0.5 39.5t0.5 22.5v11.5t-1 15.5l-7 167q-2 56 -3.5 100.5t-1.5 65.5q0 28 2 50q11 95 45 190t99 174.5t169 128.5q86 41 189 54.5t224 21.5q26 2 44 4.5t42 13.5l70 -142q-19 -8 -40.5 -12t-45.5 -6l-240 -24q-44 -5 -86 -17
t-86 -35q-91 -48 -149.5 -124t-68.5 -147l-8 -60q63 65 150.5 94t184.5 29q230 0 353 -150.5t123 -438.5q0 -286 -123.5 -436.5t-355.5 -150.5zM618 127q283 0 283 432t-284 432q-285 0 -285 -430q0 -434 286 -434z" />
    <glyph glyph-name="uni0432" unicode="&#x432;" 
d="M239 1120h397q102 0 186 -31t134 -93.5t50 -158.5q0 -89 -48 -157t-146 -80q134 -24 188 -93.5t54 -177.5q0 -162 -103.5 -245.5t-298.5 -83.5h-413v1120zM651 665q85 0 127 42.5t42 109.5t-42 110t-128 43h-227v-305h228zM662 150q95 0 145.5 55.5t50.5 141.5
q0 75 -43.5 121.5t-148.5 46.5h-243v-365h239z" />
    <glyph glyph-name="uni0433" unicode="&#x433;" 
d="M307 1120h752v-150h-568v-970h-184v1120z" />
    <glyph glyph-name="uni0453" unicode="&#x453;" 
d="M887 1645h198l-325 -376h-154zM307 1120h752v-150h-568v-970h-184v1120z" />
    <glyph glyph-name="uni0491" unicode="&#x491;" 
d="M317 1120h568v314h185l-1 -498h-568v-936h-184v1120z" />
    <glyph glyph-name="uni0434" unicode="&#x434;" 
d="M105 150h67q22 0 37 44t25 113t15.5 145.5t7.5 144t2 107.5v416h748v-970h121v-436h-150v286h-723v-286h-150v436zM822 150v820h-380v-270q0 -30 -4.5 -119.5t-14.5 -227.5q-11 -146 -16 -160q-7 -17 -7 -27q0 -8 6 -12t28 -4h388z" />
    <glyph glyph-name="uni0435" unicode="&#x435;" 
d="M677 -29q-260 0 -406.5 157t-146.5 427q0 181 65 313.5t182.5 205.5t273.5 73q222 0 345 -145t123 -396v-90h-797v-6q0 -183 96 -283t268 -100q174 0 390 113v-183q-106 -43 -202.5 -64.5t-190.5 -21.5zM929 660q-3 157 -74.5 244t-207.5 87t-221.5 -86.5t-102.5 -245.5z
" />
    <glyph glyph-name="uni0450" unicode="&#x450;" 
d="M250 1673h198l281 -376h-154zM677 -29q-260 0 -406.5 157t-146.5 427q0 181 65 313.5t182.5 205.5t273.5 73q222 0 345 -145t123 -396v-90h-797v-6q0 -183 96 -283t268 -100q174 0 390 113v-183q-106 -43 -202.5 -64.5t-190.5 -21.5zM929 660q-3 157 -74.5 244t-207.5 87
t-221.5 -86.5t-102.5 -245.5z" />
    <glyph glyph-name="uni0451" unicode="&#x451;" 
d="M385 1347q-30 0 -30 30v142q0 30 30 30h143q30 0 30 -30v-142q0 -30 -30 -30h-143zM777 1347q-30 0 -30 30v142q0 30 30 30h142q30 0 30 -30v-142q0 -30 -30 -30h-142zM677 -29q-260 0 -406.5 157t-146.5 427q0 181 65 313.5t182.5 205.5t273.5 73q222 0 345 -145
t123 -396v-90h-797v-6q0 -183 96 -283t268 -100q174 0 390 113v-183q-106 -43 -202.5 -64.5t-190.5 -21.5zM929 660q-3 157 -74.5 244t-207.5 87t-221.5 -86.5t-102.5 -245.5z" />
    <glyph glyph-name="uni0436" unicode="&#x436;" 
d="M318 716l-239 404h199l255 -432v432h168v-432l255 432h199l-239 -404l259 -716h-179l-191 528l-104 -177v-351h-168v351l-104 177l-191 -528h-179z" />
    <glyph glyph-name="uni0437" unicode="&#x437;" 
d="M539 -22q-173 0 -370 56v173q155 -69 357 -69q175 0 265 52.5t90 143.5q0 90 -85 144t-234 54h-158v144h165q137 0 208.5 43t71.5 111q0 69 -74.5 111.5t-216.5 42.5q-71 0 -157 -12.5t-191 -39.5v167q210 48 367 48q210 0 332.5 -78.5t122.5 -212.5q0 -96 -64.5 -160
t-184.5 -89q128 -24 204.5 -95.5t76.5 -190.5q0 -158 -138 -250.5t-387 -92.5z" />
    <glyph glyph-name="uni0438" unicode="&#x438;" 
d="M195 1120h184v-809l487 809h184v-1120h-184v809l-487 -809h-184v1120z" />
    <glyph glyph-name="uni0439" unicode="&#x439;" 
d="M616 1272q-290 0 -313 287h119q11 -72 56.5 -111t136.5 -39q168 0 196 150h119q-23 -287 -314 -287zM195 1120h184v-809l487 809h184v-1120h-184v809l-487 -809h-184v1120z" />
    <glyph glyph-name="uni045D" unicode="&#x45d;" 
d="M343 1647h198l281 -376h-154zM195 1120h184v-809l487 809h184v-1120h-184v809l-487 -809h-184v1120z" />
    <glyph glyph-name="uni043A" unicode="&#x43a;" 
d="M236 1120h190v-465l483 465h224l-441 -422l510 -698h-225l-414 578l-137 -129v-449h-190v1120z" />
    <glyph glyph-name="uni045C" unicode="&#x45c;" 
d="M804 1647h198l-325 -376h-154zM236 1120h190v-465l483 465h224l-441 -422l510 -698h-225l-414 578l-137 -129v-449h-190v1120z" />
    <glyph glyph-name="uni043B" unicode="&#x43b;" 
d="M50 150h35q90 0 134 61t56 197q4 52 7 139t3 175v398h785v-1120h-184v970h-417v-245q0 -107 -4.5 -219.5t-25.5 -214t-72 -174.5q-41 -58 -102.5 -87.5t-159.5 -29.5h-55v150z" />
    <glyph glyph-name="uni043C" unicode="&#x43c;" 
d="M61 1120h184l375 -691l375 691h184v-1120h-184v741l-283 -481h-184l-283 481v-741h-184v1120z" />
    <glyph glyph-name="uni043D" unicode="&#x43d;" 
d="M189 1120h184v-455h487v455h184v-1120h-184v515h-487v-515h-184v1120z" />
    <glyph glyph-name="uni043E" unicode="&#x43e;" 
d="M616 -29q-235 0 -357 149.5t-122 437.5q0 286 123 437.5t356 151.5t356.5 -151.5t123.5 -437.5t-123 -436.5t-357 -150.5zM616 127q285 0 285 432t-285 432q-284 0 -284 -432t284 -432z" />
    <glyph glyph-name="uni043F" unicode="&#x43f;" 
d="M189 1120h855v-1120h-184v970h-487v-970h-184v1120z" />
    <glyph glyph-name="uni0440" unicode="&#x440;" 
d="M190 1120h167l18 -143q95 170 302 170q199 0 315 -157t116 -432t-116 -431t-316 -156q-210 0 -301 170v-567h-185v1546zM647 127q268 0 268 432t-268 432q-272 0 -272 -432t272 -432z" />
    <glyph glyph-name="uni0441" unicode="&#x441;" 
d="M712 -29q-257 0 -402 156q-146 157 -146 432q0 143 38.5 251t108.5 182q148 155 402 155q91 0 162 -21q73 -20 155 -65v-193q-76 67 -146 94q-76 29 -166 29q-174 0 -267 -112q-93 -113 -93 -319q0 -96 21.5 -178t71.5 -142q95 -113 270 -113q50 0 91.5 8t76.5 22
q45 17 77.5 39.5t63.5 51.5v-191q-34 -20 -74 -37t-78 -28q-35 -10 -76.5 -15.5t-89.5 -5.5z" />
    <glyph glyph-name="uni0442" unicode="&#x442;" 
d="M525 970h-311v150h806v-150h-311v-970h-184v970z" />
    <glyph glyph-name="uni0443" unicode="&#x443;" 
d="M194 -272h109q45 0 76 13.5t51 33.5q22 23 49.5 79t67.5 164l-433 1102h195l332 -876l327 876h195l-295 -760l-42 -108t-22.5 -59t-19 -53t-33.5 -88q-52 -138 -81 -210t-53 -112q-44 -75 -109.5 -115.5t-165.5 -40.5h-148v154z" />
    <glyph glyph-name="uni045E" unicode="&#x45e;" 
d="M626 1270q-290 0 -313 287h119q11 -72 56.5 -111t136.5 -39q168 0 196 150h119q-23 -287 -314 -287zM194 -272h109q45 0 76 13.5t51 33.5q22 23 49.5 79t67.5 164l-433 1102h195l332 -876l327 876h195l-295 -760l-42 -108t-22.5 -59t-19 -53t-33.5 -88q-52 -138 -81 -210
t-53 -112q-44 -75 -109.5 -115.5t-165.5 -40.5h-148v154z" />
    <glyph glyph-name="uni0444" unicode="&#x444;" 
d="M525 -29q-147 15 -240 77t-137 187t-44 325q0 198 43.5 322.5t136.5 187t241 77.5v409h184v-409q148 -15 241 -77.5t136.5 -187t43.5 -322.5q0 -200 -44 -325t-137 -187t-240 -77v-397h-184v397zM525 982q-80 -16 -130 -52.5t-73 -122t-23 -248.5t23 -251t73 -126.5
t130 -54.5v855zM709 127q80 16 130 54.5t73 126.5t23 251t-23 248.5t-73 122t-130 52.5v-855z" />
    <glyph glyph-name="uni0445" unicode="&#x445;" 
d="M516 584l-401 536h204l297 -405l295 405h207l-401 -536l440 -584h-213l-328 449l-327 -449h-213z" />
    <glyph glyph-name="uni0447" unicode="&#x447;" 
d="M837 466q-11 -4 -51 -19.5t-105 -30t-150 -14.5q-169 0 -267.5 81.5t-98.5 271.5v367h184v-367q0 -86 33.5 -127t88.5 -53.5t119 -12.5q69 0 127 11.5t120 47.5v501h184v-1122h-184v466z" />
    <glyph glyph-name="uni0446" unicode="&#x446;" 
d="M1028 0h-844v1120h184v-970h486v970h184v-970h140v-436h-150v286z" />
    <glyph glyph-name="uni0448" unicode="&#x448;" 
d="M125 1120h168v-970h240v970h168v-970h240v970h168v-1120h-984v1120z" />
    <glyph glyph-name="uni0449" unicode="&#x449;" 
d="M1083 0h-978v1120h168v-970h240v970h168v-970h240v970h168v-970h144v-436h-150v286z" />
    <glyph glyph-name="uni045F" unicode="&#x45f;" 
d="M541 0h-352v1120h184v-970h487v970h184v-1120h-352v-286h-151v286z" />
    <glyph glyph-name="uni044F" unicode="&#x44f;" 
d="M450 479q-25 10 -62.5 30t-74 56t-61.5 92t-25 138q0 115 51 186.5t135 105t184 33.5h397v-1120h-184v455h-193l-258 -455h-181zM810 605v365h-227q-37 0 -76.5 -19t-66.5 -59t-27 -105q0 -64 27 -104t66.5 -59t75.5 -19h228z" />
    <glyph glyph-name="uni044C" unicode="&#x44c;" 
d="M225 1120h184v-453h256q208 0 326.5 -83t118.5 -254q0 -166 -115.5 -248t-329.5 -82h-440v1120zM657 153q257 0 257 180q0 181 -257 181h-248v-361h248z" />
    <glyph glyph-name="uni044A" unicode="&#x44a;" 
d="M308 970h-248v150h432v-453h256q209 0 327.5 -83t118.5 -253q0 -167 -116 -249t-330 -82h-440v970zM740 156q124 0 191 43.5t67 133.5q0 91 -68 136t-190 45h-248v-358h248z" />
    <glyph glyph-name="uni044B" unicode="&#x44b;" 
d="M104 1120h182v-453h91q209 0 327.5 -83t118.5 -253q0 -167 -116 -249t-330 -82h-273v1120zM945 1120h184v-1120h-184v1120zM369 154q124 0 191 44t67 135q0 92 -68 137.5t-190 45.5h-83v-362h83z" />
    <glyph glyph-name="uni0459" unicode="&#x459;" 
d="M16 150h35q90 0 134 61t56 197q4 52 7 139t3 175v398h565v-453h21q106 0 196 -36.5t145 -111.5t55 -188q0 -111 -53.5 -184.5t-143.5 -110t-199 -36.5h-189v970h-229v-314q0 -78 -6 -180t-29 -201.5t-74 -169.5q-34 -45 -89.5 -75t-165.5 -30h-39v150zM829 153
q208 0 208 181q0 180 -208 180h-13v-361h13z" />
    <glyph glyph-name="uni045A" unicode="&#x45a;" 
d="M106 1120h168v-455h364v455h168v-453h21q106 0 196 -36.5t145 -111.5t55 -188q0 -111 -53.5 -184.5t-143.5 -110t-199 -36.5h-189v515h-364v-515h-168v1120zM819 153q208 0 208 181q0 180 -208 180h-13v-361h13z" />
    <glyph glyph-name="uni0455" unicode="&#x455;" 
d="M587 -29q-87 0 -177.5 17.5t-196.5 52.5v190q205 -106 375 -106q122 0 189 50t67 130q0 68 -56 112.5t-189 72.5l-8 2l-69 14q-164 32 -234.5 106.5t-70.5 197.5q0 163 108 250t314 87q173 0 334 -66v-180q-81 46 -159.5 69t-168.5 23q-242 0 -242 -165q0 -75 46 -111
q26 -20 83.5 -37.5t145.5 -34.5l74 -14q278 -53 278 -307q0 -166 -118 -259.5t-325 -93.5z" />
    <glyph glyph-name="uni0454" unicode="&#x454;" 
d="M711 -29q-168 0 -290.5 70.5t-189 202t-66.5 315.5q0 276 146.5 432t400.5 156q84 0 160 -20t159 -66v-193q-68 61 -141 92t-168 31q-121 0 -195 -46t-112 -121.5t-50 -164.5l537 1v-144h-542q10 -175 96.5 -282t266.5 -107q182 0 308 121v-191q-81 -46 -158 -66
t-162 -20z" />
    <glyph glyph-name="uni044D" unicode="&#x44d;" 
d="M545 -29q-85 0 -162 20t-158 66v191q126 -121 308 -121q180 0 266.5 107t96.5 282h-542v144h537q-12 88 -50 163.5t-112.5 121.5t-194.5 46q-91 0 -165 -30t-144 -93v193q82 46 158.5 66t160.5 20q254 0 400.5 -156t146.5 -432q0 -184 -66.5 -315.5t-189 -202
t-290.5 -70.5z" />
    <glyph glyph-name="uni0456" unicode="&#x456;" 
d="M495 1323q-32 0 -32 30v173q0 30 32 30h130q32 0 32 -30v-173q0 -30 -32 -30h-130zM657 398q0 -126 46 -187q46 -63 134 -63h215v-156h-233q-80 0 -143.5 25t-111.5 81q-91 106 -91 300v578h-245v144h429v-722z" />
    <glyph glyph-name="uni0457" unicode="&#x457;" 
d="M258 1321q-30 0 -30 30v142q0 30 30 30h143q30 0 30 -30v-142q0 -30 -30 -30h-143zM650 1321q-30 0 -30 30v142q0 30 30 30h142q30 0 30 -30v-142q0 -30 -30 -30h-142zM657 398q0 -126 46 -187q46 -63 134 -63h215v-156h-233q-80 0 -143.5 25t-111.5 81q-91 106 -91 300
v578h-245v144h429v-722z" />
    <glyph glyph-name="uni0458" unicode="&#x458;" 
d="M674 1323q-32 0 -32 30v173q0 30 32 30h130q32 0 32 -30v-173q0 -30 -32 -30h-130zM238 -270h234q180 0 180 250v997h-317v143h501v-1140q0 -196 -89 -301t-255 -105h-254v156z" />
    <glyph glyph-name="uni045B" unicode="&#x45b;" 
d="M255 977h-190v143h190v436h184v-436h448v-143h-448v-397q98 195 332 195q340 0 340 -453v-322h-185v322q0 151 -52.5 222t-165.5 71q-131 0 -200 -91t-69 -263v-261h-184v977z" />
    <glyph glyph-name="uni044E" unicode="&#x44e;" 
d="M828 -29q-156 0 -262 137t-122 376h-142v-484h-184v1120h184v-486h142q16 254 122 383.5t258 129.5q106 0 193.5 -64.5t139 -195t51.5 -329.5q0 -204 -53 -333.5t-140 -191.5t-187 -62zM689 243q53 -117 136 -117q39 0 75.5 31.5t62.5 94.5q23 57 36.5 139t13.5 183
q0 198 -56 308q-53 108 -130 108q-79 0 -135 -122q-27 -60 -41.5 -139.5t-14.5 -177.5t14 -176t39 -132z" />
    <glyph glyph-name="uni0452" unicode="&#x452;" 
d="M661 -261q80 15 147 84t107 190t40 291q0 152 -46.5 231.5t-177.5 79.5q-144 0 -213 -91t-69 -263v-261h-184v977h-190v143h190v436h184v-436h448v-143h-448v-397q98 195 339 195q186 0 273 -119t87 -360q0 -292 -123 -485t-364 -237v165z" />
    <glyph glyph-name="uni0463" unicode="&#x463;" 
d="M298 973h-248v147h248v436h184v-436h425v-147h-425v-306h256q209 0 327.5 -83t118.5 -253q0 -167 -116 -249t-330 -82h-440v973zM730 156q124 0 191 43.5t67 133.5q0 91 -68 136t-190 45h-248v-358h248z" />
    <glyph glyph-name="uni0473" unicode="&#x473;" 
d="M616 -29q-233 0 -356 150.5t-123 438.5q0 284 123 436q60 73 147 112t208 39q235 0 358 -151t123 -437q0 -288 -122.5 -438t-357.5 -150zM900 611q-8 176 -75.5 278t-208.5 102q-140 0 -207.5 -102t-75.5 -278h567zM616 127q94 0 152 43t88 115.5t39 161.5h-557
q10 -89 39.5 -161.5t87 -115.5t151.5 -43z" />
    <glyph glyph-name="uni0493" unicode="&#x493;" 
d="M317 500h-130v170h130v450h752v-184h-568v-266h416v-170h-416v-500h-184v500z" />
    <glyph glyph-name="uni0495" unicode="&#x495;" 
d="M539 -270h172q73 0 112.5 21.5t54 76t14.5 152.5v264q0 114 -18 165t-66 64.5t-137 13.5h-260v-487h-184v1120h752v-184h-568v-305h250q131 0 212.5 -17t125.5 -59t60.5 -116.5t16.5 -188.5v-270q0 -213 -82 -309.5t-262 -96.5h-193v156z" />
    <glyph glyph-name="uni0497" unicode="&#x497;" 
d="M1048 0h-52l-191 528l-104 -177v-351h-168v351l-104 177l-191 -528h-179l259 716l-239 404h199l255 -432v432h168v-432l255 432h199l-239 -404l205 -566h77v-436h-150v286z" />
    <glyph glyph-name="uni0499" unicode="&#x499;" 
d="M1064 321q0 -139 -108.5 -228.5t-307.5 -109.5q48 -57 71 -104.5t23 -98.5q0 -175 -240 -175q-86 0 -174 24v131q31 -17 70.5 -24.5t76.5 -7.5q128 0 128 90q0 29 -15.5 65.5t-56.5 94.5q-87 1 -174.5 14t-187.5 42v173q155 -69 357 -69q175 0 265 52.5t90 143.5
q0 90 -85 144t-234 54h-158v144h165q137 0 208.5 43t71.5 111q0 69 -74.5 111.5t-216.5 42.5q-71 0 -157 -12.5t-191 -39.5v167q210 48 367 48q210 0 332.5 -78.5t122.5 -212.5q0 -96 -64.5 -160t-184.5 -89q128 -24 204.5 -95.5t76.5 -190.5z" />
    <glyph glyph-name="uni049B" unicode="&#x49b;" 
d="M986 0h-29l-414 578l-137 -129v-449h-190v1120h190v-465l483 465h224l-441 -422l376 -514h134v-470h-196v286z" />
    <glyph glyph-name="uni04A3" unicode="&#x4a3;" 
d="M1038 0h-184v505h-487v-505h-184v1120h184v-445h487v445h184v-936h195v-470h-195v286z" />
    <glyph glyph-name="uni04AB" unicode="&#x4ab;" 
d="M723 991q-179 0 -271.5 -112t-92.5 -319q0 -209 93 -321t272 -112q88 0 164.5 29t142.5 92v-191q-60 -35 -118 -54t-118 -27q45 -54 66.5 -100t21.5 -96q0 -175 -240 -175q-85 0 -174 24v131q31 -17 70.5 -24.5t76.5 -7.5q128 0 128 90q0 28 -15 63t-53 91
q-237 12 -374 166t-137 421q0 276 146.5 432t400.5 156q84 0 160 -20t159 -66v-193q-137 123 -308 123z" />
    <glyph glyph-name="uni04AD" unicode="&#x4ad;" 
d="M709 0h-184v942h-311v178h806v-178h-311v-758h195v-470h-195v286z" />
    <glyph glyph-name="uni04AF" unicode="&#x4af;" 
d="M520 18l-428 1102h195l329 -876l329 876h195l-428 -1102v-444h-192v444z" />
    <glyph glyph-name="uni04B1" unicode="&#x4b1;" 
d="M520 -185h-200v150h200v53l-428 1102h195l329 -876l329 876h195l-428 -1102v-53h200v-150h-200v-241h-192v241z" />
    <glyph glyph-name="uni04B3" unicode="&#x4b3;" 
d="M982 0h-18l-328 449l-327 -449h-213l440 584l-401 536h204l297 -405l295 405h207l-401 -536l301 -400h140v-470h-196v286z" />
    <glyph glyph-name="uni04BB" unicode="&#x4bb;" 
d="M195 1556h184v-604q98 195 332 195q340 0 340 -453v-694h-185v694q0 151 -52.5 222t-165.5 71q-131 0 -200 -91t-69 -263v-633h-184v1556z" />
    <glyph glyph-name="uni04CF" unicode="&#x4cf;" 
d="M455 1567h184v-1567h-184v1567z" />
    <glyph glyph-name="uni04C2" unicode="&#x4c2;" 
d="M616 1321q-290 0 -313 287h119q22 -150 194 -150q166 0 195 150h119q-23 -287 -314 -287zM318 716l-239 404h199l255 -432v432h168v-432l255 432h199l-239 -404l259 -716h-179l-191 528l-104 -177v-351h-168v351l-104 177l-191 -528h-179z" />
    <glyph glyph-name="uni04C4" unicode="&#x4c4;" 
d="M534 -270h172q74 0 113 21.5t53.5 76t14.5 152.5v264q0 114 -18 165t-65.5 64.5t-137.5 13.5h-221l-39 -38v-449h-190v1120h190v-465l483 465h224l-515 -489h58q130 0 212 -17t126 -59t60.5 -116.5t16.5 -188.5v-270q0 -213 -82 -309.5t-262 -96.5h-193v156z" />
    <glyph glyph-name="uni04C8" unicode="&#x4c8;" 
d="M523 -270h172q73 0 112.5 21.5t54 76t14.5 152.5v525h-487v-505h-184v1120h184v-445h487v445h184v-1140q0 -213 -82 -309.5t-262 -96.5h-193v156z" />
    <glyph glyph-name="uni04CC" unicode="&#x4cc;" 
d="M652 184h195v382q-27 -51 -87 -87q1 1 -7 -4t-39 -23q-86 -50 -198 -50q-341 0 -341 453v267h185v-267q0 -151 52.5 -222t165.5 -71q131 0 200 91t69 263v206h184v-1122h-184v-286h-195v470z" />
    <glyph glyph-name="uni04D1" unicode="&#x4d1;" 
d="M616 1298q-290 0 -313 287h119q11 -72 56.5 -111t136.5 -39q168 0 196 150h119q-23 -287 -314 -287zM520 -29q-175 0 -275 97q-48 46 -75 108.5t-27 150.5q0 185 126 283q124 97 368 97h247v29q0 133 -68 195q-66 60 -213 60q-95 0 -191 -27q-98 -27 -187 -79v184
q42 16 93 32t103 27q89 19 183 19q136 0 237 -42q46 -20 87.5 -50.5t70.5 -70.5q21 -29 34 -61t20 -63q16 -71 16 -221v-229q2 -58 3 -102t6 -82q5 -42 11.5 -79t11.5 -56q7 -31 16 -58.5t11 -32.5h-185q-13 30 -27 87q-5 22 -9.5 44.5t-6.5 38.5q-29 -50 -74.5 -89
t-89.5 -62q-93 -48 -216 -48zM558 125q151 0 238 106q88 107 88 291v41h-233q-159 0 -242 -56q-82 -56 -82 -170q0 -100 61 -156q29 -26 70.5 -41t99.5 -15z" />
    <glyph glyph-name="uni04D3" unicode="&#x4d3;" 
d="M349 1350q-30 0 -30 30v142q0 30 30 30h143q30 0 30 -30v-142q0 -30 -30 -30h-143zM741 1350q-30 0 -30 30v142q0 30 30 30h142q30 0 30 -30v-142q0 -30 -30 -30h-142zM520 -29q-175 0 -275 97q-48 46 -75 108.5t-27 150.5q0 185 126 283q124 97 368 97h247v29
q0 133 -68 195q-66 60 -213 60q-95 0 -191 -27q-98 -27 -187 -79v184q42 16 93 32t103 27q89 19 183 19q136 0 237 -42q46 -20 87.5 -50.5t70.5 -70.5q21 -29 34 -61t20 -63q16 -71 16 -221v-229q2 -58 3 -102t6 -82q5 -42 11.5 -79t11.5 -56q7 -31 16 -58.5t11 -32.5h-185
q-13 30 -27 87q-5 22 -9.5 44.5t-6.5 38.5q-29 -50 -74.5 -89t-89.5 -62q-93 -48 -216 -48zM558 125q151 0 238 106q88 107 88 291v41h-233q-159 0 -242 -56q-82 -56 -82 -170q0 -100 61 -156q29 -26 70.5 -41t99.5 -15z" />
    <glyph glyph-name="uni04D7" unicode="&#x4d7;" 
d="M631 1298q-290 0 -313 287h119q11 -72 56.5 -111t136.5 -39q168 0 196 150h119q-23 -287 -314 -287zM677 -29q-260 0 -406.5 157t-146.5 427q0 181 65 313.5t182.5 205.5t273.5 73q222 0 345 -145t123 -396v-90h-797v-6q0 -183 96 -283t268 -100q174 0 390 113v-183
q-106 -43 -202.5 -64.5t-190.5 -21.5zM929 660q-3 157 -74.5 244t-207.5 87t-221.5 -86.5t-102.5 -245.5z" />
    <glyph glyph-name="uni04D9" unicode="&#x4d9;" 
d="M610 -29q-222 0 -345 145t-123 396v90h797v6q0 183 -95.5 283t-268.5 100q-174 0 -390 -113v183q106 43 202.5 64.5t190.5 21.5q173 0 297 -71t190 -202t66 -311q0 -181 -65.5 -313.5t-182.5 -205.5t-273 -73zM608 127q136 0 221.5 86.5t102.5 245.5h-606
q0 -163 75 -247.5t207 -84.5z" />
    <glyph glyph-name="uni04DB" unicode="&#x4db;" 
d="M369 1350q-30 0 -30 30v142q0 30 30 30h143q30 0 30 -30v-142q0 -30 -30 -30h-143zM761 1350q-30 0 -30 30v142q0 30 30 30h142q30 0 30 -30v-142q0 -30 -30 -30h-142zM610 -29q-222 0 -345 145t-123 396v90h797v6q0 183 -95.5 283t-268.5 100q-174 0 -390 -113v183
q106 43 202.5 64.5t190.5 21.5q173 0 297 -71t190 -202t66 -311q0 -181 -65.5 -313.5t-182.5 -205.5t-273 -73zM608 127q136 0 221.5 86.5t102.5 245.5h-606q0 -163 75 -247.5t207 -84.5z" />
    <glyph glyph-name="uni04DD" unicode="&#x4dd;" 
d="M349 1321q-30 0 -30 30v142q0 30 30 30h143q30 0 30 -30v-142q0 -30 -30 -30h-143zM741 1321q-30 0 -30 30v142q0 30 30 30h142q30 0 30 -30v-142q0 -30 -30 -30h-142zM318 716l-239 404h199l255 -432v432h168v-432l255 432h199l-239 -404l259 -716h-179l-191 528
l-104 -177v-351h-168v351l-104 177l-191 -528h-179z" />
    <glyph glyph-name="uni04DF" unicode="&#x4df;" 
d="M334 1350q-30 0 -30 30v142q0 30 30 30h143q30 0 30 -30v-142q0 -30 -30 -30h-143zM726 1350q-30 0 -30 30v142q0 30 30 30h142q30 0 30 -30v-142q0 -30 -30 -30h-142zM539 -22q-173 0 -370 56v173q155 -69 357 -69q175 0 265 52.5t90 143.5q0 90 -85 144t-234 54h-158
v144h165q137 0 208.5 43t71.5 111q0 69 -74.5 111.5t-216.5 42.5q-71 0 -157 -12.5t-191 -39.5v167q210 48 367 48q210 0 332.5 -78.5t122.5 -212.5q0 -96 -64.5 -160t-184.5 -89q128 -24 204.5 -95.5t76.5 -190.5q0 -158 -138 -250.5t-387 -92.5z" />
    <glyph glyph-name="uni04E1" unicode="&#x4e1;" 
d="M551 -436q-97 0 -195 17t-211 57v195q172 -99 393 -99q191 0 290 75t99 215q0 136 -93 210t-257 74h-174v166l430 499h-667v147h874v-168l-411 -476q97 0 214.5 -47.5t203.5 -159.5q81 -106 81 -247q0 -218 -153.5 -338t-423.5 -120z" />
    <glyph glyph-name="uni04E3" unicode="&#x4e3;" 
d="M317 1468h598v-148h-598v148zM195 1120h184v-809l487 809h184v-1120h-184v809l-487 -809h-184v1120z" />
    <glyph glyph-name="uni04E5" unicode="&#x4e5;" 
d="M349 1322q-30 0 -30 30v142q0 30 30 30h143q30 0 30 -30v-142q0 -30 -30 -30h-143zM741 1322q-30 0 -30 30v142q0 30 30 30h142q30 0 30 -30v-142q0 -30 -30 -30h-142zM195 1120h184v-809l487 809h184v-1120h-184v809l-487 -809h-184v1120z" />
    <glyph glyph-name="uni04E7" unicode="&#x4e7;" 
d="M349 1350q-30 0 -30 30v142q0 30 30 30h143q30 0 30 -30v-142q0 -30 -30 -30h-143zM741 1350q-30 0 -30 30v142q0 30 30 30h142q30 0 30 -30v-142q0 -30 -30 -30h-142zM616 -29q-235 0 -357 149.5t-122 437.5q0 286 123 437.5t356 151.5t356.5 -151.5t123.5 -437.5
t-123 -436.5t-357 -150.5zM616 127q285 0 285 432t-285 432q-284 0 -284 -432t284 -432z" />
    <glyph glyph-name="uni04E9" unicode="&#x4e9;" 
d="M616 -29q-233 0 -356 150.5t-123 438.5q0 284 123 436q60 73 147 112t208 39q235 0 358 -151t123 -437q0 -288 -122.5 -438t-357.5 -150zM900 611q-8 176 -75.5 278t-208.5 102q-140 0 -207.5 -102t-75.5 -278h567zM616 127q94 0 152 43t88 115.5t39 161.5h-557
q10 -89 39.5 -161.5t87 -115.5t151.5 -43z" />
    <glyph glyph-name="uni04EB" unicode="&#x4eb;" 
d="M349 1350q-30 0 -30 30v142q0 30 30 30h143q30 0 30 -30v-142q0 -30 -30 -30h-143zM741 1350q-30 0 -30 30v142q0 30 30 30h142q30 0 30 -30v-142q0 -30 -30 -30h-142zM616 -29q-233 0 -356 150.5t-123 438.5q0 284 123 436q60 73 147 112t208 39q235 0 358 -151
t123 -437q0 -288 -122.5 -438t-357.5 -150zM900 611q-8 176 -75.5 278t-208.5 102q-140 0 -207.5 -102t-75.5 -278h567zM616 127q94 0 152 43t88 115.5t39 161.5h-557q10 -89 39.5 -161.5t87 -115.5t151.5 -43z" />
    <glyph glyph-name="uni04ED" unicode="&#x4ed;" 
d="M329 1350q-30 0 -30 30v142q0 30 30 30h143q30 0 30 -30v-142q0 -30 -30 -30h-143zM721 1350q-30 0 -30 30v142q0 30 30 30h142q30 0 30 -30v-142q0 -30 -30 -30h-142zM535 -29q-85 0 -162 20t-158 66v191q126 -121 308 -121q180 0 266.5 107t96.5 282h-542v144h537
q-12 88 -50 163.5t-112.5 121.5t-194.5 46q-91 0 -165 -30t-144 -93v193q82 46 158.5 66t160.5 20q254 0 400.5 -156t146.5 -432q0 -184 -66.5 -315.5t-189 -202t-290.5 -70.5z" />
    <glyph glyph-name="uni04EF" unicode="&#x4ef;" 
d="M317 1468h598v-148h-598v148zM184 -272h109q45 0 76 13.5t51 33.5q22 23 49.5 79t67.5 164l-433 1102h195l332 -876l327 876h195l-295 -760l-42 -108t-22.5 -59t-19 -53t-33.5 -88q-52 -138 -81 -210t-53 -112q-44 -75 -109.5 -115.5t-165.5 -40.5h-148v154z" />
    <glyph glyph-name="uni04F1" unicode="&#x4f1;" 
d="M349 1312q-30 0 -30 30v142q0 30 30 30h143q30 0 30 -30v-142q0 -30 -30 -30h-143zM741 1312q-30 0 -30 30v142q0 30 30 30h142q30 0 30 -30v-142q0 -30 -30 -30h-142zM184 -272h109q45 0 76 13.5t51 33.5q22 23 49.5 79t67.5 164l-433 1102h195l332 -876l327 876h195
l-295 -760l-42 -108t-22.5 -59t-19 -53t-33.5 -88q-52 -138 -81 -210t-53 -112q-44 -75 -109.5 -115.5t-165.5 -40.5h-148v154z" />
    <glyph glyph-name="uni04F3" unicode="&#x4f3;" 
d="M535 1648h170l-224 -376h-137zM868 1648h179l-248 -376h-135zM184 -272h109q45 0 76 13.5t51 33.5q22 23 49.5 79t67.5 164l-433 1102h195l332 -876l327 876h195l-295 -760l-42 -108t-22.5 -59t-19 -53t-33.5 -88q-52 -138 -81 -210t-53 -112q-44 -75 -109.5 -115.5
t-165.5 -40.5h-148v154z" />
    <glyph glyph-name="uni04F5" unicode="&#x4f5;" 
d="M359 1323q-30 0 -30 30v142q0 30 30 30h143q30 0 30 -30v-142q0 -30 -30 -30h-143zM751 1323q-30 0 -30 30v142q0 30 30 30h142q30 0 30 -30v-142q0 -30 -30 -30h-142zM837 466q-11 -4 -51 -19.5t-105 -30t-150 -14.5q-169 0 -267.5 81.5t-98.5 271.5v367h184v-367
q0 -85 32.5 -126.5t87.5 -54t121 -12.5q74 0 130 12t117 47v501h184v-1122h-184v466z" />
    <glyph glyph-name="uni04F7" unicode="&#x4f7;" 
d="M476 0h-184v1120h752v-184h-568v-752h195v-470h-195v286z" />
    <glyph glyph-name="uni04F9" unicode="&#x4f9;" 
d="M349 1321q-30 0 -30 30v142q0 30 30 30h143q30 0 30 -30v-142q0 -30 -30 -30h-143zM741 1321q-30 0 -30 30v142q0 30 30 30h142q30 0 30 -30v-142q0 -30 -30 -30h-142zM104 1120h182v-453h91q209 0 327.5 -83t118.5 -253q0 -167 -116 -249t-330 -82h-273v1120zM945 1120
h184v-1120h-184v1120zM369 154q124 0 191 44t67 135q0 92 -68 137.5t-190 45.5h-83v-362h83z" />
    <glyph glyph-name="uni0511" unicode="&#x511;" 
d="M693 -22q-249 0 -386.5 92.5t-137.5 250.5q0 119 75.5 190.5t204.5 95.5q-120 25 -184 89t-64 160q0 134 122 212.5t332 78.5q158 0 368 -48v-167q-105 27 -191 39.5t-158 12.5q-142 0 -216 -42.5t-74 -111.5q0 -68 71.5 -111t207.5 -43h166v-144h-159q-150 0 -234 -54
t-84 -144q0 -91 90 -143.5t265 -52.5q198 0 357 69v-173q-97 -28 -187 -42t-184 -14z" />
    <glyph glyph-name="uni051B" unicode="&#x51b;" 
d="M865 139q-93 -172 -302 -172q-199 0 -315 156t-116 431q0 274 116 431.5t315 157.5q209 0 302 -170l18 143h167v-1546h-185v569zM595 123q270 0 270 432t-270 432q-268 0 -268 -432t268 -432z" />
    <glyph glyph-name="uni051D" unicode="&#x51d;" 
d="M0 1120h182l195 -905l160 578h157l162 -578l195 905h182l-262 -1120h-176l-179 614l-178 -614h-176z" />
    <glyph glyph-name="uni04A4" unicode="&#x4a4;" 
d="M213 1493h186v-612h364v612h470v-170h-284v-1323h-186v711h-364v-711h-186v1493z" />
    <glyph glyph-name="uni04A5" unicode="&#x4a5;" 
d="M185 1120h168v-455h410v455h470v-150h-302v-970h-168v515h-410v-515h-168v1120z" />
    <glyph glyph-name="uni04D4" unicode="&#x4d4;" 
d="M410 1493h751v-170h-338v-442h307v-170h-307v-541h357v-170h-543v383h-352l-101 -383h-184zM637 551v772h-107l-202 -772h309z" />
    <glyph glyph-name="uni04D5" unicode="&#x4d5;" 
d="M357 -29q-155 0 -235.5 86.5t-80.5 245.5q0 177 99.5 265.5t291.5 88.5h117v88q0 248 -194 248q-117 0 -249 -82v168q150 68 271 68q177 0 250 -127q32 57 94.5 92t165.5 35q113 0 182 -51.5t100 -170.5t31 -321v-90h-491q-1 -15 -1.5 -33t-0.5 -40q0 -170 49.5 -243
t167.5 -73q156 0 254 102v-172q-112 -84 -262 -84q-109 0 -182.5 42t-104.5 118q-79 -160 -272 -160zM1036 657v52q0 151 -38.5 217.5t-125.5 66.5t-125 -68t-38 -225v-43h327zM375 125q94 0 131 67q17 32 27 90t10 160v72h-49q-164 0 -226.5 -44t-62.5 -150
q0 -100 44 -147.5t126 -47.5z" />
    <glyph glyph-name="uni0394" unicode="&#x394;" 
d="M494 1493h245l457 -1493h-1159zM938 170l-322 1145l-322 -1145h644z" />
    <glyph glyph-name="uni03F4" unicode="&#x3f4;" 
d="M615 -29q-251 0 -374.5 190.5t-123.5 582.5t123.5 584t375.5 192q253 0 376.5 -192t123.5 -583q0 -774 -501 -774zM902 881q-12 223 -72 349t-214 126q-104 0 -163.5 -58t-86.5 -165t-35 -252h571zM617 135q153 0 218.5 137.5t69.5 438.5h-577q2 -299 68.5 -437.5
t220.5 -138.5z" />
    <glyph glyph-name="uni03BC" unicode="&#x3bc;" 
d="M195 1120h184v-696q0 -143 59.5 -218t171.5 -75q256 0 256 336v653h185v-864q0 -115 65 -115q6 0 24 5q14 4 42 18v-148q-74 -45 -140 -45q-125 0 -149 158q-89 -158 -268 -158q-93 0 -155.5 37.5t-107.5 118.5v-555h-167v1548z" />
    <glyph glyph-name="uni0531" unicode="&#x531;" 
d="M1044 -60q-45 20 -88 45t-88 54q-113 -68 -281 -68q-224 0 -343 119q-61 60 -93 151t-32 216v1036h202v-1098q0 -59 19.5 -119t76.5 -100.5t171 -40.5q73 0 128 20q-61 54 -108.5 107t-75.5 104l137 92q28 -51 69 -98t95 -92q13 31 17.5 63t4.5 64v1098h202v-1036
q0 -93 -17.5 -165.5t-51.5 -129.5q58 -34 126 -64z" />
    <glyph glyph-name="uni0532" unicode="&#x532;" 
d="M128 1036q0 125 32 215.5t93 150.5q119 118 343 118q227 0 346 -118q60 -60 92 -150.5t32 -215.5v-161h-202v223q0 59 -19.5 118.5t-77 99.5t-171.5 40q-113 0 -170.5 -40t-76.5 -99.5t-19 -118.5v-477h774v-170h-774v-451h-202v1036z" />
    <glyph glyph-name="uni0533" unicode="&#x533;" 
d="M821 451h-269q-221 0 -340 128q-61 66 -94 166t-33 246q0 282 122.5 405.5t344.5 123.5q111 0 198 -29.5t148 -93.5q60 -64 92.5 -164.5t32.5 -244.5v-367h125v-170h-125v-451h-202v451zM821 621v437q0 74 -20 142t-77.5 112t-172.5 44q-113 0 -170 -47t-75.5 -130
t-18.5 -191q0 -81 9.5 -148.5t37.5 -115.5q28 -49 79.5 -76t138.5 -27h269z" />
    <glyph glyph-name="uni0534" unicode="&#x534;" 
d="M790 1098q0 59 -19.5 118.5t-77 99.5t-171.5 40t-171 -40t-76 -99.5t-19 -118.5v-223h-202v161q0 125 32 215.5t93 150.5q119 118 343 118q227 0 346 -118q60 -60 92 -150.5t32 -215.5v-415h187v-170h-187v-451h-202v1098z" />
    <glyph glyph-name="uni0535" unicode="&#x535;" 
d="M596 -29q-224 0 -343 119q-61 60 -93 151t-32 216v1036h202v-373h774v-170h-774v-555q0 -59 19 -119t76.5 -100.5t170.5 -40.5q114 0 171.5 40.5t77 100.5t19.5 119v223h202v-161q0 -125 -32 -216t-92 -151q-61 -61 -149 -90t-197 -29z" />
    <glyph glyph-name="uni0536" unicode="&#x536;" 
d="M140 331h203v-161h51q103 0 226 95q61 48 116.5 112.5t97.5 144.5q92 172 92 400q0 96 -17 182.5t-59 147.5q-38 54 -94 79t-142 25q-164 0 -239.5 -103t-75.5 -358v-20h-203v20q0 230 68 367t185 197.5t263 60.5q114 0 206 -33.5t163 -107.5q156 -162 156 -468
q0 -105 -18.5 -193t-52.5 -167q-31 -72 -72.5 -137t-87.5 -116q-45 -51 -88.5 -83t-79.5 -45h359v-170h-957v331z" />
    <glyph glyph-name="uni0537" unicode="&#x537;" 
d="M120 1493h203v-373h790v-170h-790v-780h651v-170h-854v1493z" />
    <glyph glyph-name="uni0538" unicode="&#x538;" 
d="M128 1036q0 125 32 216t93 151q119 119 343 119q109 0 197 -29t149 -90q60 -60 92 -151t32 -216v-161h-202v223q0 59 -19.5 119t-77 100.5t-171.5 40.5q-113 0 -170.5 -40.5t-76.5 -100.5t-19 -119v-928h774v-170h-976v1036z" />
    <glyph glyph-name="uni0539" unicode="&#x539;" 
d="M750 -29q-92 0 -167 46t-118.5 143.5t-43.5 254.5q0 235 95 347.5t238 112.5h138v24q0 128 -14 212t-48 139t-95 81q-57 25 -153 25q-122 0 -190 -44.5t-95.5 -143t-27.5 -259.5v-909h-196v934q0 290 135 440q132 146 373 146q243 0 374 -149q65 -74 99.5 -184.5
t34.5 -259.5v-52h131v-175h-131v-285q0 -108 -24.5 -189.5t-69.5 -138.5q-47 -60 -109 -88t-136 -28zM752 135q35 0 61.5 13.5t44.5 47.5q34 64 34 219v285h-138q-52 0 -84 -31t-43 -114q-4 -28 -6 -62.5t-2 -79.5q0 -160 33 -222q18 -34 44.5 -45t55.5 -11z" />
    <glyph glyph-name="uni053A" unicode="&#x53a;" 
d="M542 -29q-229 0 -350.5 143.5t-121.5 424.5q0 147 33.5 254.5t93.5 179.5q124 147 340 147h269v373h202v-373h125v-170h-125v-446q0 -276 -125 -409q-61 -65 -148.5 -94.5t-192.5 -29.5zM541 135q111 0 168 44t77 112.5t20 141.5v517h-269q-87 0 -138.5 -32.5
t-79.5 -89.5q-26 -54 -36.5 -126t-10.5 -160q0 -108 18 -200.5t75.5 -149.5t175.5 -57z" />
    <glyph glyph-name="uni053B" unicode="&#x53b;" 
d="M187 1493h202v-432q114 80 274 80q103 0 190 -29.5t148 -89.5q60 -60 92 -151t32 -216v-161h-202v223q0 59 -19.5 119t-76.5 100.5t-172 40.5q-113 0 -170.5 -40.5t-76.5 -100.5t-19 -119v-717h-202v1493z" />
    <glyph glyph-name="uni053C" unicode="&#x53c;" 
d="M184 1493h203v-1323h721v-170h-924v1493z" />
    <glyph glyph-name="uni053D" unicode="&#x53d;" 
d="M806 -29q-111 0 -175 28t-101 81q-39 56 -53.5 140.5t-14.5 204.5v520h-183v-945h-186v1493h186v-373h369v-719q0 -150 31 -208t127 -58q93 0 122 58q15 31 20.5 82t5.5 126v719h186v-695q0 -120 -13 -204.5t-49 -140.5q-37 -56 -101.5 -82.5t-170.5 -26.5z" />
    <glyph glyph-name="uni053E" unicode="&#x53e;" 
d="M626 -29q-158 0 -259.5 50.5t-160.5 137.5q-60 88 -83 204.5t-23 247.5q0 139 23 252.5t69 217.5h-138v412h183v-245h52q97 129 229 200q66 35 141 53.5t170 18.5q99 0 182 -18q42 -9 81.5 -23t81.5 -31v-215q-108 70 -200 97t-174 27q-94 0 -167.5 -29t-130.5 -81
q168 -4 292 -47.5t207 -120.5q85 -79 131 -198t46 -288q0 -82 -11.5 -158.5t-36.5 -143.5q-26 -72 -68.5 -130.5t-101.5 -99.5q-63 -44 -145.5 -67t-188.5 -23zM632 135q110 0 176.5 30.5t100.5 84.5t47 122q10 50 12 110t2 99q0 70 -5 136.5t-25 122.5q-20 54 -56.5 97.5
t-99.5 75.5q-64 32 -157.5 50t-227.5 18h-12q-43 -97 -61.5 -214t-18.5 -246v-36q0 -54 1.5 -104.5t9.5 -97.5q9 -57 27.5 -101.5t53.5 -76.5q36 -33 92 -51.5t141 -18.5z" />
    <glyph glyph-name="uni053F" unicode="&#x53f;" 
d="M883 431q-54 -36 -119 -57.5t-157 -21.5q-213 0 -335 119q-61 60 -93 151t-32 216v655h202v-717q0 -59 19 -119t76.5 -100.5t170.5 -40.5q115 0 172 40.5t76.5 100.5t19.5 119v344h202v-1120h-202v431z" />
    <glyph glyph-name="uni0540" unicode="&#x540;" 
d="M320 266q-114 46 -176 96q-34 28 -53.5 59.5t-19.5 72.5q0 61 52.5 140.5t173.5 181.5q104 88 248.5 183.5t299.5 178.5l-181 315h238l217 -375q-111 -53 -212 -109.5t-188 -110.5q-89 -56 -166.5 -111t-131.5 -103q-56 -50 -86 -86q-31 -37 -31 -64q0 -14 7.5 -25
t20.5 -22q32 -26 87 -48l703 -289v-204z" />
    <glyph glyph-name="uni0541" unicode="&#x541;" 
d="M982 -48q-35 54 -71 102.5t-72 93.5q-88 -84 -190 -130.5t-216 -46.5q-69 0 -128.5 18.5t-104.5 56.5q-90 77 -90 219q0 72 23.5 128.5t66.5 96.5q86 80 235 80q103 0 198.5 -38.5t183.5 -104.5q55 107 81.5 221.5t26.5 252.5q0 115 -18.5 205.5t-56.5 145.5
q-40 58 -102 81t-137 23q-161 0 -237 -103t-76 -358v-22h-203v22q0 173 40 291.5t109 193.5q69 74 163 107t202 33q110 0 206 -33t166 -105q72 -74 113.5 -193.5t41.5 -287.5q0 -180 -47.5 -331.5t-127.5 -274.5q99 -106 177 -241zM438 133q68 0 140 37t137 109
q-143 129 -275 129q-68 0 -104 -36.5t-36 -102.5q0 -136 138 -136z" />
    <glyph glyph-name="uni0542" unicode="&#x542;" 
d="M790 1098q0 59 -19.5 118.5t-77 99.5t-171.5 40t-171 -40t-76 -99.5t-19 -118.5v-223h-202v161q0 125 32 215.5t93 150.5q119 118 343 118q227 0 346 -118q60 -60 92 -150.5t32 -215.5v-866h187v-170h-389v1098z" />
    <glyph glyph-name="uni0543" unicode="&#x543;" 
d="M363 0q-56 0 -107 12t-91 42q-37 28 -58 72t-21 112q0 86 39.5 190t129.5 259q95 164 188 296l-293 510h228l194 -338q141 175 281 270t293 95v-175q-109 0 -228 -91t-250 -266l473 -824v-164h-778zM909 175l-365 633q-29 -45 -57.5 -92t-57.5 -98q-66 -115 -96.5 -192.5
t-30.5 -130.5q0 -69 49 -94.5t140 -25.5h418z" />
    <glyph glyph-name="uni0544" unicode="&#x544;" 
d="M554 -29q-224 0 -343 119q-61 60 -93 151t-32 216v1036h202v-1098q0 -59 19 -119t76 -100.5t171 -40.5t171.5 40.5t77 100.5t19.5 119v1098h389v-170h-187v-866q0 -125 -32 -216t-92 -151q-61 -61 -149 -90t-197 -29z" />
    <glyph glyph-name="uni0545" unicode="&#x545;" 
d="M656 -29q-178 0 -290.5 66t-165.5 174.5t-53 235.5h210q0 -66 16.5 -122t52.5 -98q35 -41 90.5 -66.5t140.5 -25.5q80 0 137 23t94 64q71 77 71 208q0 130 -78 202q-81 73 -225 73h-592v170h592q66 0 112.5 21t76.5 57q29 35 42 79.5t13 95.5q0 228 -245 228
q-117 0 -177.5 -56.5t-60.5 -179.5h-210q0 122 56.5 212t157.5 139t234 49q102 0 185 -28t143 -79q57 -49 92 -121t35 -166q0 -60 -14.5 -111t-40.5 -93q-56 -86 -148 -117q137 -34 199.5 -135.5t62.5 -228.5q0 -88 -28.5 -174t-93.5 -154q-63 -66 -159.5 -104t-231.5 -38z
" />
    <glyph glyph-name="uni0546" unicode="&#x546;" 
d="M709 -29q-224 0 -343 119q-61 60 -93 151t-32 216v866h-187v170h389v-1098q0 -59 19 -119t76.5 -100.5t170.5 -40.5q115 0 172 40.5t76.5 100.5t19.5 119v223h202v-161q0 -125 -32 -216t-92 -151q-61 -61 -149 -90t-197 -29z" />
    <glyph glyph-name="uni0547" unicode="&#x547;" 
d="M625 -29q-145 0 -265.5 62.5t-192 200.5t-71.5 363q0 165 37.5 285.5t96.5 199.5q57 76 126 116t136 42l-90 40q-57 25 -111.5 34t-91.5 9h-45v170h123q51 0 114 -13t135 -43l507 -213v-212l-244 103q-25 12 -75 22t-90 10q-146 0 -231 -150q-23 -39 -38 -82t-26 -91
q-22 -98 -22 -230q0 -245 77 -354q75 -105 240 -105q163 0 236 103q74 106 74 358v22h203v-22q0 -174 -40 -292t-109 -193q-69 -74 -163 -107t-200 -33z" />
    <glyph glyph-name="uni0548" unicode="&#x548;" 
d="M147 1036q0 125 32 216t93 151q119 119 343 119q109 0 197 -29t149 -90q60 -60 92 -151t32 -216v-1036h-202v1098q0 59 -19.5 119t-76.5 100.5t-172 40.5q-113 0 -170.5 -40.5t-76.5 -100.5t-19 -119v-1098h-202v1036z" />
    <glyph glyph-name="uni0549" unicode="&#x549;" 
d="M200 267v212l238 -101q32 -14 78.5 -24t87.5 -10q78 0 137.5 39.5t99.5 110.5q39 69 63 174q22 95 22 229q0 245 -77 354q-75 105 -240 105q-80 0 -138.5 -24t-96.5 -79q-75 -105 -75 -358v-22h-203v22q0 173 40 291.5t109 193.5q69 74 163 107t200 33q111 0 206.5 -34.5
t167.5 -109.5q71 -75 113 -193.5t42 -288.5q0 -168 -38.5 -289.5t-99.5 -200t-129.5 -116t-128.5 -37.5l232 -99v-210z" />
    <glyph glyph-name="uni054A" unicode="&#x54a;" 
d="M958 917q0 79 -8.5 153t-37.5 134q-29 59 -81.5 98.5t-139.5 48.5v-876h-190v876q-115 -16 -172 -74.5t-75.5 -150.5t-18.5 -209v-42h-190v57q0 174 55.5 306.5t178 207t322.5 74.5q205 0 324.5 -74.5t171 -207t51.5 -306.5v-932h-190v917z" />
    <glyph glyph-name="uni054B" unicode="&#x54b;" 
d="M139 332h203v-162h40q119 0 238 89q12 52 19 99t7 89q0 105 -46 161q-34 40 -79 48.5t-79 10.5q-61 2 -124 10.5t-118 43.5q-38 24 -59 56t-32 70q-9 32 -11 62t-2 51q0 75 10.5 139.5t34.5 124.5q25 62 64 115t95 93q57 41 132.5 64.5t178.5 23.5q150 0 249 -51
t160 -136q62 -89 89 -200t27 -221q0 -140 -34.5 -255.5t-88.5 -208.5q-56 -95 -128.5 -168.5t-147.5 -109.5h359v-170h-957v332zM776 423q70 105 109.5 221t39.5 272q0 81 -13 165.5t-47 144.5q-73 130 -251 130q-66 0 -112.5 -16t-79.5 -42q-37 -29 -59.5 -65t-35.5 -72
q-26 -75 -26 -164q0 -34 5.5 -64.5t24.5 -50.5q24 -27 63.5 -33t88.5 -7q47 -2 110 -17t115 -80q74 -92 74 -240q0 -40 -6 -82z" />
    <glyph glyph-name="uni054C" unicode="&#x54c;" 
d="M98 1036q0 125 32 215.5t93 150.5q119 118 343 118q227 0 346 -118q60 -60 92 -150.5t32 -215.5v-415h187v-170h-187v-451h-202v1098q0 59 -19.5 118.5t-77 99.5t-171.5 40t-171 -40t-76 -99.5t-19 -118.5v-1098h-202v1036z" />
    <glyph glyph-name="uni054D" unicode="&#x54d;" 
d="M615 -29q-224 0 -343 119q-61 60 -93 151t-32 216v1036h202v-1098q0 -59 19 -119t76.5 -100.5t170.5 -40.5q115 0 172 40.5t76.5 100.5t19.5 119v1098h202v-1036q0 -125 -32 -216t-92 -151q-61 -61 -149 -90t-197 -29z" />
    <glyph glyph-name="uni054E" unicode="&#x54e;" 
d="M769 431q-54 -36 -119 -57.5t-157 -21.5q-213 0 -335 119q-61 60 -93 151t-32 216v282h202v-344q0 -59 19 -119t76.5 -100.5t170.5 -40.5q115 0 172 40.5t76.5 100.5t19.5 119v717h202v-1323h228v-170h-430v431z" />
    <glyph glyph-name="uni054F" unicode="&#x54f;" 
d="M631 -29q-163 0 -281 60t-181.5 167t-63.5 249h210q0 -146 91 -231q87 -81 225 -81q135 0 214 75q38 35 60.5 87t22.5 118q0 74 -30.5 123t-88.5 84q-54 33 -122.5 56t-140.5 47q-78 26 -142.5 54t-119.5 73q-54 45 -87 108t-33 160q0 108 48 199t147 146t252 55
q155 0 256.5 -55t151 -146t49.5 -199h-210q0 105 -58 170t-188 65q-64 0 -110.5 -16.5t-76.5 -45.5q-32 -32 -46.5 -74t-14.5 -85q0 -58 22 -96t57 -64q38 -29 87.5 -49t102.5 -38q49 -17 65 -22.5t22 -7t26 -8.5q53 -17 110.5 -42.5t104.5 -57.5q48 -33 86 -77.5t59 -107.5
q21 -62 21 -141q0 -201 -128 -323q-63 -61 -155 -95t-213 -34z" />
    <glyph glyph-name="uni0550" unicode="&#x550;" 
d="M147 1036q0 125 32 216t93 151q119 119 343 119q109 0 197 -29t149 -90q60 -60 92 -151t32 -216v-161h-202v223q0 59 -19.5 119t-76.5 100.5t-172 40.5q-113 0 -170.5 -40.5t-76.5 -100.5t-19 -119v-1098h-202v1036z" />
    <glyph glyph-name="uni0551" unicode="&#x551;" 
d="M656 -29q-172 -3 -287 65t-170.5 178t-51.5 233h210q0 -85 29.5 -156t95.5 -113.5t174 -42.5q86 0 143.5 26t92.5 68q35 43 51 99.5t16 112.5q0 124 -77.5 194t-223.5 70h-594v170h273q-64 34 -97.5 106.5t-33.5 148.5q0 78 30.5 151.5t89.5 127.5q55 51 137 81t194 30
q215 0 334 -110t119 -289q0 -61 -14.5 -111t-40.5 -91q-56 -83 -148 -114q137 -34 199.5 -138t62.5 -227q0 -89 -29 -174t-92 -151q-64 -68 -161 -106t-231 -38zM656 875q91 0 144.5 34.5t76.5 90.5t23 121q0 44 -10.5 88.5t-38.5 76.5q-31 34 -74 51q-23 9 -51 14t-66 5
q-75 0 -121.5 -19t-73.5 -51q-26 -32 -37.5 -74t-11.5 -93q0 -47 10.5 -91.5t37.5 -77.5q27 -34 74.5 -54.5t117.5 -20.5z" />
    <glyph glyph-name="uni0552" unicode="&#x552;" 
d="M155 1493h203v-373h760v-175h-760v-945h-203v1493z" />
    <glyph glyph-name="uni0553" unicode="&#x553;" 
d="M518 158q-132 6 -219 48t-140 123q-48 74 -68.5 179t-20.5 255q0 142 19.5 251.5t70.5 187.5q51 79 137 121.5t221 47.5v122h193v-122q179 -7 277 -80.5t136 -207t38 -318.5t-38 -319t-136 -208t-277 -81v-157h-193v158zM518 1203q-73 -3 -121.5 -26.5t-77.5 -74.5
q-30 -52 -42 -134.5t-12 -201.5q0 -120 12 -203.5t43 -139.5q55 -101 198 -107v887zM711 316q98 4 153 49.5t77.5 143t22.5 256.5q0 121 -12 203t-41 134q-29 51 -78 74.5t-122 26.5v-887z" />
    <glyph glyph-name="uni0554" unicode="&#x554;" 
d="M227 244h-191v175h191v661q0 96 27.5 175.5t85.5 139.5q60 61 148 93t208 32q166 0 269.5 -58t152 -158.5t48.5 -227.5q0 -97 -27 -176t-85 -139q-56 -57 -140.5 -92t-197.5 -35q-90 0 -162 27q-85 32 -125 84v-326h724v-175h-724v-244h-202v244zM706 798q78 0 127 20.5
t77 54.5q29 36 41 88t12 116t-12 114.5t-42 87.5t-81 57q-55 20 -130 20q-156 0 -212 -76t-56 -197q0 -127 61 -206t215 -79z" />
    <glyph glyph-name="uni0555" unicode="&#x555;" 
d="M615 -29q-251 0 -374.5 190.5t-123.5 582.5t123.5 584t375.5 192q253 0 376.5 -192t123.5 -583q0 -774 -501 -774zM616 135q83 0 136.5 37t85.5 105q32 66 49.5 177.5t17.5 292.5q0 180 -18.5 290.5t-49.5 177.5q-69 141 -220 141q-154 0 -221 -142q-68 -144 -68 -469
q0 -328 68 -468q33 -70 86.5 -106t133.5 -36z" />
    <glyph glyph-name="uni0556" unicode="&#x556;" 
d="M628 -29q-122 0 -205.5 12t-143.5 41q-89 42 -134 120.5t-59.5 180t-14.5 212.5v19h194v-19q0 -107 8.5 -177t33.5 -119q26 -51 75.5 -79.5t135.5 -28.5v819q-197 0 -287 66t-90 205q0 69 21.5 120t69.5 85q94 65 297 65h182v-373q137 -6 219 -42t132 -99
q57 -74 78.5 -184.5t21.5 -254.5q0 -88 -8.5 -166t-31.5 -145q-23 -65 -63.5 -118.5t-103.5 -86.5q-57 -31 -141 -43q-42 -6 -91 -8t-95 -2zM518 1329q-94 0 -135 -18t-41 -88q0 -69 41 -86t135 -17v209zM711 133q110 0 164 46t71.5 136.5t17.5 226.5q0 141 -17.5 231
t-71.5 133t-164 43v-816z" />
    <glyph glyph-name="uni0561" unicode="&#x561;" 
d="M344 -27q-62 0 -108 22t-77 81q-29 54 -42.5 146.5t-13.5 248.5v649h168v-641q0 -119 6 -192q6 -74 25.5 -117t91.5 -43q45 0 69.5 16t38.5 45q16 32 23.5 100t7.5 191v641h168v-641q0 -149 8.5 -209.5t20.5 -86.5q27 -56 102 -56q43 0 65.5 17t34.5 44q17 37 23.5 108
t6.5 183v641h167v-1120h-167v96q-68 -123 -198 -123q-68 0 -120.5 33.5t-81.5 107.5q-35 -72 -85.5 -106.5t-132.5 -34.5z" />
    <glyph glyph-name="uni0562" unicode="&#x562;" 
d="M193 1120h184v-168q98 195 332 195q173 0 256.5 -111.5t83.5 -341.5v-244h-185v244q0 151 -52.5 222t-165.5 71q-131 0 -200 -90t-69 -264v-490h682v-143h-682v-426h-184v1546z" />
    <glyph glyph-name="uni0563" unicode="&#x563;" 
d="M806 139q-91 -172 -300 -172q-100 0 -180 40.5t-137 116.5q-116 157 -116 428q0 275 116.5 433t316.5 158q208 0 300 -170l18 147h167v-977h168v-143h-168v-426h-185v565zM536 123q270 0 270 432t-270 432q-134 0 -201 -108q-67 -109 -67 -324q0 -432 268 -432z" />
    <glyph glyph-name="uni0564" unicode="&#x564;" 
d="M855 694q0 151 -52.5 222t-165.5 71q-131 0 -200 -90t-69 -264v-633h-184v1120h166l18 -168q98 195 332 195q173 0 256.5 -111.5t83.5 -341.5v-551h148v-143h-148v-426h-185v1120z" />
    <glyph glyph-name="uni0565" unicode="&#x565;" 
d="M522 -29q-173 0 -255.5 112t-82.5 341v1132h184v-436h721v-143h-721v-553q0 -151 53.5 -222t165.5 -71q132 0 200 90.5t68 263.5v235h185v-720h-185v168q-99 -197 -333 -197z" />
    <glyph glyph-name="uni0566" unicode="&#x566;" 
d="M836 139q-91 -172 -300 -172q-100 0 -180 40.5t-137 116.5q-116 157 -116 428q0 275 116.5 433t316.5 158q208 0 300 -170l18 147h167v-1401h168v-145h-353v565zM566 123q270 0 270 432t-270 432q-134 0 -201 -108q-67 -109 -67 -324q0 -432 268 -432z" />
    <glyph glyph-name="uni0567" unicode="&#x567;" 
d="M227 1556h184v-436h634v-143h-634v-829h549v-148h-733v1556z" />
    <glyph glyph-name="uni0568" unicode="&#x568;" 
d="M183 1120h166l18 -168q98 195 332 195q173 0 256.5 -111.5t83.5 -341.5v-694h-185v694q0 151 -52.5 222t-165.5 71q-131 0 -200 -90t-69 -264v-916h682v-143h-866v1546z" />
    <glyph glyph-name="uni0569" unicode="&#x569;" 
d="M106 1120h166l18 -170q65 111 150 157q76 40 190 40q117 0 200 -41.5t142 -117.5q122 -159 133 -429h101v-143h-104q-14 -174 -70 -271t-136 -135.5t-165 -38.5q-139 0 -224.5 75.5t-85.5 208.5q0 103 45 170.5t116.5 100.5t151.5 33h201q-2 109 -25.5 188t-62.5 132
q-86 116 -256 116q-145 0 -223 -86.5t-78 -289.5v-1045h-184v1546zM731 107q82 0 131 69q26 38 43.5 96t24.5 144h-196q-56 0 -96 -40q-20 -21 -32.5 -51.5t-12.5 -70.5q0 -64 33 -103q16 -19 41 -31.5t64 -12.5z" />
    <glyph glyph-name="uni056A" unicode="&#x56a;" 
d="M551 -29q-123 0 -208.5 44t-141.5 123q-57 81 -82.5 188t-25.5 228q0 120 25 220t80 178q55 77 141.5 122.5t209.5 45.5h277v436h185v-436h168v-143h-168v-472q0 -152 -48.5 -273t-150.5 -191t-261 -70zM555 127q135 0 206 116q65 111 65 316v418h-275
q-118 0 -190.5 -111t-72.5 -314q0 -94 16 -173.5t49 -136.5q67 -115 202 -115z" />
    <glyph glyph-name="uni056B" unicode="&#x56b;" 
d="M188 1556h184v-604q98 195 332 195q173 0 256.5 -111.5t83.5 -341.5v-694h-185v694q0 151 -52.5 222t-165.5 71q-131 0 -200 -90t-69 -264v-1059h-184v1982z" />
    <glyph glyph-name="uni056C" unicode="&#x56c;" 
d="M407 1120h184v-1403h395v-143h-579v1546z" />
    <glyph glyph-name="uni056D" unicode="&#x56d;" 
d="M104 1556h167v-532q70 123 201 123q130 0 184 -109q26 -54 35 -130.5t9 -176.5v-252q0 -149 8.5 -209.5t20.5 -86.5q27 -56 102 -56q43 0 65.5 17t34.5 44q17 37 23.5 108t6.5 183v641h167v-1120h-167v96q-70 -123 -201 -123q-129 0 -183 109q-26 54 -35.5 130.5
t-9.5 176.5v252q0 148 -8.5 209t-20.5 87q-27 56 -102 56q-43 0 -65.5 -17t-34.5 -44q-17 -37 -23.5 -108t-6.5 -183v-1067h-167v1982z" />
    <glyph glyph-name="uni056E" unicode="&#x56e;" 
d="M615 -29q-126 0 -215 43.5t-147 117.5q-60 75 -88 177.5t-28 226.5q0 180 52.5 300.5t140 188t193.5 86.5l-271 179l207 289l148 -98l-106 -151l321 -210h271v-170h-90q32 -48 51.5 -105t28.5 -111q8 -54 10.5 -105t2.5 -73q0 -138 -27.5 -243.5t-87.5 -180.5
q-57 -72 -148 -116.5t-218 -44.5zM614 127q78 0 134 32t91 89q31 52 46.5 127t15.5 186q0 24 -2.5 80.5t-16.5 110.5q-13 53 -40 104.5t-73 93.5h-153q-104 0 -167 -56.5t-91 -151t-28 -207.5q0 -83 15 -157t49 -130q72 -121 220 -121z" />
    <glyph glyph-name="uni056F" unicode="&#x56f;" 
d="M859 168q-99 -197 -333 -197q-173 0 -255.5 112t-82.5 341v1132h184v-1132q0 -151 53.5 -222t165.5 -71q132 0 200 90.5t68 263.5v635h185v-1546h-185v594z" />
    <glyph glyph-name="uni0570" unicode="&#x570;" 
d="M189 1556h184v-604q98 195 332 195q340 0 340 -453v-694h-185v694q0 151 -52.5 222t-165.5 71q-131 0 -200 -91t-69 -263v-633h-184v1556z" />
    <glyph glyph-name="uni0571" unicode="&#x571;" 
d="M540 -30q-118 0 -201.5 57t-128 158t-44.5 234q0 196 97.5 371t280.5 331q-114 14 -169 84t-55 150q0 68 35 122l51 79h199l-57 -85q-32 -50 -32 -97q0 -55 38 -93q39 -39 100 -39q30 0 65 11q27 18 55 36t57 35v-177q-21 -13 -41.5 -26.5t-41.5 -27.5q90 -53 150 -116.5
t95 -135.5q35 -73 49 -155t14 -173v-513h-184v172q-41 -91 -125 -145q-40 -26 -92 -41.5t-115 -15.5zM594 131q72 0 126 27.5t88 74.5q32 44 48 105t16 132v86q0 69 -19.5 151t-72 158.5t-152.5 128.5q-61 -57 -108.5 -116.5t-83.5 -127.5q-37 -69 -58 -143t-21 -159
q0 -65 13.5 -123t42.5 -102q60 -92 181 -92z" />
    <glyph glyph-name="uni0572" unicode="&#x572;" 
d="M865 694q0 151 -52.5 222t-165.5 71q-131 0 -200 -90t-69 -264v-633h-184v1120h166l18 -168q98 195 332 195q173 0 256.5 -111.5t83.5 -341.5v-977h149v-143h-334v1120z" />
    <glyph glyph-name="uni0573" unicode="&#x573;" 
d="M553 -29q-96 0 -162 32.5t-111 88.5q-46 57 -68.5 132.5t-22.5 185.5q0 122 28 276t82 291h-145v143h210q68 126 157 224.5t198 155t237 56.5q27 0 51 -3q11 -2 20 -3.5t17 -4.5v-151q-43 19 -102 19q-57 0 -110.5 -22.5t-99.5 -57.5q-49 -38 -96.5 -93.5t-86.5 -123.5
q240 -20 380 -156t140 -364v-596h-166l-18 168q-47 -88 -127 -142.5t-205 -54.5zM614 131q78 0 129 30t83 79q32 48 45.5 108.5t13.5 121.5v139q0 154 -94 253t-312 113q-52 -121 -78.5 -262t-26.5 -262q0 -107 19.5 -163.5t53.5 -92.5q63 -64 167 -64z" />
    <glyph glyph-name="uni0574" unicode="&#x574;" 
d="M482 -29q-173 0 -255.5 112t-82.5 341v696h184v-696q0 -151 53.5 -222t165.5 -71q132 0 200 90.5t68 263.5v1071h353v-143h-168v-1413h-167l-18 168q-99 -197 -333 -197z" />
    <glyph glyph-name="uni0575" unicode="&#x575;" 
d="M217 -270h234q180 0 180 250v1140h184v-1140q0 -197 -88.5 -301.5t-255.5 -104.5h-254v156z" />
    <glyph glyph-name="uni0576" unicode="&#x576;" 
d="M530 -29q-173 0 -255.5 112t-82.5 341v989h-168v143h352v-1132q0 -151 53.5 -222t165.5 -71q132 0 200 90.5t68 263.5v635h185v-1120h-167l-18 168q-99 -197 -333 -197z" />
    <glyph glyph-name="uni0577" unicode="&#x577;" 
d="M352 -426q-83 0 -134 51q-50 48 -50 120q0 71 50.5 144.5t131 152.5t169.5 164q69 66 130.5 130t111.5 131q51 68 80 134t29 139q0 51 -17 99t-59 85q-79 70 -209 70q-47 0 -83 -10t-68 -27q-75 -40 -118 -107l-136 101q72 92 172.5 144.5t241.5 52.5q97 0 183 -27
t149 -81q64 -55 96 -130.5t32 -163.5q0 -85 -28 -158.5t-77 -147.5q-51 -76 -111 -143t-121 -129q-19 -20 -56 -55.5t-67 -63.5q-54 -52 -105.5 -102.5t-79.5 -88.5q-29 -40 -29 -65q0 -16 17 -46t68 -30h539v-143h-652z" />
    <glyph glyph-name="uni0578" unicode="&#x578;" 
d="M189 1120h166l18 -168q98 195 332 195q340 0 340 -453v-694h-185v694q0 151 -52.5 222t-165.5 71q-131 0 -200 -91t-69 -263v-633h-184v1120z" />
    <glyph glyph-name="uni0579" unicode="&#x579;" 
d="M412 -426q-70 0 -119 43q-24 22 -37.5 53t-13.5 80q0 74 30 168t80.5 194t113.5 190q48 69 102 133.5t107 115.5q-45 0 -99 16.5t-103 51t-81 88.5t-32 129q0 60 24.5 121.5t79.5 116.5l95 96l123 -113l-31 -30q-47 -45 -76.5 -93t-29.5 -95q0 -41 21.5 -68t52.5 -44
q33 -19 73.5 -27.5t80.5 -8.5q35 0 65.5 5.5t53.5 14.5l63 -113q-112 -91 -206.5 -197.5t-163.5 -213.5q-70 -105 -108 -201.5t-38 -158.5q0 -45 24 -77q25 -33 64 -33h463v-143h-578z" />
    <glyph glyph-name="uni057A" unicode="&#x57a;" 
d="M957 96q-67 -123 -198 -123q-68 0 -120.5 33.5t-81.5 107.5q-35 -72 -85.5 -106.5t-132.5 -34.5q-62 0 -108 22t-77 81q-28 54 -42 146.5t-14 248.5v649h168v-641q0 -119 6 -192q6 -74 25.5 -117t91.5 -43q45 0 69.5 16t38.5 45q16 32 23.5 100t7.5 191v641h168v-641
q0 -149 8.5 -209.5t20.5 -86.5q27 -56 102 -56q43 0 65.5 17t34.5 44q17 37 23.5 108t6.5 183v641h167v-1546h-167v522z" />
    <glyph glyph-name="uni057B" unicode="&#x57b;" 
d="M363 -426q-76 0 -129.5 45t-53.5 120q0 77 51 147t103 128q21 23 39.5 49t29.5 70q8 29 9.5 55.5t1.5 44.5q0 65 -13 112.5t-50 100.5q-14 21 -30 41.5t-30 37.5q-38 47 -63 84t-42 79q-8 20 -13 43t-5 53q0 76 35 143.5t97 118.5q57 47 135.5 74.5t174.5 27.5
q82 0 167 -25t155 -80q133 -109 133 -290q0 -88 -29 -163.5t-76 -147.5q-48 -74 -108 -141t-124 -131q-27 -27 -59 -58t-64 -61q-76 -72 -116.5 -112t-68.5 -78q-29 -41 -29 -70q0 -41 32 -57.5t53 -16.5h539v-143h-652zM512 188q84 82 169.5 169.5t142.5 183t57 199.5
q0 120 -79 188q-39 34 -90 50t-108 16q-107 0 -172 -53q-76 -62 -76 -149q0 -29 12 -61.5t42 -77.5q16 -23 30.5 -43t18.5 -25q26 -35 50 -74.5t38 -77.5q15 -41 15 -85q0 -80 -50 -160z" />
    <glyph glyph-name="uni057C" unicode="&#x57c;" 
d="M182 1120h166l18 -172q97 199 329 199q135 0 218 -60.5t121 -166.5t38 -243q0 -79 -13 -152.5t-42 -141.5q-27 -64 -68 -123t-95 -117h297v-143h-515v132q127 104 185 222q29 58 44 125t15 154q0 68 -12 133t-45 117q-32 50 -80.5 77t-117.5 27q-131 0 -195 -97t-64 -237
v-653h-184v1120z" />
    <glyph glyph-name="uni057D" unicode="&#x57d;" 
d="M528 -29q-339 0 -339 453v694h184v-694q0 -151 53.5 -222t165.5 -71q131 0 199.5 91t68.5 263v633h185v-1118h-167l-18 168q-99 -197 -332 -197z" />
    <glyph glyph-name="uni057E" unicode="&#x57e;" 
d="M853 168q-99 -197 -333 -197q-173 0 -255.5 112t-82.5 341v696h184v-696q0 -151 53.5 -222t165.5 -71q132 0 200 90.5t68 263.5v1071h185v-1837h172v-145h-357v594z" />
    <glyph glyph-name="uni057F" unicode="&#x57f;" 
d="M333 -27q-130 0 -183 107q-26 54 -36 132t-10 181v727h168v-641q0 -149 8.5 -209.5t20.5 -86.5q27 -56 102 -56q43 0 65.5 17t34.5 44q17 37 23.5 108t6.5 183v641h167v-96q37 66 86 94.5t115 28.5q129 0 182 -107q26 -54 36 -132t10 -181v-727h-168v641q0 143 -8 207
t-20 89q-27 56 -105 56q-68 0 -90 -44t-30 -110q-4 -32 -6 -73t-2 -92v-674h-167v96q-37 -66 -86 -94.5t-114 -28.5z" />
    <glyph glyph-name="uni0580" unicode="&#x580;" 
d="M188 1120h166l18 -168q98 195 332 195q173 0 256.5 -111.5t83.5 -341.5v-694h-185v694q0 151 -52.5 222t-165.5 71q-131 0 -200 -90t-69 -264v-1059h-184v1546z" />
    <glyph glyph-name="uni0581" unicode="&#x581;" 
d="M597 -440q-154 0 -325 55v182q100 -47 179 -68.5t152 -21.5q145 0 212 82.5t67 255.5v133q-86 -186 -301 -186q-133 0 -230.5 71t-150.5 201t-53 306t52.5 305.5t150.5 200.5t232 71q210 0 300 -176l18 145h166v-1044q0 -512 -469 -512zM616 145q132 0 199 108t67 316
q0 422 -267 422q-132 0 -203 -106.5t-71 -314.5q0 -209 71.5 -317t203.5 -108z" />
    <glyph glyph-name="uni0582" unicode="&#x582;" 
d="M309 1120h184v-977h550v-143h-734v1120z" />
    <glyph glyph-name="uni0583" unicode="&#x583;" 
d="M533 96q-37 -66 -86 -94.5t-114 -28.5q-130 0 -183 107q-26 54 -36 132t-10 181v727h168v-641q0 -149 8.5 -209.5t20.5 -86.5q27 -56 102 -56q43 0 65.5 17t34.5 44q17 37 23.5 108t6.5 183v1077h167v-532q37 66 86 94.5t115 28.5q129 0 182 -107q26 -54 36 -132t10 -181
v-727h-168v641q0 143 -8 207t-20 89q-27 56 -105 56q-68 0 -90 -44t-30 -110q-4 -32 -6 -73t-2 -92v-1100h-167v522z" />
    <glyph glyph-name="uni0584" unicode="&#x584;" 
d="M199 -327h-120v143h120v1304h167l18 -143q92 170 300 170q200 0 316.5 -158t116.5 -434q0 -272 -115 -427q-57 -76 -136.5 -116.5t-182.5 -40.5q-207 0 -299 170v-325h754v-143h-754v-99h-185v99zM656 127q134 0 201 109q67 106 67 323q0 432 -268 432q-272 0 -272 -432
t272 -432z" />
    <glyph glyph-name="uni0585" unicode="&#x585;" 
d="M616 -29q-235 0 -357 149.5t-122 437.5q0 286 123 437.5t356 151.5t356.5 -151.5t123.5 -437.5t-123 -436.5t-357 -150.5zM616 127q285 0 285 432t-285 432q-284 0 -284 -432t284 -432z" />
    <glyph glyph-name="uni0586" unicode="&#x586;" 
d="M481 -5q-80 0 -142.5 16t-115.5 42q-56 28 -103.5 66.5t-94.5 90.5l123 128q33 -45 68.5 -81.5t75.5 -62.5q82 -56 189 -56v814q-196 0 -308.5 85t-112.5 221q0 142 114 221q113 77 316 77h175v-441q276 0 394 -140t118 -397q0 -172 -50.5 -303.5t-163.5 -205.5t-298 -74
v-421h-184v421zM481 1414q-125 0 -183 -39.5t-58 -106.5q0 -72 61 -112.5t180 -40.5v299zM665 138q94 0 157.5 33t102.5 92q38 59 54.5 138.5t16.5 176.5q0 118 -27.5 202t-99 128t-204.5 44v-814z" />
    <glyph glyph-name="uni0587" unicode="&#x587;" 
d="M450 -29q-173 0 -255.5 112t-82.5 341v1132h184v-1132q0 -151 53.5 -222t165.5 -71q132 0 200 90.5t68 263.5v635h185v-977h232v-143h-417v168q-99 -197 -333 -197z" />
    <glyph glyph-name="uni10D0" unicode="&#x10d0;" 
d="M609 0q-224 0 -336.5 116t-112.5 322q0 63 15 110.5t65 111.5h190q-51 -61 -68 -103.5t-17 -103.5q0 -141 68 -224.5t204 -83.5t204 84.5t68 236.5q0 116 -43.5 188.5t-145.5 113.5q-292 102 -294 378h181q2 -161 127 -212q195 -74 278 -181.5t83 -283.5
q0 -218 -116.5 -343.5t-349.5 -125.5z" />
    <glyph glyph-name="uni10D1" unicode="&#x10d1;" 
d="M621 0q-230 0 -346 138t-116 393q0 233 97.5 357t291.5 168v138q0 54 -24.5 83t-62 42t-75.5 23q-71 17 -106 67t-35 149h181q0 -89 126 -116q161 -57 161 -242v-144q185 -64 274 -188t89 -344q0 -251 -113.5 -387.5t-341.5 -136.5zM620 145q136 0 202 101t66 292
q0 193 -66.5 285.5t-204.5 92.5q-272 0 -272 -374q0 -193 69 -295t206 -102z" />
    <glyph glyph-name="uni10D2" unicode="&#x10d2;" 
d="M638 -425q-182 0 -299 66.5t-172.5 171t-55.5 218.5q0 117 58.5 226t178 179t303.5 73q49 37 79.5 98t30.5 121q0 69 -49 122t-168 53q-178 0 -178 -141q0 -42 15 -87l-137 -82q-46 76 -46 182q0 137 86 203.5t270 66.5q389 0 389 -293q0 -166 -122 -248v-20
q151 -56 225.5 -164t74.5 -280q0 -232 -128 -348.5t-355 -116.5zM616 -276q163 0 245 80t82 225q0 118 -47.5 192.5t-122.5 109.5t-156 35t-156.5 -35t-123.5 -110t-48 -193q0 -144 81.5 -224t245.5 -80z" />
    <glyph glyph-name="uni10D3" unicode="&#x10d3;" 
d="M780 -425q-51 94 -125 135t-155 41q-63 0 -123.5 -21.5t-111.5 -59.5l-44 105q41 44 124 62v11q-146 139 -218 324t-72 399q0 235 85 349.5t241 114.5q57 0 98 -20t91 -78h20q60 98 229 98q359 0 359 -469v-20q0 -506 -343 -506q-345 0 -345 527v234q0 93 -73 93h-43
q-129 0 -129 -316v-109q0 -170 40 -278.5t111.5 -175t165.5 -110.5q107 -51 181 -91.5t130.5 -94t108.5 -143.5zM831 185q81 0 119.5 61.5t38.5 194.5v212q0 241 -149 241h-71q-119 0 -119 -182v-247q0 -280 181 -280z" />
    <glyph glyph-name="uni10D4" unicode="&#x10d4;" 
d="M631 -425q-235 0 -353 102.5t-118 282.5q0 82 29.5 142t111.5 124h188q-72 -60 -108 -119t-36 -141q0 -117 72 -183t218 -66q264 0 264 241v676q0 269 -242 269q-232 0 -232 -222q0 -111 62 -212l-176 -1q-30 40 -43 94t-13 108q0 126 58 209t149.5 124.5t191.5 41.5
q105 0 201.5 -45.5t158 -136.5t61.5 -230v-665q0 -393 -444 -393z" />
    <glyph glyph-name="uni10D5" unicode="&#x10d5;" 
d="M624 -425q-234 0 -350 102.5t-116 279.5q0 64 21 111t86 117h192q-68 -77 -90 -120.5t-22 -100.5q0 -115 68.5 -181t211.5 -66q127 0 196 55.5t69 167.5v98q0 243 -237 243h-73v140h73q113 0 169.5 75t56.5 170q0 58 -23.5 112.5t-77.5 89.5t-146 35q-103 0 -170.5 -50.5
t-67.5 -150.5q0 -39 11.5 -93t34.5 -116h-161q-60 83 -60 208q0 172 109 258t311 86q217 0 322 -96t105 -273q0 -123 -54 -197.5t-175 -123.5v-20q237 -43 237 -301v-79q0 -191 -115 -285.5t-335 -94.5z" />
    <glyph glyph-name="uni10D6" unicode="&#x10d6;" 
d="M640 0q-457 0 -457 503q0 331 200 405v20q-107 32 -153 105t-46 191q0 332 341 332t341 -317q0 -159 -93 -246v-20q326 -45 326 -468q0 -505 -459 -505zM533 983q90 0 133 55t43 151q0 122 -56 174t-123 52q-69 0 -124 -53.5t-55 -169.5q0 -98 45.5 -153.5t136.5 -55.5z
M641 145q136 0 204.5 91.5t68.5 256.5q0 134 -39.5 218.5t-101.5 124t-130 39.5t-130.5 -39.5t-102 -124.5t-39.5 -220q0 -165 67.5 -255.5t202.5 -90.5z" />
    <glyph glyph-name="uni10D7" unicode="&#x10d7;" 
d="M409 0q-174 0 -269 130t-95 389v30q0 486 374 486q74 0 129 -22t95 -77h14q43 56 90.5 77.5t107.5 21.5q151 0 232 -112.5t81 -338.5v-67q0 -350 -239 -517h-162q212 174 212 496v117q0 281 -132 281h-33q-83 0 -83 -182v-220q0 -254 -79 -373t-243 -119zM405 145
q165 0 165 243v361q0 145 -68 145l-87 -1q-91 -1 -135.5 -66.5t-44.5 -205.5v-189q0 -148 41.5 -217.5t128.5 -69.5z" />
    <glyph glyph-name="uni10D8" unicode="&#x10d8;" 
d="M396 0q-124 108 -180 244.5t-56 306.5q0 494 459 494q455 0 455 -491q0 -174 -58 -312.5t-182 -241.5h-146q98 126 149.5 277t51.5 288q0 95 -27 171t-86.5 121t-157.5 45q-129 0 -200.5 -87.5t-71.5 -262.5q0 -284 198 -552h-148z" />
    <glyph glyph-name="uni10D9" unicode="&#x10d9;" 
d="M630 -423q-236 0 -354 106.5t-118 300.5q0 79 24 138t88 119h173q-50 -59 -74 -117t-24 -134q0 -130 71 -201t213 -71q259 0 259 252v50q0 272 -238 272h-65v152h65q115 0 171.5 50t56.5 141q0 121 -102.5 179t-319.5 58v154q301 0 451.5 -96.5t150.5 -277.5
q0 -107 -59.5 -172.5t-206.5 -94.5v-20q139 -24 211.5 -109.5t72.5 -235.5v-50q0 -393 -446 -393z" />
    <glyph glyph-name="uni10DA" unicode="&#x10da;" 
d="M762 -425q-24 113 -106.5 169.5t-174.5 56.5q-53 0 -100.5 -18.5t-81.5 -56.5l-77 95q62 91 174 104l13 14q-125 130 -187 293.5t-62 341.5q0 471 452 471q233 0 347.5 -117.5t114.5 -334.5q0 -83 -15 -122t-44 -88q-16 -28 -30 -66.5t-14 -104.5q0 -20 1.5 -38t3.5 -38
l-159 -1q-6 48 -6 90q0 59 9.5 91.5t22.5 59.5q20 42 33 84.5t13 117.5q0 326 -274 326q-139 0 -204.5 -84t-65.5 -262q0 -168 48.5 -289.5t118.5 -205t137 -136.5q76 -63 145.5 -123t113.5 -118t44 -111h-190z" />
    <glyph glyph-name="uni10DB" unicode="&#x10db;" 
d="M616 0q-470 0 -470 525q0 260 115.5 390.5t336.5 130.5q105 0 170 -30t101 -95h20v258q0 83 -41.5 135.5t-105.5 77t-132 24.5q-60 0 -114.5 -18t-88.5 -52.5t-34 -82.5v-62h-187v62q0 294 415 294q463 0 463 -378v-684q0 -495 -448 -495zM628 145q121 0 184.5 88.5
t63.5 272.5q0 196 -69 296t-194 100q-97 0 -158.5 -54.5t-91 -140.5t-29.5 -180q0 -95 31 -183t96 -143.5t167 -55.5z" />
    <glyph glyph-name="uni10DC" unicode="&#x10dc;" 
d="M607 0q-448 0 -448 490v694q-2 347 332 347h462v-143h-482q-141 0 -141 -176v-294h35q35 66 95 97t167 31q219 0 333 -127t114 -388q0 -259 -116 -395t-351 -136zM609 146q280 0 280 388q0 370 -274 370q-277 0 -277 -378q0 -380 271 -380z" />
    <glyph glyph-name="uni10DD" unicode="&#x10dd;" 
d="M254 0q-199 223 -199 461v102q0 236 95.5 354t263.5 118q71 0 112.5 -23.5t84.5 -80.5h17q44 63 84 83.5t101 20.5q170 0 267.5 -118t97.5 -356v-107q0 -236 -188 -454h-179q179 194 179 399v281q0 216 -153 214h-75q-64 0 -64 -207v-277h-160v277q0 207 -66 207h-77
q-148 0 -148 -228v-260q0 -215 201 -406h-194z" />
    <glyph glyph-name="uni10DE" unicode="&#x10de;" 
d="M619 0q-220 0 -339.5 107.5t-119.5 321.5q0 189 101 278h175q-91 -124 -91 -276q0 -143 72.5 -214.5t203.5 -71.5q137 0 202 79.5t65 244.5q0 335 -276 335h-63v135h82q105 0 160.5 50t55.5 116q0 69 -67.5 133.5t-211.5 82.5q-292 54 -292 230h172q0 -71 239 -112
q171 -20 257 -94t86 -210q0 -96 -44.5 -163t-141.5 -99v-20q121 -58 176.5 -150.5t55.5 -245.5q0 -223 -112.5 -340t-344.5 -117z" />
    <glyph glyph-name="uni10DF" unicode="&#x10df;" 
d="M607 -423q-447 0 -448 367h187q-2 -227 263 -227q291 0 291 267v936l-435 -52v-60q110 -43 165.5 -126t55.5 -192q0 -159 -127.5 -237t-399.5 -79v167q201 0 280 38t79 126q0 103 -92 189.5t-267 120.5v130l916 129v-1092q0 -405 -468 -405z" />
    <glyph glyph-name="uni10E0" unicode="&#x10e0;" 
d="M265 0q-210 210 -210 490v103q0 126 41 268t132 278t237.5 246.5t358.5 171.5l25 -148q-362 -82 -580 -435h24l86 61q165 0 237 -98h15q72 98 230 98q317 0 317 -439v-142q0 -246 -208 -454h-197q216 184 216 403v193q0 298 -132 298h-88q-65 0 -65 -167v-317h-160l1 317
q2 167 -73 167h-124q-103 0 -103 -293v-165q0 -251 230 -436h-210z" />
    <glyph glyph-name="uni10E1" unicode="&#x10e1;" 
d="M618 0q-226 0 -342.5 129t-116.5 386v1006h182v-1006q0 -370 277 -370q137 0 204 92t67 259q0 100 -29 163t-106 112q-49 32 -92.5 72t-43.5 113t53 142t153 129l87 -124q-77 -30 -109.5 -59t-32.5 -58q0 -44 51.5 -85.5t101.5 -73.5q86 -55 119.5 -132.5t33.5 -198.5
q0 -239 -113.5 -367.5t-343.5 -128.5z" />
    <glyph glyph-name="uni10E2" unicode="&#x10e2;" 
d="M598 -423q-261 0 -407 177.5t-146 530.5q0 632 506 716l-15 257h166l-15 -261q123 -20 216.5 -88.5t156.5 -170.5t95 -225t32 -252t-33.5 -251t-104.5 -220t-183 -155.5t-268 -57.5zM618 -283q193 0 290.5 144t97.5 423q0 246 -77 396t-242 208l15 -539h-165l14 538
q-163 -57 -240.5 -207t-77.5 -398q0 -565 385 -565z" />
    <glyph glyph-name="uni10E3" unicode="&#x10e3;" 
d="M658 -423q-238 0 -358 107t-120 297q0 89 31 150.5t114 114.5h179q-78 -72 -108 -131t-30 -132q0 -124 73.5 -195t220.5 -71q260 0 260 240v746q0 92 -38 141.5t-84 49.5q-51 0 -95.5 -65t-44.5 -206l-10 -193h-133l-9 193q0 269 -110 271q-37 -2 -55.5 -18t-37.5 -50
q-12 -22 -31.5 -44.5t-60.5 -22.5q-73 0 -156 95l50 181q34 -53 58.5 -75.5t52.5 -22.5t44.5 16t30.5 34q18 24 40 36.5t57 12.5q56 0 98 -39.5t83 -144.5h20q44 109 96 146t129 37q130 0 207 -82.5t77 -249.5v-746q0 -380 -440 -380z" />
    <glyph glyph-name="uni10E4" unicode="&#x10e4;" 
d="M655 -425q-430 0 -430 389h183q0 -247 249 -247h47q278 0 278 222v101q0 166 -57 168h-80v151h80q54 1 54 149v182q0 204 -100 204h-83q-59 0 -59 -123v-202q0 -164 -52.5 -270.5t-134.5 -158.5t-170 -52q-84 0 -161 46.5t-125.5 138t-48.5 224.5v128q0 205 94.5 307.5
t269.5 102.5q75 0 126 -21.5t90 -77.5h17q96 99 236 99q145 0 217.5 -101.5t72.5 -290.5q0 -137 -39 -219.5t-119 -126.5v-20q161 -92 161 -233v-105q0 -364 -460 -364h-56zM409 215q159 0 159 261v251q0 167 -94 167h-77q-162 0 -162 -262v-120q0 -297 174 -297z" />
    <glyph glyph-name="uni10E5" unicode="&#x10e5;" 
d="M598 -425q-230 0 -349 111t-119 294q0 82 29 136.5t105 115.5l176 -1q-70 -71 -97.5 -125.5t-27.5 -122.5q0 -120 72.5 -193t210.5 -73q143 0 206.5 86.5t64.5 263.5l1 296q1 274 -72.5 407t-233.5 133q-88 0 -134 -42.5t-46 -140.5q0 -64 21 -137t61 -113h-179
q-37 57 -53.5 126.5t-16.5 137.5q0 112 39 181t102.5 100t137.5 31q104 0 202 -52t154 -138h17l1 665h173v-1454q0 -253 -109.5 -372.5t-335.5 -119.5z" />
    <glyph glyph-name="uni10E6" unicode="&#x10e6;" 
d="M773 -425q-16 93 -95.5 152.5t-177.5 59.5q-51 0 -102 -19t-96 -61l-65 92q58 84 122 85v22q-304 261 -304 556v80q0 248 88 371t253 123q76 0 126.5 -26t88.5 -78h16q71 104 224 104q160 0 243.5 -113t83.5 -337v-70q0 -246 -169 -421l-140 -1q120 166 120 341v219
q0 240 -134 240h-100q-58 0 -58 -175v-309h-160v309q0 175 -65 175h-76q-151 0 -151 -262v-138q0 -124 31 -213t81 -150.5t107.5 -102.5t111.5 -71q104 -59 179.5 -108.5t129 -113t91.5 -161.5z" />
    <glyph glyph-name="uni10E7" unicode="&#x10e7;" 
d="M628 -423q-470 0 -470 400h188q0 -261 283 -261q266 0 266 241v244h-20q-46 -50 -110 -74t-159 -24q-223 0 -335.5 124t-112.5 335q0 153 65 257.5t214 195.5h216q-113 -79 -180.5 -148t-97.5 -143t-30 -166q0 -143 69 -225t217 -82q121 0 192.5 58.5t71.5 176.5v521h179
v-1054q0 -376 -446 -376z" />
    <glyph glyph-name="uni10E8" unicode="&#x10e8;" 
d="M662 0q-130 0 -225 45t-157 121.5t-92 170.5t-30 193q0 130 51 248.5t152.5 193t251.5 74.5q93 0 160 -32t102 -98h20v289q0 213 -142 213q-141 0 -141 -210v-33h-157v35q0 104 -40.5 156t-102.5 52q-56 0 -79 -49t-23 -177h-155q0 187 55.5 275.5t170.5 88.5
q85 0 148 -47t95 -146h20q32 100 87.5 146.5t156.5 46.5q142 0 214 -82.5t72 -237.5l2 -759q1 -233 -104 -355t-310 -122zM637 145q131 0 192 88t61 272q0 203 -69.5 301t-207.5 98q-267 0 -267 -366q0 -200 76.5 -296.5t214.5 -96.5z" />
    <glyph glyph-name="uni10E9" unicode="&#x10e9;" 
d="M160 1214q0 172 91.5 257t283.5 85q181 0 286.5 -78t119.5 -235q2 -96 -96 -257q120 -52 175.5 -176.5t55.5 -280.5q0 -177 -69.5 -305t-210.5 -224h-178q90 66 150 157.5t90 191.5t30 194q0 93 -29 170.5t-87 123.5t-145 46q-8 1 -16.5 1h-16.5q-258 0 -258 -297v-587
h-178zM366 917q51 104 253 104q47 0 103 -6q56 136 56 209q-29 191 -241 191q-103 0 -152 -51.5t-49 -162.5v-284h30z" />
    <glyph glyph-name="uni10EA" unicode="&#x10ea;" 
d="M636 -423q-278 0 -414 173.5t-136 533.5v97q0 324 209 680l145 -76q-165 -254 -165 -543v-158q0 -289 89 -428t272 -139q153 0 242 94.5t89 276.5q0 120 -42.5 176.5t-139.5 56.5h-184v136h176q83 0 123 47t40 127q0 78 -39.5 112.5t-120.5 64.5q-28 10 -61 29.5t-57 63
t-26 125.5h183q0 -67 33 -106.5t97 -64.5q29 -12 68.5 -33.5t69 -62.5t29.5 -113q0 -81 -44 -140t-127 -102v-20q111 -70 156 -145.5t45 -193.5q0 -213 -130 -340.5t-380 -127.5z" />
    <glyph glyph-name="uni10EB" unicode="&#x10eb;" 
d="M593 0q-455 0 -455 515q0 531 456 531q214 0 263 -115h20v590h178v-1004q0 -517 -462 -517zM592 145q277 0 277 376q0 382 -274 382q-270 0 -270 -387q0 -189 65 -280t202 -91z" />
    <glyph glyph-name="uni10EC" unicode="&#x10ec;" 
d="M589 0q-205 0 -316.5 132t-111.5 395v709q0 161 75 240.5t213 79.5q98 0 154.5 -45t89.5 -148h20q30 95 92.5 144t149.5 49q115 0 170 -88.5t55 -275.5h-153q0 128 -23 177t-79 49q-62 0 -102.5 -52t-40.5 -156v-35h-157v33q0 210 -141 210q-142 0 -142 -213v-289h20
q35 66 103.5 98t159.5 32q149 0 249 -75t150 -194t50 -250q0 -98 -28.5 -192t-88 -169.5t-151 -120.5t-217.5 -45zM889 522q0 130 -40.5 214.5t-104.5 126.5t-134 42q-64 0 -124.5 -37t-99.5 -115.5t-39 -203.5q0 -126 40 -216.5t104 -138.5t136 -48q65 0 125.5 41.5
t98.5 125t38 209.5z" />
    <glyph glyph-name="uni10ED" unicode="&#x10ed;" 
d="M618 -423q-230 0 -344 101t-114 284q0 70 18.5 118t62.5 101l143 -105q-38 -36 -38 -110q0 -82 39 -137.5t100.5 -83.5t129.5 -28t130.5 28.5t102.5 86.5t40 144q0 163 -176 263q-113 113 -116 213l-89 -19q-309 0 -309 328q0 333 321 333l77 -9v436h157v-511
q94 -59 95 -164h184v-162h-189q0 -105 -82 -160l-1 -72q2 -66 173 -170q143 -98 143 -309q0 -194 -114 -295t-344 -101zM540 562q84 0 125 51q20 26 30 63.5t10 79.5q0 105 -52 153t-115 48q-62 0 -114 -47.5t-52 -157.5q0 -90 41.5 -140t126.5 -50z" />
    <glyph glyph-name="uni10EE" unicode="&#x10ee;" 
d="M638 0q-459 0 -459 525v996h171v-607h41q42 73 104.5 102.5t158.5 29.5q212 0 327 -130.5t115 -393.5q0 -522 -458 -522zM639 145q270 0 270 379q0 380 -270 380q-274 0 -274 -380q0 -379 274 -379z" />
    <glyph glyph-name="uni10EF" unicode="&#x10ef;" 
d="M613 -423q-228 0 -341 116.5t-113 320.5q0 87 23.5 148t83.5 143l144 -89q-40 -66 -52 -106.5t-12 -82.5q0 -97 39.5 -166.5t102 -106t129.5 -36.5q69 0 131 37t101 107t39 168q0 93 -44.5 173t-148.5 166q-171 173 -171 306v160l-327 120v180l327 -128v232h146v-269
l336 -127v-177l-336 134v-125q0 -72 215 -258q104 -104 147.5 -194t43.5 -207q0 -202 -116 -320.5t-347 -118.5z" />
    <glyph glyph-name="uni10F0" unicode="&#x10f0;" 
d="M604 0q-464 0 -464 416v101h188v-101q-2 -276 267 -276q103 0 163.5 34t87.5 86t27 105q0 63 -31.5 112.5t-79.5 49.5h-251v150h251q50 0 75.5 37.5t25.5 81.5q0 45 -25.5 81.5t-75.5 36.5h-251v152h249q45 0 68.5 35t23.5 81q0 39 -21 62t-76.5 38.5t-158.5 33.5
q-27 4 -66.5 14.5t-77.5 35t-63.5 70t-25.5 120.5h166q0 -51 40 -79.5t103.5 -43.5t132.5 -24q26 -3 65 -11.5t77.5 -30t64.5 -62t26 -107.5q0 -144 -144 -191v-20q154 -53 154 -189q0 -128 -148 -186v-20q86 -54 122 -109.5t36 -140.5q0 -159 -114 -250.5t-340 -91.5z" />
    <glyph glyph-name="uni10F1" unicode="&#x10f1;" 
d="M660 -423q-286 0 -404 129t-118 396q0 95 13.5 235.5t41.5 279.5q8 40 13 75t5 85q0 91 -17 185.5t-51 200.5h185q58 -178 58 -377q0 -40 -2.5 -82.5t-8.5 -86.5q-19 -77 -29.5 -178t-15.5 -196t-5 -153q0 -76 12 -143.5t47.5 -119.5t105 -81.5t184.5 -29.5q127 0 184 42
t57 137q0 75 -33.5 128t-100.5 53h-136v142h136q134 0 134 142q0 74 -33 115.5t-99 41.5h-138v138h138q132 0 132 151q0 136 -134 136h-136v145h136q65 0 99.5 31.5t34.5 73.5q0 46 -44.5 90t-141.5 62q-145 34 -146 212h166q0 -46 56.5 -73.5t132.5 -53.5q22 -8 59.5 -26.5
t67.5 -59.5t30 -114q0 -165 -179 -199v-20q179 -41 179 -204q0 -82 -43.5 -140t-135.5 -72v-20q89 -17 134 -75t45 -139q0 -78 -43 -126.5t-136 -74.5v-20q179 -57 179 -261q0 -301 -435 -301z" />
    <glyph glyph-name="uni10F2" unicode="&#x10f2;" 
d="M201 -60q149 0 229 89q-270 169 -270 492q0 173 67.5 289.5t172.5 176t220 59.5q114 0 218.5 -59t171 -175t66.5 -288q0 -324 -281 -495q91 -94 235 -89v-209q-264 69 -414 263q-193 -193 -415 -263v209zM616 118q143 46 208 145.5t65 266.5q0 180 -68.5 276t-205.5 96
q-136 0 -203 -95.5t-67 -273.5q0 -167 63 -267t208 -148z" />
    <glyph glyph-name="uni10F3" unicode="&#x10f3;" 
d="M618 -283q268 0 268 263v32q0 300 -318 298h-114v160h114q148 0 218 93.5t68 263.5l-1 74l-480 -30v-204h-173v349l876 29q0 -465 -276 -649q276 -112 276 -384v-32q0 -134 -67.5 -224t-173 -135t-219.5 -45q-115 0 -219.5 45t-171 134.5t-66.5 224.5l31 111l180 -20
l-21 -91q2 -263 269 -263z" />
    <glyph glyph-name="uni10F4" unicode="&#x10f4;" 
d="M609 -425q-458 0 -458 405h190q0 -264 267 -264q269 0 269 264v55q0 236 -275 236h-156v157h156q276 10 276 425q-64 -20 -133 -28.5t-140 -8.5q-232 0 -343 89t-111 270q0 184 113 283.5t346 98.5v-142q-156 0 -234 -61.5t-78 -175.5q0 -219 300 -219q133 0 245 42
t224 126v-264q0 -393 -308 -500v-20q309 -61 309 -308v-55q0 -405 -459 -405z" />
    <glyph glyph-name="uni10F5" unicode="&#x10f5;" 
d="M565 0q-451 0 -451 341q0 173 112.5 263.5t339.5 90.5h273v161h-273q-227 0 -339.5 92t-112.5 266q0 343 453 343q224 0 333 -82.5t109 -254.5v-216h114v-148h-114v-161h114v-178h-114v-182q0 -335 -444 -335zM839 1004v216q0 195 -267 195q-268 0 -268 -202
q0 -209 262 -209h273zM571 140q268 0 268 211v196h-273q-262 0 -262 -204q0 -203 267 -203z" />
    <glyph glyph-name="uni10F6" unicode="&#x10f6;" 
d="M360 -282q183 0 174 231v777q0 178 -77 178l-97 -1q-115 -1 -115 -188v-319q0 -217 128 -217v-148q-318 3 -318 379v240q0 396 305 396q184 0 251 -145h16q61 145 245 145q306 0 306 -396v-244q0 -204 -77 -305t-220 -101q-70 0 -108.5 26.5t-53.5 89.5h-15v-152
q-10 -388 -344 -388v142zM864 145q65 0 95 39.5t30 127.5v417q0 175 -136 175h-76q-73 0 -73 -167v-381q0 -106 42 -158.5t118 -52.5z" />
    <glyph glyph-name="uni10F7" unicode="&#x10f7;" 
d="M623 -423q-191 0 -304.5 61.5t-163 161t-49.5 213.5q0 149 79.5 274t248.5 197q52 22 108.5 42t105.5 46t79.5 66.5t30.5 104.5q0 69 -40 114.5t-125 45.5q-76 0 -122.5 -40t-46.5 -119l5 -56l-165 -21l-10 65q0 158 88 236t254 78q122 0 199.5 -38.5t114.5 -101.5
t37 -137q0 -117 -86.5 -231t-251.5 -179q-106 -27 -175 -85t-103 -131.5t-34 -146.5q0 -72 33.5 -136t105 -104t185.5 -40q146 0 230.5 74t84.5 223q0 123 -64 177l154 92q100 -111 100 -286q0 -208 -134 -313.5t-369 -105.5z" />
    <glyph glyph-name="uni10F8" unicode="&#x10f8;" 
d="M638 -423q-459 0 -459 396v1049h173v-564q0 -95 75 -143t195 -48q148 0 216.5 72t68.5 218q0 144 -65 248t-198 196l171 63q132 -106 206 -257t74 -295q0 -108 -46.5 -198.5t-146.5 -144.5t-258 -54h-2q-184 0 -270 89h-20v-227q0 -87 40 -145t103 -87t133 -29t133.5 29
t104.5 87t41 145h187q-1 -400 -456 -400z" />
    <glyph glyph-name="uni10F9" unicode="&#x10f9;" 
d="M628 -425q-181 0 -267.5 76t-86.5 228q0 125 59 202t180 121q-211 44 -311.5 150t-100.5 266q0 148 73.5 246t189.5 147t242 49q127 0 243.5 -49.5t190.5 -146t74 -239.5q0 -140 -86.5 -251.5t-275.5 -200.5q-167 -67 -230.5 -135.5t-63.5 -156.5q0 -77 41.5 -121
t131.5 -44q78 0 129 35.5t51 105.5v76h178v-76q0 -141 -94.5 -211.5t-266.5 -70.5zM612 326q166 22 240.5 97t74.5 206q0 140 -78.5 214t-237.5 74q-160 0 -239.5 -74.5t-79.5 -213.5t80 -211.5t240 -91.5z" />
    <glyph glyph-name="uni10FA" unicode="&#x10fa;" 
d="M751 -134q0 2 -21 26t-37 40q-28 27 -63.5 43.5t-88.5 16.5q-69 0 -117 -29.5t-81 -86.5l-130 74q67 102 183 126v30q-119 87 -177.5 213t-58.5 284q0 225 121 333t363 110q431 -35 431 -355q0 -183 -143 -464l-145 61q108 240 108 385q0 230 -260 230
q-146 0 -214.5 -75.5t-68.5 -238.5q0 -136 49.5 -243t159.5 -199q178 -42 302 -189l-112 -93v1z" />
    <glyph glyph-name="uni10FC" unicode="&#x10fc;" 
d="M606 757q-96 0 -148.5 71t-52.5 215v332q0 181 185 181h235v-82l-258 2q-70 0 -70 -81v-158l123 79q69 0 115 -40t69 -104t23 -135q0 -70 -23 -134t-72 -105t-126 -41zM618 836q57 0 86.5 53.5t29.5 145.5q0 188 -114 188q-67 0 -94.5 -60t-27.5 -132q0 -74 28.5 -134.5
t91.5 -60.5z" />
    <glyph glyph-name="uni0030" unicode="0" 
d="M616 -29q-240 0 -361 196q-122 197 -122 578q0 382 122 579q121 196 361 196t362 -196q60 -96 91 -239.5t31 -339.5t-31 -339t-91 -239q-123 -196 -362 -196zM616 131q143 0 212 152q69 151 69 462q0 312 -69 462q-69 153 -212 153q-141 0 -210 -152
q-35 -75 -52.5 -188.5t-17.5 -274.5q0 -313 70 -462q70 -152 210 -152zM618 396q-32 0 -49.5 43t-29.5 101q-10 46 -16.5 111t-6.5 99q0 24 4 86t16 117q29 143 78 143q28 0 47.5 -38t33.5 -108q10 -50 16 -112t6 -96q0 -20 -3.5 -79t-13.5 -121q-25 -146 -82 -146z" />
    <glyph glyph-name="uni0031" unicode="1" 
d="M270 170h314v1071l-238 -271l-110 134l346 389h202v-1323h310v-170h-824v170z" />
    <glyph glyph-name="uni0032" unicode="2" 
d="M152 134q0 37 25 62q57 60 135 142.5t167 179.5q68 74 102.5 111.5t52.5 58t37 43.5q53 64 84.5 109t51.5 89q35 78 35 156q0 124 -73 194q-74 71 -203 71q-179 0 -402 -133v204q102 49 203 74q99 25 196 25q104 0 195 -28t159 -88q60 -53 96 -129.5t36 -172.5
q0 -98 -44 -197q-22 -50 -56.5 -97.5t-88.5 -112.5q-29 -34 -69 -79t-93 -102q-38 -41 -70.5 -74t-68.5 -68.5t-82.5 -83t-113.5 -118.5h696v-170h-907v134z" />
    <glyph glyph-name="uni0033" unicode="3" 
d="M566 -29q-48 0 -100.5 4.5t-106.5 14.5q-46 8 -101 22t-109 33v204q51 -26 100 -47t101 -35q50 -13 98.5 -19.5t98.5 -6.5q167 0 255 75q89 76 89 213q0 134 -88 210t-242 76h-154v166h154q141 0 218 61q77 60 77 173t-72 174q-70 61 -210 61q-83 0 -181 -20
q-96 -19 -199 -60v186q122 32 216 48q89 16 169 16q105 0 193.5 -27t154.5 -82q129 -107 129 -289q0 -65 -17.5 -116t-50.5 -91q-68 -81 -200 -116q147 -39 225 -138q41 -52 59.5 -115t18.5 -135q0 -204 -137 -322q-68 -58 -164.5 -88t-223.5 -30z" />
    <glyph glyph-name="uni0034" unicode="4" 
d="M735 356h-633v191l600 946h234v-973h199v-164h-199v-356h-201v356zM735 520v789l-471 -789h471z" />
    <glyph glyph-name="uni0035" unicode="5" 
d="M525 -29q-45 0 -100.5 4t-104.5 12q-51 8 -94 20t-83 28v205q94 -50 185 -74q93 -25 185 -25q175 0 263 88q90 89 90 248q0 87 -25 149t-68 103q-42 40 -108 64t-157 24q-78 0 -154 -18q-78 -19 -147 -56v750h756v-170h-572v-367q43 16 87 24q38 7 88 7q121 0 213 -37
t155 -100q135 -136 135 -369q0 -239 -141 -375q-69 -66 -168.5 -100.5t-234.5 -34.5z" />
    <glyph glyph-name="uni0036" unicode="6" 
d="M633 -29q-137 0 -228 48.5t-150 139.5q-63 98 -92.5 240t-29.5 325q0 404 145.5 600t419.5 196q41 0 79.5 -4t70.5 -11q40 -8 75.5 -20t67.5 -25v-186q-64 38 -134 57q-35 10 -73 14.5t-73 4.5q-195 0 -293 -144q-99 -146 -99 -426q48 100 133 154q86 53 203 53
q206 0 325.5 -133t119.5 -373q0 -244 -121 -377t-346 -133zM633 129q133 0 200 89q68 89 68 261q0 173 -68 262q-35 46 -86 67t-113 21q-70 0 -121 -24.5t-85 -67.5q-35 -44 -54.5 -108.5t-19.5 -149.5t19.5 -149.5t54.5 -108.5q34 -43 85 -67.5t120 -24.5z" />
    <glyph glyph-name="uni0037" unicode="7" 
d="M854 1323h-715v170h940v-86l-534 -1407h-211z" />
    <glyph glyph-name="uni0038" unicode="8" 
d="M615 -29q-227 0 -355.5 112t-128.5 317q0 159 80 260q79 100 229 133q-61 15 -113 46t-88 76q-38 47 -55.5 103t-17.5 119q0 173 121 279q59 51 140.5 77.5t188.5 26.5q209 0 330 -104q121 -103 121 -280q0 -132 -71.5 -220.5t-202.5 -122.5q151 -33 230 -133t79 -258
q0 -105 -33.5 -184.5t-95.5 -133.5q-130 -113 -358 -113zM616 868q122 0 186 63t64 183q0 122 -63 186q-64 64 -187 64q-121 0 -185 -64t-64 -186q0 -120 64 -183t185 -63zM619 129q133 0 206.5 76.5t73.5 212.5q0 74 -19.5 127t-54.5 88q-75 76 -209 76t-208 -75
q-74 -76 -74 -213q0 -138 74 -215q76 -77 211 -77z" />
    <glyph glyph-name="uni0039" unicode="9" 
d="M528 -29q-37 0 -75.5 3.5t-73.5 11.5q-66 14 -143 45v186q63 -37 134 -56q74 -20 147 -20q193 0 292 145q98 146 98 425q-23 -51 -58 -90t-74 -64q-83 -53 -206 -53q-204 0 -323 133q-119 134 -119 373q0 118 29.5 214.5t92.5 164.5q119 131 345 131q137 0 228 -48.5
t150 -139.5q64 -100 93 -243t29 -323q0 -198 -34.5 -347t-109.5 -250q-147 -198 -422 -198zM593 662q70 0 121 24.5t85 67.5q73 92 73 258t-73 258q-34 43 -85 67.5t-121 24.5q-62 0 -113 -21t-86 -67q-68 -89 -68 -262t68 -262q66 -88 199 -88z" />
    <glyph glyph-name="uni2215" unicode="&#x2215;" 
d="M889 1493h190l-786 -1683h-191z" />
    <glyph glyph-name="uni215F" unicode="&#x215f;" 
d="M104 934h205v611l-223 -41v116l229 39h138v-725h204v-110h-553v110zM27 612l1060 262l27 -108l-1063 -262z" />
    <glyph glyph-name="uni00BD" unicode="&#xbd;" 
d="M104 934h205v611l-223 -41v116l229 39h138v-725h204v-110h-553v110zM27 612l1060 262l27 -108l-1063 -262zM523 -160l231 226q62 60 92 94t50 64q40 61 40 113q0 60 -50 98t-130 38q-52 0 -107 -18q-57 -18 -120 -54v125q67 28 126 42q62 14 122 14q139 0 225 -66
q44 -34 65 -78t21 -94q0 -35 -10 -62.5t-27 -54.5q-45 -69 -156 -178l-211 -205h410v-114h-571v110z" />
    <glyph glyph-name="uni2153" unicode="&#x2153;" 
d="M104 934h205v611l-223 -41v116l229 39h138v-725h204v-110h-553v110zM27 612l1060 262l27 -108l-1063 -262zM758 -285q-110 0 -231 41v121q135 -53 227 -53q102 0 160.5 40t58.5 109q0 150 -219 150h-66v108h74q191 0 191 123q0 57 -47.5 88t-135.5 31q-94 0 -215 -47v121
q69 17 127 26t109 9q144 0 228.5 -59t84.5 -158q0 -145 -172 -183q193 -43 193 -209q0 -125 -94.5 -191.5t-272.5 -66.5z" />
    <glyph glyph-name="uni2154" unicode="&#x2154;" 
d="M64 934l231 226q102 98 142 158q40 61 40 112q0 61 -50 99t-132 38q-99 0 -225 -72v125q66 28 125.5 42t119.5 14q142 0 228 -66.5t86 -173.5q0 -58 -37 -116q-38 -60 -156 -177l-211 -205h410v-114h-571v110zM27 612l1060 262l27 -108l-1063 -262zM758 -285
q-110 0 -231 41v121q135 -53 227 -53q102 0 160.5 40t58.5 109q0 150 -219 150h-66v108h74q191 0 191 123q0 57 -47.5 88t-135.5 31q-94 0 -215 -47v121q69 17 127 26t109 9q144 0 228.5 -59t84.5 -158q0 -145 -172 -183q193 -43 193 -209q0 -125 -94.5 -191.5t-272.5 -66.5
z" />
    <glyph glyph-name="uni00BC" unicode="&#xbc;" 
d="M104 934h205v611l-223 -41v116l229 39h138v-725h204v-110h-553v110zM27 612l1060 262l27 -108l-1063 -262zM839 -84h-387v121l363 528h162v-538h116v-111h-116v-186h-138v186zM839 27v413l-274 -413h274z" />
    <glyph glyph-name="uni00BE" unicode="&#xbe;" 
d="M335 809q-35 0 -63 3t-57 8q-32 6 -59 13t-57 17v121q35 -14 66 -23.5t60 -16.5q51 -13 104 -13q97 0 158 41q26 18 42 46t16 66q0 70 -55 108q-56 38 -164 38h-66v108h74q92 0 142 32q49 31 49 90q0 57 -48 89q-47 31 -132 31q-47 0 -103 -12q-28 -6 -56.5 -15
t-58.5 -20v121q35 8 67 14.5t61 11.5q59 9 110 9q141 0 227 -59q84 -59 84 -157q0 -71 -44 -118t-128 -66q94 -21 144 -75q49 -52 49 -136q0 -121 -95 -189q-95 -67 -267 -67zM27 612l1060 262l27 -108l-1063 -262zM839 -84h-387v121l363 528h162v-538h116v-111h-116v-186
h-138v186zM839 27v413l-274 -413h274z" />
    <glyph glyph-name="uni215B" unicode="&#x215b;" 
d="M104 934h205v611l-223 -41v116l229 39h138v-725h204v-110h-553v110zM27 612l1060 262l27 -108l-1063 -262zM817 -286q-141 0 -221 63.5t-80 175.5q0 183 192 221q-81 18 -125.5 68t-44.5 122q0 99 75 157.5t204 58.5q130 0 205 -58.5t75 -157.5q0 -72 -44.5 -122
t-125.5 -68q192 -38 192 -220q0 -113 -80 -176.5t-222 -63.5zM817 215q155 0 155 138q0 140 -155 140q-154 0 -154 -140q0 -138 154 -138zM817 -198q85 0 130.5 42.5t45.5 120.5t-46 120t-130 42q-175 0 -175 -162q0 -78 46.5 -120.5t128.5 -42.5z" />
    <glyph glyph-name="uni215C" unicode="&#x215c;" 
d="M299 809q-110 0 -231 41v121q135 -53 227 -53q102 0 160.5 40t58.5 109q0 150 -219 150h-66v108h74q191 0 191 123q0 57 -47.5 88t-135.5 31q-94 0 -215 -47v121q69 17 127 26t109 9q144 0 228.5 -59t84.5 -158q0 -145 -172 -183q193 -43 193 -209q0 -125 -94.5 -191.5
t-272.5 -66.5zM27 612l1060 262l27 -108l-1063 -262zM817 -286q-141 0 -221 63.5t-80 175.5q0 183 192 221q-81 18 -125.5 68t-44.5 122q0 99 75 157.5t204 58.5q130 0 205 -58.5t75 -157.5q0 -72 -44.5 -122t-125.5 -68q192 -38 192 -220q0 -113 -80 -176.5t-222 -63.5z
M817 215q155 0 155 138q0 140 -155 140q-154 0 -154 -140q0 -138 154 -138zM817 -198q85 0 130.5 42.5t45.5 120.5t-46 120t-130 42q-175 0 -175 -162q0 -78 46.5 -120.5t128.5 -42.5z" />
    <glyph glyph-name="fiveeighths" unicode="&#x215d;" 
d="M305 809q-148 0 -244 36v114q108 -55 232 -55q105 0 160.5 49t55.5 140q0 90 -58 139.5t-161 49.5q-99 0 -190 -41v418h470v-95h-355v-204q51 17 108 17q143 0 227.5 -76.5t84.5 -207.5q0 -132 -88.5 -208t-241.5 -76zM27 612l1060 262l27 -108l-1063 -262zM817 -286
q-141 0 -221 63.5t-80 175.5q0 183 192 221q-81 18 -125.5 68t-44.5 122q0 99 75 157.5t204 58.5q130 0 205 -58.5t75 -157.5q0 -72 -44.5 -122t-125.5 -68q192 -38 192 -220q0 -113 -80 -176.5t-222 -63.5zM817 215q155 0 155 138q0 140 -155 140q-154 0 -154 -140
q0 -138 154 -138zM817 -198q85 0 130.5 42.5t45.5 120.5t-46 120t-130 42q-175 0 -175 -162q0 -78 46.5 -120.5t128.5 -42.5z" />
    <glyph glyph-name="seveneighths" unicode="&#x215e;" 
d="M503 1564h-444v95h584v-48l-332 -787h-131zM27 612l1060 262l27 -108l-1063 -262zM817 -286q-141 0 -221 63.5t-80 175.5q0 183 192 221q-81 18 -125.5 68t-44.5 122q0 99 75 157.5t204 58.5q130 0 205 -58.5t75 -157.5q0 -72 -44.5 -122t-125.5 -68q192 -38 192 -220
q0 -113 -80 -176.5t-222 -63.5zM817 215q155 0 155 138q0 140 -155 140q-154 0 -154 -140q0 -138 154 -138zM817 -198q85 0 130.5 42.5t45.5 120.5t-46 120t-130 42q-175 0 -175 -162q0 -78 46.5 -120.5t128.5 -42.5z" />
    <glyph glyph-name="uni00B9" unicode="&#xb9;" 
d="M362 1230h205v611l-223 -41v116l229 39h138v-725h204v-110h-553v110z" />
    <glyph glyph-name="uni00B2" unicode="&#xb2;" 
d="M322 1230l231 226q62 60 92.5 94t49.5 64q40 61 40 113q0 60 -50 98t-130 38q-51 0 -107 -18q-57 -18 -120 -54v125q68 28 126 42q62 14 122 14q140 0 225 -66q44 -34 65 -78t21 -94q0 -35 -10 -62.5t-27 -54.5q-45 -69 -156 -178l-211 -205h410v-114h-571v110z" />
    <glyph glyph-name="uni00B3" unicode="&#xb3;" 
d="M562 1109q-35 0 -63 3t-57 8q-32 6 -59 13t-57 17v121q35 -14 66 -23.5t60 -16.5q51 -13 104 -13q97 0 158 41q26 18 42 46t16 66q0 70 -55 108q-56 38 -164 38h-66v108h74q92 0 142 32q49 31 49 90q0 57 -48 89q-47 31 -132 31q-48 0 -103 -12q-28 -6 -56.5 -15
t-58.5 -20v121q35 8 67 14.5t61 11.5q58 9 110 9q141 0 227 -59q84 -59 84 -157q0 -71 -44 -118t-128 -66q95 -21 144 -75q49 -52 49 -136q0 -121 -95 -189q-95 -67 -267 -67z" />
    <glyph glyph-name="asterisk" unicode="*" 
d="M250 486l242 371l-364 158l36 103l376 -123l20 425h108l20 -425l376 123l36 -103l-364 -158l242 -371l-94 -67l-270 357l-270 -357z" />
    <glyph glyph-name="backslash" unicode="\" 
d="M128 1493h191l786 -1683h-190z" />
    <glyph glyph-name="uni2219" unicode="&#x2219;" 
d="M519 559q-30 0 -30 30v245q0 30 30 30h192q30 0 30 -30v-245q0 -30 -30 -30h-192z" />
    <glyph glyph-name="bullet" unicode="&#x2022;" 
d="M614 465q-124 0 -210 86q-85 87 -85 210q0 126 85 211q39 39 93 62t118 23q125 0 212 -85q38 -38 62 -91.5t24 -119.5q0 -123 -87 -210q-89 -86 -212 -86z" />
    <glyph glyph-name="colon" unicode=":" 
d="M620 776q-68 0 -115 47t-47 122t47 122t115 47t115 -47t47 -122t-47 -122t-115 -47zM620 60q-68 0 -115 47t-47 122t47 122t115 47t115 -47t47 -122t-47 -122t-115 -47z" />
    <glyph glyph-name="comma" unicode="," 
d="M400 -283q245 110 252 334q-21 -4 -40 -4q-68 0 -110 39q-44 39 -44 110q0 33 11 62.5t35 50.5q20 17 50 28.5t66 11.5q85 0 132 -68q46 -67 46 -188q0 -170 -92 -295q-92 -123 -260 -185z" />
    <glyph glyph-name="onedotenleader" unicode="&#x2024;" 
d="M519 0q-30 0 -30 30v245q0 30 30 30h192q30 0 30 -30v-245q0 -30 -30 -30h-192z" />
    <glyph glyph-name="twodotenleader" unicode="&#x2025;" 
d="M286 0q-30 0 -30 30v245q0 30 30 30h192q30 0 30 -30v-245q0 -30 -30 -30h-192zM755 0q-30 0 -30 30v245q0 30 30 30h192q30 0 30 -30v-245q0 -30 -30 -30h-192z" />
    <glyph glyph-name="ellipsis" unicode="&#x2026;" 
d="M110 0q-30 0 -30 30v245q0 30 30 30h192q30 0 30 -30v-245q0 -30 -30 -30h-192zM519 0q-30 0 -30 30v245q0 30 30 30h192q30 0 30 -30v-245q0 -30 -30 -30h-192zM929 0q-30 0 -30 30v245q0 30 30 30h192q30 0 30 -30v-245q0 -30 -30 -30h-192z" />
    <glyph glyph-name="exclam" unicode="!" 
d="M481 1053v445h265v-445l-67 -567h-121zM616 -60q-70 0 -116 48q-46 46 -46 125q0 78 46 124q47 47 116 47t116 -47q46 -46 46 -124q0 -79 -46 -125q-46 -48 -116 -48z" />
    <glyph glyph-name="exclamdbl" unicode="&#x203c;" 
d="M271 1053v445h265v-445l-67 -567h-121zM761 1053v445h265v-445l-67 -567h-121zM406 -60q-70 0 -116 48q-46 46 -46 125q0 78 46 124q47 47 116 47t116 -47q46 -46 46 -124q0 -79 -46 -125q-46 -48 -116 -48zM896 -60q-70 0 -116 48q-46 46 -46 125q0 78 46 124
q47 47 116 47t116 -47q46 -46 46 -124q0 -79 -46 -125q-46 -48 -116 -48z" />
    <glyph glyph-name="exclamdown" unicode="&#xa1;" 
d="M626 1498q70 0 116 -48q46 -46 46 -125q0 -78 -46 -124q-47 -47 -116 -47t-116 47q-46 46 -46 124q0 79 46 125q46 48 116 48zM689 952l67 -567v-445h-265v445l77 567h121z" />
    <glyph glyph-name="numbersign" unicode="#" 
d="M260 414h-258v153h297l84 334h-266v154h303l104 415h160l-104 -415h245l105 415h160l-105 -415h244v-154h-281l-84 -334h250v-153h-289l-104 -414h-160l105 414h-246l-105 -414h-159zM705 567l83 334h-245l-84 -334h246z" />
    <glyph glyph-name="period" unicode="." 
d="M613 -27q-68 0 -115 47t-47 122t47 122t115 47t115 -47t47 -122t-47 -122t-115 -47z" />
    <glyph glyph-name="question" unicode="?" 
d="M494 583q0 79 30 146q33 69 115 151l90 89q29 29 51.5 55.5t33.5 47.5q24 44 24 94q0 47 -18 82.5t-47 60.5q-65 55 -173 55q-83 0 -169 -34q-45 -17 -91.5 -43t-95.5 -60v188q96 58 190 85q90 28 195 28q100 0 175.5 -25.5t126.5 -70.5q109 -97 109 -254q0 -81 -34 -145
q-36 -67 -127 -157l-88 -86q-70 -67 -88 -108q-19 -39 -19 -83v-127h-190v111zM593 -40q-62 0 -104 42q-43 43 -43 111q0 67 42 109q17 17 43.5 29.5t60.5 12.5q62 0 104 -42t42 -109q0 -68 -42 -110q-43 -43 -103 -43z" />
    <glyph glyph-name="uni2047" unicode="&#x2047;" 
d="M168 555q0 101 20 168t74 149l59 89q39 59 54.5 102.5t15.5 87.5q0 82 -41.5 122t-107.5 40q-53 0 -100 -29t-108 -94v217q64 61 126 87.5t147 26.5h8t14 -1q128 -11 196 -99t68 -251q0 -76 -21 -142t-83 -160l-57 -86q-45 -69 -57.5 -109.5t-12.5 -101.5v-170h-194v154z
M776 555q0 101 20 168t74 149l59 89q39 59 54.5 102.5t15.5 87.5q0 82 -41.5 122t-107.5 40q-53 0 -100 -29t-108 -94v217q64 61 126 87.5t147 26.5h8t14 -1q128 -11 196 -99t68 -251q0 -76 -21 -142t-83 -160l-57 -86q-45 -69 -57.5 -109.5t-12.5 -101.5v-170h-194v154z
M269 -40q-62 0 -104 42q-43 43 -43 111q0 67 42 109q17 17 43.5 29.5t60.5 12.5q62 0 104 -42t42 -109q0 -68 -42 -110q-43 -43 -103 -43zM881 -40q-62 0 -104 42q-43 43 -43 111q0 67 42 109q17 17 43.5 29.5t60.5 12.5q62 0 104 -42t42 -109q0 -68 -42 -110
q-43 -43 -103 -43z" />
    <glyph glyph-name="questiondown" unicode="&#xbf;" 
d="M656 1252q-62 0 -104 42q-43 43 -43 111q0 67 42 109q17 17 43.5 29.5t60.5 12.5q62 0 104 -42t42 -109q0 -68 -42 -110q-43 -43 -103 -43zM602 -27q-188 0 -298 95q-111 97 -111 256q0 55 13.5 99.5t48.5 91.5t99 110l88 86q30 29 52.5 55t33.5 51q19 39 19 105v5
q1 11 1.5 21.5t0.5 20.5v123h190v-154q0 -98 -30 -166q-31 -70 -115 -151l-90 -89q-20 -20 -46 -48t-40 -55q-13 -24 -18 -50.5t-5 -46.5q0 -43 18 -79.5t47 -60.5q65 -55 173 -55q42 0 83 9t86 26q90 34 187 102v-188q-50 -30 -98 -51t-91 -34q-48 -14 -98.5 -21t-99.5 -7z
" />
    <glyph glyph-name="quotedbl" unicode="&#x22;" 
d="M338 1493h174v-555h-174v555zM721 1493h174v-555h-174v555z" />
    <glyph glyph-name="quotesingle" unicode="'" 
d="M528 1493h174v-555h-174v555z" />
    <glyph glyph-name="semicolon" unicode=";" 
d="M610 703q-72 0 -120 50q-50 48 -50 128q0 78 50 128q48 49 120 49q73 0 121 -49q49 -49 49 -128q0 -80 -49 -128q-48 -50 -121 -50zM394 -361q256 114 265 351q-21 -5 -42 -5q-69 0 -116 41q-46 43 -46 116q0 76 48 118q21 19 52.5 30.5t69.5 11.5q89 0 139 -71
q48 -71 48 -197q0 -180 -97 -310t-273 -194z" />
    <glyph glyph-name="slash" unicode="/" 
d="M889 1493h190l-786 -1683h-191z" />
    <glyph glyph-name="underscore" unicode="_" 
d="M94 -190h1044v-120h-1044v120z" />
    <glyph glyph-name="underscoredbl" unicode="&#x2017;" 
d="M0 -163h1233v-80h-1233v80zM0 -403h1233v-80h-1233v80z" />
    <glyph glyph-name="uni2016" unicode="&#x2016;" 
d="M285 1565h172v-2048h-172v2048zM775 1565h172v-2048h-172v2048z" />
    <glyph glyph-name="uni2023" unicode="&#x2023;" 
d="M319 1137l674 -376l-674 -376v752z" />
    <glyph glyph-name="uni2027" unicode="&#x2027;" 
d="M616 576q-68 0 -115 47t-47 122t47 122t115 47t115 -47t47 -122t-47 -122t-115 -47z" />
    <glyph glyph-name="uni203D" unicode="&#x203d;" 
d="M494 1342q-19 -5 -35 -10t-28 -10q-43 -17 -90.5 -43t-96.5 -60v188q95 58 191 85.5t193 27.5q190 0 301 -96t111 -256q0 -73 -32.5 -140.5t-128.5 -159.5l-88 -86q-47 -46 -70 -78t-30 -62t-7 -71v-170h-190v941zM729 961q57 57 83 98t26 97q0 60 -24.5 99t-60 60
t-69.5 31v-430zM593 -40q-62 0 -104 42q-43 43 -43 111q0 67 42 109q17 17 43.5 29.5t60.5 12.5q62 0 104 -42t42 -109q0 -68 -42 -110q-43 -43 -103 -43z" />
    <glyph glyph-name="uni203E" unicode="&#x203e;" 
d="M0 1547h1233v-80h-1233v80z" />
    <glyph glyph-name="uni203F" unicode="&#x203f;" 
d="M614 -485q-332 0 -682 236v126q172 -106 341 -156q85 -26 167.5 -39t172.5 -13q177 0 345.5 51.5t341.5 156.5v-126q-177 -118 -346.5 -177t-339.5 -59z" />
    <glyph glyph-name="uni2045" unicode="&#x2045;" 
d="M463 1556h424v-143h-240v-699h240v-143h-240v-698h240v-143h-424v1826z" />
    <glyph glyph-name="uni2046" unicode="&#x2046;" 
d="M346 -127h240v698h-240v143h240v699h-240v143h424v-1826h-424v143z" />
    <glyph glyph-name="uni2048" unicode="&#x2048;" 
d="M168 555q0 101 20 168t74 149l59 89q39 59 54.5 102.5t15.5 87.5q0 82 -41.5 122t-107.5 40q-53 0 -100 -29t-108 -94v217q64 61 126 87.5t147 26.5h8t14 -1q128 -11 196 -99t68 -251q0 -76 -21 -142t-83 -160l-57 -86q-45 -69 -57.5 -109.5t-12.5 -101.5v-170h-194v154z
M781 1053v445h265v-445l-67 -567h-121zM273 -40q-62 0 -104 42q-43 43 -43 111q0 67 42 109q17 17 43.5 29.5t60.5 12.5q62 0 104 -42t42 -109q0 -68 -42 -110q-43 -43 -103 -43zM915 -40q-62 0 -104 42q-43 43 -43 111q0 67 42 109q17 17 43.5 29.5t60.5 12.5q62 0 104 -42
t42 -109q0 -68 -42 -110q-43 -43 -103 -43z" />
    <glyph glyph-name="uni2049" unicode="&#x2049;" 
d="M776 555q0 101 20 168t74 149l59 89q39 59 54.5 102.5t15.5 87.5q0 82 -41.5 122t-107.5 40q-53 0 -100 -29t-108 -94v217q64 61 126 87.5t147 26.5h8t14 -1q128 -11 196 -99t68 -251q0 -76 -21 -142t-83 -160l-57 -86q-45 -69 -57.5 -109.5t-12.5 -101.5v-170h-194v154z
M208 838v655h203v-655l-21 -357h-161zM312 -40q-62 0 -104 42q-43 43 -43 111q0 67 42 109q17 17 43.5 29.5t60.5 12.5q62 0 104 -42t42 -109q0 -68 -42 -110q-43 -43 -103 -43zM881 -40q-62 0 -104 42q-43 43 -43 111q0 67 42 109q17 17 43.5 29.5t60.5 12.5q62 0 104 -42
t42 -109q0 -68 -42 -110q-43 -43 -103 -43z" />
    <glyph glyph-name="uni204B" unicode="&#x204b;" 
d="M203 1493h448q143 0 250 -52.5t166.5 -147.5t59.5 -225q0 -182 -119 -292.5t-332 -126.5v-846h-141v1567h-191v-1567h-141v1690z" />
    <glyph glyph-name="uni2E18" unicode="&#x2e18;" 
d="M648 840q-62 0 -104 42q-43 43 -43 111q0 67 42 109q17 17 43.5 29.5t60.5 12.5q62 0 104 -42t42 -109q0 -68 -42 -110q-43 -43 -103 -43zM605 -400q-191 0 -301.5 96t-110.5 256q0 74 33 140.5t128 159.5l88 86q48 45 71 77.5t29.5 63t6.5 70.5v170h190v-941q19 5 35 10
t28 10q43 17 90.5 43t96.5 60v-188q-95 -58 -191 -85.5t-193 -27.5zM549 204l-45 -45q-57 -57 -83 -97.5t-26 -97.5q0 -91 51.5 -133.5t102.5 -56.5v430z" />
    <glyph glyph-name="uni2E1F" unicode="&#x2e1f;" 
d="M88 671q150 115 305 115q48 0 105 -11t125 -43l32 -15q115 -54 210 -54q134 0 280 123v-175q-69 -55 -141 -84.5t-154 -29.5q-54 0 -99 12.5t-106 38.5l-33 14q-68 28 -116.5 43t-110.5 15q-77 0 -148 -27.5t-149 -95.5v174zM490 439h252v-305h-252v305z" />
    <glyph glyph-name="uni2E2E" unicode="&#x2e2e;" 
d="M574 524q0 52 -3 82t-9 51q-7 22 -27.5 51t-66.5 74l-88 86q-88 86 -125 152.5t-37 149.5q0 156 112 253t300 97q203 0 385 -113v-188q-97 67 -186.5 102t-171.5 35q-105 0 -170.5 -55t-65.5 -145q0 -54 26.5 -97.5t81.5 -97.5l90 -89q59 -58 91 -103t43.5 -94.5
t11.5 -119.5v-154h-191v123zM669 -40q-62 0 -104 42q-43 43 -43 111q0 67 42 109q17 17 43.5 29.5t60.5 12.5q62 0 104 -42t42 -109q0 -68 -42 -110q-43 -43 -103 -43z" />
    <glyph glyph-name="glyph616" 
d="M626 1498q70 0 116 -48q46 -46 46 -125q0 -78 -46 -124q-47 -47 -116 -47t-116 47q-46 46 -46 124q0 79 46 125q46 48 116 48zM689 952l67 -567v-445h-265v445l77 567h121z" />
    <glyph glyph-name="uni2E18.case" 
d="M645 1230q-62 0 -104 42q-43 43 -43 111q0 67 42 109q17 17 43.5 29.5t60.5 12.5q62 0 104 -42t42 -109q0 -68 -42 -110q-43 -43 -103 -43zM605 -27q-191 0 -301.5 96t-110.5 256q0 74 33 140.5t128 159.5l88 86q48 45 71 77.5t29.5 63t6.5 70.5v170h190v-941q19 5 35 10
t28 10q43 17 90.5 43t96.5 60v-188q-95 -58 -191 -85.5t-193 -27.5zM549 577l-45 -45q-57 -57 -83 -97.5t-26 -97.5q0 -91 51.5 -134t102.5 -56v430z" />
    <glyph glyph-name="glyph618" 
d="M646 1230q-62 0 -104 42q-43 43 -43 111q0 67 42 109q17 17 43.5 29.5t60.5 12.5q62 0 104 -42t42 -109q0 -68 -42 -110q-43 -43 -103 -43zM605 -27q-191 0 -301.5 96t-110.5 256q0 74 33 140.5t128 159.5l88 86q44 45 67 75t30.5 60.5t7.5 75.5v5q1 11 1.5 21.5
t0.5 20.5v123h190v-154q0 -104 -32.5 -170.5t-112.5 -146.5l-90 -89q-58 -58 -83.5 -98.5t-25.5 -95.5q0 -91 65.5 -146t172.5 -55q159 0 356 137v-188q-95 -58 -191 -85.5t-193 -27.5z" />
    <glyph glyph-name="uni208D" unicode="&#x208d;" 
d="M660 -151q-94 134 -141 259.5t-47 251.5t47 251.5t141 258.5h102q-168 -254 -168 -510q0 -254 168 -511h-102z" />
    <glyph glyph-name="uni208E" unicode="&#x208e;" 
d="M472 -151q167 259 167 512t-167 509h101q188 -260 188 -510q0 -251 -188 -511h-101z" />
    <glyph glyph-name="braceleft" unicode="{" 
d="M908 -253q-247 0 -333 74q-85 73 -85 295v239q0 150 -53 209q-54 58 -194 58h-116v143h116q141 0 194 57q53 59 53 207v240q0 222 85 295q82 73 333 73h64v-143h-70q-140 0 -182 -43q-43 -43 -43 -186v-248q0 -157 -45 -228q-46 -71 -156 -96q111 -27 156 -98t45 -227
v-248q0 -143 43 -186q42 -43 182 -43h70v-144h-64z" />
    <glyph glyph-name="braceright" unicode="}" 
d="M261 -118h68q140 0 184 44q43 43 43 185v248q0 156 45 227t156 98q-110 26 -155 96q-22 34 -34 88.5t-12 139.5v248q0 142 -43 185q-44 44 -184 44h-68v143h62q251 0 333 -73q84 -73 84 -295v-240q0 -78 21 -127.5t63 -79.5q40 -29 97.5 -43t126.5 -14h64v-143h-64
q-147 0 -224 -58q-42 -31 -63 -81t-21 -128v-239q0 -221 -84 -295q-86 -74 -333 -74h-62v144z" />
    <glyph glyph-name="bracketleft" unicode="[" 
d="M323 1636h624v-143h-440v-1620h440v-143h-624v1906z" />
    <glyph glyph-name="bracketright" unicode="]" 
d="M286 -127h440v1619h-440v143h624v-1905h-624v143z" />
    <glyph glyph-name="uni2E24" unicode="&#x2e24;" 
d="M463 460h184v-587h240v-143h-424v730z" />
    <glyph glyph-name="uni2E25" unicode="&#x2e25;" 
d="M346 -127h240v587h184v-730h-424v143z" />
    <glyph glyph-name="uni2E22" unicode="&#x2e22;" 
d="M463 1556h424v-143h-240v-587h-184v730z" />
    <glyph glyph-name="uni2E23" unicode="&#x2e23;" 
d="M586 1413h-240v143h424v-730h-184v587z" />
    <glyph glyph-name="parenleft" unicode="(" 
d="M595 -270q-153 243 -225 464q-74 228 -74 449q0 219 74 449q38 115 93 228.5t132 233.5h160q-71 -121 -118.5 -231.5t-79.5 -222.5q-66 -230 -66 -457q0 -454 264 -913h-160z" />
    <glyph glyph-name="parenright" unicode=")" 
d="M478 -270q131 229 199 459q31 107 48 222t17 232q0 230 -65 455q-31 107 -80.5 222t-118.5 234h160q153 -237 225 -462q74 -230 74 -449q0 -221 -74 -451q-73 -226 -225 -462h-160z" />
    <glyph glyph-name="uni207D" unicode="&#x207d;" 
d="M660 517q-94 134 -141 259.5t-47 251.5t47 251.5t141 258.5h102q-168 -254 -168 -510q0 -254 168 -511h-102z" />
    <glyph glyph-name="uni207E" unicode="&#x207e;" 
d="M472 517q167 259 167 512t-167 509h101q188 -260 188 -510q0 -251 -188 -511h-101z" />
    <glyph glyph-name="uni2768" unicode="&#x2768;" 
d="M993 -101q-308 0 -532 224q-107 107 -164 239.5t-57 290.5q0 157 56.5 291t164.5 242q112 112 247.5 168t284.5 56v-39q-90 0 -170 -51.5t-148 -158.5t-100.5 -233t-32.5 -273q0 -297 132 -506q134 -212 319 -212v-38z" />
    <glyph glyph-name="uni2769" unicode="&#x2769;" 
d="M240 -62q186 0 319 211q67 106 99.5 232.5t32.5 266.5q0 148 -35 286t-97 227q-42 59 -97 99t-105 65q-61 30 -117 47v38q152 0 287.5 -57.5t244.5 -166.5q114 -114 167.5 -250t53.5 -276q0 -155 -59.5 -301t-161.5 -236q-70 -60 -161 -103.5t-174 -69.5
q-99 -32 -197 -51v39z" />
    <glyph glyph-name="uni276A" unicode="&#x276a;" 
d="M601 -121q-121 192 -181.5 375.5t-60.5 366.5q0 362 242 740h273q-214 -370 -214 -739q0 -376 214 -743h-273z" />
    <glyph glyph-name="uni276B" unicode="&#x276b;" 
d="M366 -121q208 358 208 720q0 359 -208 717h265q236 -367 236 -716q0 -179 -59 -357t-177 -364h-265z" />
    <glyph glyph-name="uni276C" unicode="&#x276c;" 
d="M324 617l372 748h213l-374 -748l374 -747h-213z" />
    <glyph glyph-name="uni276D" unicode="&#x276d;" 
d="M697 617l-372 748h212l372 -748l-372 -747h-213z" />
    <glyph glyph-name="uni276E" unicode="&#x276e;" 
d="M211 578l481 748h330l-490 -748l490 -747h-330z" />
    <glyph glyph-name="uni276F" unicode="&#x276f;" 
d="M701 578l-490 748h330l481 -748l-481 -747h-330z" />
    <glyph glyph-name="uni2770" unicode="&#x2770;" 
d="M206 649l418 840h403l-420 -840l420 -839h-403z" />
    <glyph glyph-name="uni2771" unicode="&#x2771;" 
d="M625 650l-418 840h402l418 -840l-418 -840h-403z" />
    <glyph glyph-name="uni2772" unicode="&#x2772;" 
d="M457 -51v1218l232 231l87 -87l-196 -195v-1116l196 -195l-87 -87z" />
    <glyph glyph-name="uni2773" unicode="&#x2773;" 
d="M457 -189l196 195v1116l-196 195l87 87l232 -231v-1218l-232 -231z" />
    <glyph glyph-name="uni2774" unicode="&#x2774;" 
d="M801 -328q-119 0 -183.5 28t-89.5 100t-25 204v215q0 136 -38.5 188.5t-139.5 52.5h-44v128h44q102 0 140 52t38 186v216q0 132 25 204t89.5 99.5t183.5 27.5h151v-129h-49q-67 0 -101.5 -16.5t-47 -61t-12.5 -128.5v-223q0 -143 -32.5 -205.5t-111.5 -86.5
q79 -24 111.5 -88t32.5 -204v-223q0 -84 12.5 -128.5t47 -61t101.5 -16.5h49v-130h-151z" />
    <glyph glyph-name="uni2775" unicode="&#x2775;" 
d="M250 -204h53q73 0 111.5 16.5t52 61t13.5 130.5v226q0 142 34.5 207t121.5 89q-85 22 -120.5 86.5t-35.5 208.5v225q0 86 -13.5 131t-52 61.5t-111.5 16.5h-53v130h165q129 0 200 -28t98.5 -100.5t27.5 -206.5v-219q0 -135 41.5 -187.5t153.5 -52.5h47v-130h-47
q-111 0 -153 -52.5t-42 -190.5v-217q0 -134 -27.5 -207t-98.5 -101t-200 -28h-165v131z" />
    </font>
</defs>
</svg>
